<?xml version="1.0" encoding="UTF-8"?>
<svg width="60px" height="52px" viewBox="0 0 60 52" version="1.1" xmlns="http://www.w3.org/2000/svg" xmlns:xlink="http://www.w3.org/1999/xlink">
    <!-- Generator: sketchtool 55 (78076) - https://sketchapp.com -->
    <title>5195116B-B874-47D2-ACC0-2C06DB70B3F7</title>
    <desc>Created with sketchtool.</desc>
    <g id="VD---Homepage-and-PDP" stroke="none" stroke-width="1" fill="none" fill-rule="evenodd">
        <g id="ELC---PDP---Small-320" transform="translate(-53.000000, -923.000000)" fill="#0D943F" fill-rule="nonzero">
            <g id="Home-Delivery---Out-of-Stock" transform="translate(10.000000, 905.000000)">
                <g id="Global/Icons/USPs/Free-Delivery" transform="translate(43.000000, 18.000000)">
                    <path d="M30.0000007,39.2452832 C27.8651621,39.2452832 26.1290331,41.0054341 26.1290331,43.1698114 C26.1290331,45.3341887 27.8651621,47.0943396 30.0000007,47.0943396 C32.1348394,47.0943396 33.8709683,45.3341887 33.8709683,43.1698114 C33.8709683,41.0054341 32.1348394,39.2452832 30.0000007,39.2452832 Z M30.0000007,45.1320755 C28.9325814,45.1320755 28.0645169,44.2520001 28.0645169,43.1698114 C28.0645169,42.0876228 28.9325814,41.2075473 30.0000007,41.2075473 C31.06742,41.2075473 31.9354845,42.0876228 31.9354845,43.1698114 C31.9354845,44.2520001 31.06742,45.1320755 30.0000007,45.1320755 Z" id="Shape"></path>
                    <path d="M58.6122581,30.0491321 C57.7441935,29.4388679 56.6332258,29.3005283 55.6422581,29.6743396 L55.5309677,29.7165283 L45.0629032,3.66550943 L18.6609677,13.2256604 L13.226129,0 L2.90322581,0 C1.30258065,0 0,1.32060377 0,2.94339623 C0,4.56618868 1.30258065,5.88679245 2.90322581,5.88679245 L9.03870968,5.88679245 L22.7225806,38.3308679 C21.8196774,39.7221132 21.2903226,41.3831698 21.2903226,43.1698113 C21.2903226,48.0391698 25.1980645,52 30,52 C34.8019355,52 38.7096774,48.0391698 38.7096774,43.1698113 C38.7096774,43.0726792 38.6980645,42.9775094 38.6951613,42.8813585 L57.8767742,35.8103396 C59.1464516,35.3413585 60,34.1070943 60,32.7364528 C60,31.6640755 59.4812903,30.6603774 58.6122581,30.0491321 Z M32.4900012,10.3018866 L35.4822593,17.1276226 L32.4416142,18.3609056 L29.3990335,11.4213583 L32.4900012,10.3018866 Z M27.5709668,12.0826412 L31.4293538,20.884377 L38.0661277,18.1931317 L34.3170956,9.64060354 L43.9693533,6.14581114 L53.7183852,30.4062636 L36.2593536,37.0446032 C34.6741924,35.3796221 32.4561279,34.3396221 29.999999,34.3396221 C29.1280635,34.3396221 28.2880636,34.4740372 27.4935475,34.7163768 L19.4061284,15.0387922 L27.5709668,12.0826412 Z M2.90322576,3.92452824 C2.36999995,3.92452824 1.93548381,3.48498107 1.93548381,2.94339617 C1.93548381,2.40181126 2.36999995,1.96226409 2.90322576,1.96226409 L11.9351613,1.96226409 L25.7148389,35.4914717 C25.1400001,35.8221132 24.6096776,36.2194717 24.1258066,36.6688302 L10.316129,3.92452824 L2.90322576,3.92452824 Z M29.9999993,50.037737 C26.2645154,50.037737 23.2258058,46.956001 23.2258058,43.1698121 C23.2258058,39.3836233 26.2645154,36.3018873 29.9999993,36.3018873 C33.7354831,36.3018873 36.7741928,39.3836233 36.7741928,43.1698121 C36.7741928,46.956001 33.7354831,50.037737 29.9999993,50.037737 Z M57.2158069,33.96581 L38.4077427,40.8994705 C38.1996781,40.108678 37.8870975,39.3620365 37.4835491,38.6742629 L56.3216133,31.5119986 C56.724194,31.3579608 57.1558069,31.4129042 57.5100004,31.6611307 C57.8622585,31.9093571 58.0645165,32.3018099 58.0645165,32.7364514 C58.0645165,33.2849043 57.7229036,33.7784137 57.2158069,33.96581 Z" id="Shape"></path>
                </g>
            </g>
        </g>
    </g>
</svg>