<?xml version="1.0" encoding="UTF-8"?>
<svg width="232px" height="47px" viewBox="0 0 232 47" version="1.1" xmlns="http://www.w3.org/2000/svg" xmlns:xlink="http://www.w3.org/1999/xlink">
    <!-- Generator: sketchtool 55.2 (78181) - https://sketchapp.com -->
    <title>A2D7C54A-9973-42C0-996F-F08E170F300A</title>
    <desc>Created with sketchtool.</desc>
    <defs>
        <polygon id="path-1" points="0 0.0882980724 51.9762407 0.0882980724 51.9762407 45.7312558 0 45.7312558"></polygon>
        <polygon id="path-3" points="0 0.0507153829 9.63328589 0.0507153829 9.63328589 10.6497926 0 10.6497926"></polygon>
        <polygon id="path-5" points="0.0838095234 0.165251277 9.92238062 0.165251277 9.92238062 14.6153851 0.0838095234 14.6153851"></polygon>
    </defs>
    <g id="💎-VD---Homepage-and-PDP---Iteration-2" stroke="none" stroke-width="1" fill="none" fill-rule="evenodd">
        <g id="ELC---PDP---Medium-768" transform="translate(-268.000000, -44.000000)">
            <g id="Mobile-header" transform="translate(0.000000, 36.000000)">
                <g id="Group" transform="translate(10.000000, 9.000000)">
                    <g id="Logo" transform="translate(258.000000, 0.000000)">
                        <g id="Group-3">
                            <g id="Global/Logos/Entertainer">
                                <g id="Global/Logos/ELC" transform="translate(0.000000, -0.416667)">
                                    <g id="Group-3" transform="translate(0.000000, 0.013781)">
                                        <mask id="mask-2" fill="white">
                                            <use xlink:href="#path-1"></use>
                                        </mask>
                                        <g id="Clip-2"></g>
                                        <path d="M1.1130322,35.5230898 C0.6515953,37.5241385 0.960263267,39.1959834 2.03035261,40.4922807 C3.13022836,41.8245098 4.60743227,42.2648773 5.03393325,42.3681809 L5.36824782,42.4495376 C7.98127311,43.0884482 14.922314,44.7858127 26.026788,44.8125573 C26.089289,44.8125573 26.1538094,44.8125573 26.2163104,44.8125573 C36.9400232,44.8125573 47.5369166,42.648489 47.6433399,42.62644 C48.9900894,42.3650165 49.9536545,41.7024236 50.5130331,40.6559129 C51.3635108,39.064506 51.1405671,36.8693037 50.5424157,35.3997788 C50.5404972,35.3951852 50.5386797,35.3904896 50.5369632,35.3858961 C49.0259341,31.3028504 46.1396816,24.8465771 40.9707805,17.2760127 C35.4440387,8.85890976 31.4889085,4.78096798 29.8000696,3.03960752 L29.7637201,3.0023488 C28.2850017,1.53159896 26.8821123,0.88533874 25.4771026,1.02518655 C24.30372,1.14216874 23.1197355,1.81149874 21.8574986,3.07104776 C19.3482714,5.57452775 13.6816849,13.116408 10.4540499,17.6793256 C10.1848615,18.1082603 9.90052752,18.558019 9.60458188,19.0261519 C6.70459736,23.6123436 2.73391767,29.8920207 1.1130322,35.5230898 M26.2160062,45.731265 C26.1521926,45.731265 26.08848,45.731265 26.0246664,45.731265 C14.8129619,45.7042141 7.7960922,43.9884754 5.15459325,43.3425215 L4.82250006,43.2616751 C4.32713696,43.1417327 2.61164187,42.6302163 1.33264385,41.080968 C0.462981734,40.0274138 -0.434245424,38.1695816 0.230950673,35.3016807 C0.232768149,35.2939227 0.234787566,35.2861647 0.237008925,35.2785088 C1.89232538,29.5173915 5.90723012,23.1676884 8.83891936,18.5312742 C9.13668246,18.0602831 9.4228339,17.6077682 9.69343584,17.1764858 C9.69787856,17.1692382 9.70262419,17.1621947 9.70747079,17.1553555 C12.9527755,12.566714 18.6697463,4.96072848 21.2191598,2.41723367 C22.6353772,1.00385208 23.9989888,0.249388454 25.3878432,0.110867666 C27.0561849,-0.0555206045 28.74361,0.697922234 30.404076,2.35027005 C30.4059945,2.35220954 30.4078119,2.35414904 30.4097304,2.35608853 L30.4489071,2.39640962 C32.1559206,4.15645045 36.1534584,8.27808187 41.7232136,16.7610255 C46.9374503,24.3978388 49.8558114,30.9251588 51.3855201,35.0571001 C52.0632366,36.7273117 52.3032443,39.238958 51.3125181,41.092605 C50.6173337,42.3935979 49.4422347,43.2127794 47.8200367,43.5275901 C47.7180561,43.5487204 37.0340253,45.731265 26.2160062,45.731265" id="Fill-1" fill="#FEFEFE" mask="url(#mask-2)"></path>
                                    </g>
                                    <path d="M30.0853121,2.69144772 C31.7728383,4.43148117 35.7559374,8.51707889 41.3446753,17.0288089 C46.3022442,24.2898706 49.2927996,30.7268511 50.962555,35.2387295 C51.9264229,37.6064448 52.1007996,42.2429613 47.7343142,43.0903165 C47.7343142,43.0903165 36.9881859,45.311651 26.0256771,45.2857476 C14.3441547,45.2575493 7.18764201,43.3749119 4.92821675,42.8285867 C3.08368081,42.3821966 -0.466758048,40.335825 0.673304096,35.4203275 C2.47866333,29.1370775 7.1713857,22.0678216 10.0771255,17.4362049 C13.1908654,13.0335508 18.9576149,5.33263189 21.5383295,2.75790095 C23.9003412,0.400699706 26.7117742,-0.66561435 30.0853121,2.69144772" id="Fill-4" fill="#0D943F"></path>
                                    <path d="M25.7735418,6.39907847 C24.8277477,6.39907847 23.9571768,6.89467053 23.3855807,7.75897082 L6.27515797,33.629897 C5.46365508,34.8567808 5.30200072,36.1358268 5.83108808,37.1394646 C6.29929001,38.02857 7.25245503,38.5819386 8.31850548,38.585103 L43.3952811,38.6698283 L43.4035607,38.9497281 L43.4035607,38.6698283 C44.4409354,38.6698283 45.2857587,38.1981227 45.7220538,37.3763892 C46.2547762,36.3722411 46.0962519,35.0470555 45.2979762,33.8319107 L28.1771534,7.77101611 C27.6042447,6.89895783 26.7282214,6.39907847 25.7735418,6.39907847 M43.4035627,39.2297296 L43.3937685,39.2297296 L8.31729398,39.1450043 C7.04647454,39.1412273 5.90671529,38.474041 5.34208615,37.4033376 C4.71364342,36.2111606 4.88589974,34.722547 5.81462985,33.3183525 L22.9247506,7.44773287 C23.6009526,6.42510853 24.6392361,5.8388706 25.7735429,5.8388706 C26.9170381,5.8388706 27.9610769,6.43031455 28.6384905,7.46141142 L45.7594152,33.5222036 C46.6723938,34.9121071 46.8410152,36.4520663 46.2104521,37.641283 C45.6747006,38.6509434 44.6517647,39.2297296 43.4035627,39.2297296" id="Fill-6" fill="#FEFEFE"></path>
                                    <path d="M27.6902121,10.513728 C27.6902121,10.513728 26.5497461,9.82388024 25.5696218,10.2612874 C25.5696218,10.2612874 25.433816,10.2609812 24.3459558,10.3132455 C24.3459558,10.3132455 22.3603636,10.4180803 22.1917422,12.6448249 C22.1917422,12.6448249 22.0277656,13.1942124 21.918818,13.2490287 C21.918818,13.2490287 21.5908646,13.8528242 22.3505694,14.569927 C22.3505694,14.569927 23.9230898,16.6351831 24.2232762,16.0588468 C24.2232762,16.0588468 24.5766743,16.2793368 24.8489927,15.9777963 C24.8489927,15.9777963 25.3933267,15.924205 25.4766276,15.0995112 C25.4766276,15.0995112 25.777117,14.6054504 26.0206587,15.0184607 C26.0206587,15.0184607 26.047315,15.2928483 26.2113927,14.8811649 C26.2113927,14.8811649 26.4022276,14.6896653 26.2945927,14.0291141 C26.2945927,14.0291141 26.4867402,13.5624103 26.8951674,13.3160944 C26.8951674,13.3160944 28.5282703,12.6052184 28.3670198,11.8349326 C28.3670198,11.8349326 28.4768761,11.2580859 27.825715,10.6241772 L27.6902121,10.513728 Z" id="Fill-8" fill="#FEFEFE"></path>
                                    <path d="M28.3645669,12.7422182 C28.3645669,12.7422182 27.4930873,13.3999112 27.0842562,13.6739925 C27.0842562,13.6739925 26.5670834,13.9750226 26.5919223,14.9098592 C26.5919223,14.9098592 26.5087223,15.5696959 26.2373126,15.4039201 C26.2373126,15.4039201 25.7486135,15.1830218 25.8560465,15.6775931 C25.8560465,15.6775931 25.8819961,16.062736 26.2087378,15.8713384 L26.398866,16.2567876 C26.398866,16.2567876 25.8813902,16.364991 25.7733514,16.3099706 L25.3926912,16.0890723 C25.3926912,16.0890723 24.9570019,16.3907148 24.8480543,16.4451228 C24.8480543,16.4451228 25.3646213,16.3637661 26.4224931,17.6311751 C26.4224931,17.6311751 26.3994718,15.8440834 27.4331106,15.8465333 C27.4331106,15.8465333 28.7931883,15.4376061 28.7948038,14.8324836 C28.7948038,14.8324836 28.9597902,14.2005144 28.7705708,13.5675244 C28.7705708,13.5675244 29.0704543,13.2387289 28.6090174,13.0178306 L28.3645669,12.7422182 Z" id="Fill-10" fill="#FEFEFE"></path>
                                    <path d="M26.0837051,22.8261221 C26.0837051,22.8261221 26.5758371,21.7000921 26.4683031,21.2054187 C26.4683031,21.2054187 26.3609711,20.627245 26.6354099,19.5831842 C26.6354099,19.5831842 26.9916352,18.5122766 25.5531032,17.3542959 C25.5531032,17.3542959 24.5218877,16.4167031 23.6773673,16.9642532 C23.6773673,16.9642532 20.8992547,18.7723731 20.6156276,23.7476886 C20.6156276,23.7476886 21.4852897,23.9969647 21.8701906,22.2386592 C21.8701906,22.2386592 22.1453363,20.9743126 22.499643,20.6182621 C22.499643,20.6182621 22.9904625,20.0146708 22.8830294,19.4643646 C22.8830294,19.4643646 23.5953789,17.2392532 24.8178333,17.6274585 C24.8178333,17.6274585 26.666307,17.8789804 26.1451964,19.7746838 C26.1451964,19.7746838 25.8184546,20.6854299 25.6269129,20.8856062 C25.6133828,21.220016 25.6252973,21.5438096 24.451511,23.0420186 C24.451511,23.0420186 25.2137401,22.741601 25.7847303,22.8252034 L26.0837051,22.8261221 Z" id="Fill-12" fill="#FEFEFE"></path>
                                    <path d="M26.9813454,22.718317 C26.9813454,22.718317 26.490324,23.4319492 26.5744327,22.414837 C26.5744327,22.414837 26.8464483,22.2233374 26.7938424,21.5635007 C26.7938424,21.5635007 26.556056,18.6763068 28.0229609,19.2844917 C28.0229609,19.2844917 29.2757065,19.1035062 29.4708832,22.9122665 C29.5704405,23.8798705 29.4865337,24.8679923 30.3197454,25.5584526 C30.3197454,25.5584526 30.8060211,26.1174355 31.1532599,26.1895031 C31.1532599,26.1895031 31.9754658,26.7444029 31.2958308,26.6599838 C31.2958308,26.6599838 30.5094696,26.2129812 29.9113182,26.0633338 C29.9113182,26.0633338 28.3175939,25.3465372 28.3464716,24.7417209 C28.3464716,24.7417209 27.2711318,23.0716114 27.7438774,22.2806035 C27.7438774,22.2806035 27.5817182,21.729889 27.2816327,22.334399 L26.9813454,22.718317 Z" id="Fill-14" fill="#FEFEFE"></path>
                                    <path d="M23.5793043,24.0574475 C23.5793043,24.0574475 24.8605238,22.5756733 26.4907995,23.3223789 C26.4907995,23.3223789 27.39045,24.2454765 28.2842442,25.2972953 C28.2842442,25.2972953 29.2857743,26.2604077 29.747817,26.3713673 C29.747817,26.3713673 31.4855257,26.9077908 31.6208267,27.1005154 C31.6208267,27.1005154 32.5736889,26.7732511 32.1097277,27.4318628 C32.1097277,27.4318628 31.8456889,28.6348602 31.0259063,28.3301553 C30.8628384,28.350571 30.7820617,28.0824103 29.4700461,28.1130339 C29.4700461,28.1130339 29.0103257,28.263702 28.4626597,27.2947711 C28.4626597,27.2947711 26.5351257,27.4735109 25.2867218,26.3431936 C25.2867218,26.3431936 24.440081,28.0179986 24.11445,27.6601107 C24.11445,27.6601107 23.3262713,27.5481304 23.0046791,25.3752834 L23.5236694,24.5521209 L23.5793043,24.0574475 Z" id="Fill-16" fill="#FEFEFE"></path>
                                    <path d="M22.6774119,25.9793536 C22.6774119,25.9793536 23.0006197,27.3550682 23.5158741,27.7135685 C23.5158741,27.7135685 21.8271362,27.9897935 21.4712139,27.4169278 L22.6774119,25.9793536 Z" id="Fill-18" fill="#FEFEFE"></path>
                                    <path d="M27.2246044,35.989641 L24.0236259,35.9815767 L24.0379637,29.8276607 L25.0254589,29.8301106 L25.0128375,35.0891027 L27.2267248,35.094615 L27.2246044,35.989641 Z M28.9081926,28.387024 C28.7829887,28.3548692 28.6220411,28.2320686 28.4938081,28.1190675 L21.870018,28.1027349 C21.8436646,28.1027349 21.8186238,28.1083492 21.7929772,28.1103908 C21.7339093,28.6453852 21.2654044,28.6038392 21.0667947,28.5797486 C20.9912685,28.7149008 20.944721,28.8683251 20.944418,29.0345092 L20.9254329,36.8431206 C20.9242239,37.3581076 21.3369928,37.7770385 21.8470976,37.778876 L29.5705615,37.7974558 C30.0806663,37.798373 30.4950508,37.3813815 30.4961615,36.86568 L30.5146404,29.0573748 C30.5149421,28.8696521 30.4595091,28.6955058 30.3655052,28.5488188 C29.9949421,28.551677 29.4124411,28.5287093 28.9081926,28.387024 L28.9081926,28.387024 Z" id="Fill-20" fill="#FEFEFE"></path>
                                    <path d="M21.5881782,28.151118 C21.4890248,28.1832727 21.3972423,28.230331 21.3158597,28.2921907 C21.4140034,28.2918845 21.5232539,28.2711625 21.5673782,28.2093028 C21.5789898,28.1937869 21.5844423,28.1727586 21.5881782,28.151118" id="Fill-22" fill="#FEFEFE"></path>
                                    <path d="M24.8444889,17.9570002 C24.8444889,17.9570002 23.4577549,17.8162337 23.2897394,19.9327334 C23.2897394,19.9327334 23.2344074,20.2901109 23.0710365,20.3717738 C23.0710365,20.3717738 22.1980423,21.6344873 22.0588035,22.9811095 C22.0588035,22.9811095 21.731052,23.7229153 21.5398132,23.8045783 C21.5398132,23.8045783 20.011619,26.1655564 19.9831452,26.7975257 C19.9831452,26.7975257 19.0851103,27.4369466 18.8644889,28.1465977 C18.8644889,28.1465977 18.8650947,28.1499663 18.8653976,28.152212 C18.8326831,28.2341812 18.8130947,28.2852206 18.8130947,28.2852206 C18.8185472,28.3548382 18.8608539,28.3647399 18.9113394,28.3504488 C18.995751,28.3266645 19.103487,28.2341812 19.103487,28.2341812 C19.1175219,28.6976185 19.3060345,28.6159555 19.463953,28.5905379 C19.4529472,28.9404637 19.8856074,28.9465884 19.9623452,28.8745209 C20.022019,29.0140624 20.1371258,29.1653431 20.2512229,29.2745673 C20.3693588,29.3876705 20.4868889,29.4555528 20.5410093,29.4162525 C20.6995336,29.2572139 20.344318,28.7467183 20.6502598,28.3823995 C20.722151,28.2693984 20.8800695,28.2437766 20.8800695,28.2437766 C21.0327375,28.2391831 21.1854054,28.280627 21.1854054,28.280627 C21.2191297,28.2893037 21.266485,28.2926723 21.3157588,28.2923661 C21.4140035,28.2917536 21.523254,28.2713379 21.5672773,28.2094782 C21.5789899,28.193656 21.5844423,28.172934 21.5881782,28.1512933 C21.595751,28.1058683 21.5899957,28.0560539 21.5844423,28.0231845 C21.4540889,27.9703078 21.0067879,27.715111 20.90612,27.4599143 C20.90612,27.4599143 23.2775219,25.1007736 23.1720074,23.8089677 C23.1720074,23.8089677 24.7799685,22.3005508 25.1903142,21.1193982 L25.246252,20.6795411 C25.246252,20.6795411 26.8821821,18.6492979 24.8444889,17.9570002" id="Fill-24" fill="#FEFEFE"></path>
                                    <path d="M16.9909043,30.7757561 L14.5815373,30.7698356 L14.5779023,32.3107134 L16.9872694,32.316634 L16.985048,33.1942045 L14.5757819,33.1880798 L14.5714402,35.1762664 L16.9808072,35.1824932 L16.9783839,36.0774171 L13.5812188,36.0693529 L13.5959605,29.9154369 L16.9933276,29.9238074 L16.9909043,30.7757561 Z M19.9103764,29.2609083 C19.5080074,29.3314446 19.4070366,28.9558971 19.4070366,28.9558971 C19.0248618,29.0473596 18.9498404,28.5945386 18.9498404,28.5945386 C18.8226171,28.6505798 18.6190598,28.5728979 18.5833161,28.4854164 C18.5379802,28.3671072 18.6148191,28.1651956 18.6445045,28.0952717 L11.6066324,28.0782223 C11.0968304,28.0771017 10.682345,28.4937869 10.6810324,29.0093864 L10.6630548,36.817998 C10.661444,37.3336996 11.07391,37.7528347 11.5840149,37.7534472 L19.3072773,37.7723344 C19.8176851,37.7735567 20.2322715,37.356259 20.2334832,36.8405574 L20.2503453,29.6463574 C20.098889,29.5173299 19.936023,29.3398151 19.9103764,29.2609083 L19.9103764,29.2609083 Z" id="Fill-26" fill="#FEFEFE"></path>
                                    <path d="M39.8905321,29.9727847 L39.6527457,29.971764 L39.457569,29.5526288 L39.3029826,29.5517101 L39.301771,29.9711515 L39.0885205,29.9706411 L39.0909438,28.9664929 L39.4737244,28.9673096 C39.7531108,28.967922 39.8929554,29.0644885 39.8923516,29.2410846 C39.8917438,29.3877717 39.8130875,29.4860735 39.6708195,29.5186366 L39.8905321,29.9727847 Z M39.4545399,28.7217045 C39.2482564,28.7210958 39.069538,28.7954091 38.9262603,28.9389317 C38.7791458,29.0895999 38.6977632,29.2825286 38.6971565,29.4836236 C38.6968545,29.6844124 38.7723807,29.8730538 38.9143458,30.0200471 C39.0582292,30.1666321 39.2470448,30.2487034 39.4384856,30.2490133 C39.6469904,30.2496221 39.8360079,30.1731652 39.9865555,30.0274989 C40.1285205,29.8892843 40.2078903,29.7005408 40.2078903,29.4994458 C40.2086914,29.2838556 40.1355885,29.097562 39.9933205,28.9512832 C39.8467108,28.80184 39.6631458,28.7223207 39.4545399,28.7217045 L39.4545399,28.7217045 Z" id="Fill-28" fill="#FEFEFE"></path>
                                    <path d="M40.0767035,30.1219132 C39.9020239,30.2922825 39.6785753,30.3838471 39.4481598,30.3830359 C39.2127967,30.3827242 38.9897521,30.2852391 38.8206258,30.1110928 C38.6547307,29.9400089 38.5641598,29.7191107 38.5647626,29.483411 C38.5650686,29.2451593 38.6613948,29.0172176 38.8334491,28.843888 C39.0008588,28.6759685 39.2121909,28.5896099 39.4524006,28.5902192 C39.6954375,28.590937 39.9156549,28.6830119 40.0868006,28.8594039 C40.2511811,29.0286504 40.3386219,29.2467926 40.3386219,29.4876983 C40.3377132,29.7355453 40.2465365,29.9560353 40.0767035,30.1219132 L40.0767035,30.1219132 Z M38.3530298,31.3565551 C37.7924395,30.8729062 37.1716706,30.6306735 36.4818376,30.6289381 C35.1449833,30.6258758 34.2322066,31.5788825 34.2288746,32.9475536 C34.2255425,34.2986673 35.1511425,35.2391183 36.3686493,35.2421806 C37.0923075,35.2441201 37.7400356,34.9869839 38.3373793,34.472201 L38.3343502,35.5998644 C37.7970842,35.9858239 37.1756084,36.173955 36.4430648,36.1722315 C35.5066609,36.1696677 34.7070726,35.8491406 34.1126571,35.2536135 C33.5177367,34.6583926 33.1964474,33.8316572 33.1985574,32.936325 C33.2006882,32.0327244 33.5263193,31.2244652 34.1318416,30.6233238 C34.7377678,30.0221824 35.530591,29.7061467 36.4411463,29.707875 C37.17369,29.7098216 37.8120278,29.9263305 38.4065443,30.349855 L38.3530298,31.3565551 Z M39.8562839,28.1465884 L32.1492784,28.1281122 C31.9961056,28.4028059 31.7200512,28.674029 31.2858765,28.6862784 C31.2365017,28.8007087 31.207826,28.9262654 31.2075231,29.059274 L31.1888408,36.8675793 C31.1876318,37.3829746 31.6000978,37.8020076 32.1102027,37.8033347 L39.8337674,37.8222219 C40.3438723,37.8234442 40.7581557,37.4060444 40.7596703,36.8907512 L40.7779492,29.0824458 C40.7792587,28.5668464 40.3663888,28.1476092 39.8562839,28.1465884 L39.8562839,28.1465884 Z" id="Fill-30" fill="#FEFEFE"></path>
                                    <path d="M39.4339932,29.1037189 L39.3039427,29.1034126 L39.3030339,29.4183254 L39.4431815,29.4183254 C39.5998883,29.4189379 39.673597,29.3743295 39.6739008,29.2652074 C39.6742029,29.1513896 39.5961524,29.1040251 39.4339932,29.1037189" id="Fill-32" fill="#FEFEFE"></path>
                                </g>
                            </g>
                            <g id="Global/Logos/Entertainer-Copy" transform="translate(62.000000, 14.000000)">
                                <g id="Group-41">
                                    <g id="Group-3" transform="translate(0.000000, 4.276267)">
                                        <mask id="mask-4" fill="white">
                                            <use xlink:href="#path-3"></use>
                                        </mask>
                                        <g id="Clip-2"></g>
                                        <path d="M6.94995251,4.43533077 C6.80090489,3.23443336 6.05566679,2.3385103 4.80709536,2.3385103 C3.6147144,2.3385103 2.81328582,3.27243336 2.68328582,4.43533077 L6.94995251,4.43533077 Z M2.73899994,6.26517707 C2.92519041,7.6190489 4.02471419,8.24799763 5.2728094,8.24799763 C6.65185699,8.24799763 7.60233316,7.14210017 8.31042838,7.14210017 C8.88757123,7.14210017 9.40947598,7.73353608 9.40947598,8.32399763 C9.40947598,9.50638228 7.02423794,10.6497926 5.03090465,10.6497926 C2.01233329,10.6497926 -4.76190464e-05,8.40048481 -4.76190464e-05,5.36925397 C-4.76190464e-05,2.58599749 1.97471424,0.0507153829 4.80709513,0.0507153829 C7.71423792,0.0507153829 9.6332855,2.75797186 9.6332855,5.0452796 C9.6332855,5.8652027 9.27899979,6.26517707 8.45899981,6.26517707 L2.73899994,6.26517707 Z" id="Fill-1" fill="#FFFFFF" mask="url(#mask-4)"></path>
                                    </g>
                                    <path d="M15.0305714,12.4099229 C16.4281904,12.4099229 17.0986666,10.9610511 17.0986666,9.64566655 C17.0986666,8.33028197 16.4467618,6.84341022 15.0305714,6.84341022 C13.5586666,6.84341022 12.9062857,8.33028197 12.9062857,9.64566655 C12.9062857,10.9610511 13.5772381,12.4099229 15.0305714,12.4099229 L15.0305714,12.4099229 Z M19.782,13.019872 C19.782,13.7253079 19.782,14.8117182 18.4962858,14.8117182 C17.7139048,14.8117182 17.396762,14.3737438 17.2105715,13.6493079 C16.5210477,14.4877438 15.6829524,14.9262054 14.6577143,14.9262054 C12.1424763,14.9262054 10.2234286,12.7343848 10.2234286,9.64566678 C10.2234286,6.63392312 12.1981905,4.32712819 14.6577143,4.32712819 C15.6453334,4.32712819 16.614381,4.72758974 17.2105715,5.58551284 C17.2853334,4.91807692 17.844381,4.44161537 18.4962858,4.44161537 C19.782,4.44161537 19.782,5.52802565 19.782,6.23346157 L19.782,13.019872 Z" id="Fill-4" fill="#FFFFFF"></path>
                                    <path d="M20.780191,5.81419491 C20.780191,4.89927186 21.4882862,4.44181034 22.1592386,4.44181034 C22.8668577,4.44181034 23.4635244,4.70829751 23.4635244,5.58522056 L23.5006672,5.58522056 C24.0035244,4.82278469 24.5440006,4.44181034 25.382572,4.44181034 C26.034953,4.44181034 26.6868578,4.91827186 26.6868578,5.90968209 C26.6868578,6.80560513 25.8859054,6.86260513 25.0844768,7.24406666 C24.2830482,7.625041 23.4635244,7.98750253 23.4635244,9.07391275 L23.4635244,13.2870408 C23.4635244,14.2019639 22.9044767,14.8119126 22.1220958,14.8119126 C21.3392386,14.8119126 20.780191,14.2019639 20.780191,13.2870408 L20.780191,5.81419491 Z" id="Fill-6" fill="#FFFFFF"></path>
                                    <path d="M27.2989527,1.37248209 C27.2989527,0.629046172 27.9327623,9.7435895e-05 28.6408575,9.7435895e-05 C29.4046671,9.7435895e-05 29.9822862,0.629046172 29.9822862,1.37248209 L29.9822862,11.3806106 C29.9822862,13.5729183 32.03181,12.0670465 32.1622862,13.6299184 C32.2556196,14.7548158 31.1746672,14.8498158 30.4665719,14.8498158 C28.827048,14.8498158 27.2989527,14.0683799 27.2989527,11.666585 L27.2989527,1.37248209 Z" id="Fill-8" fill="#FFFFFF"></path>
                                    <g id="Group-12" transform="translate(30.476190, 4.276267)">
                                        <mask id="mask-6" fill="white">
                                            <use xlink:href="#path-5"></use>
                                        </mask>
                                        <g id="Clip-11"></g>
                                        <path d="M0.0838095234,13.2426099 C0.0838095234,12.5756612 0.698571407,12.0797125 1.22047615,12.0797125 C2.59904753,12.0797125 3.77285702,11.0883023 3.97809511,9.7734049 L0.978095207,2.03358457 C0.903333305,1.82409739 0.810476165,1.61412304 0.810476165,1.32814869 C0.810476165,0.661199983 1.53714281,0.165251277 2.11476184,0.165251277 C2.74809515,0.165251277 3.23285704,0.508712808 3.43761893,1.11866151 L5.3009522,6.30371267 L7.27619023,1.11866151 C7.48095213,0.508712808 7.96523783,0.165251277 8.61761876,0.165251277 C9.17666636,0.165251277 9.92238062,0.661199983 9.92238062,1.32814869 C9.92238062,1.61412304 9.86619014,1.82409739 9.75428539,2.03358457 L6.47476169,10.4783536 C5.74809505,12.3276869 4.08999986,14.6154817 1.83523804,14.6154817 C0.661428551,14.6154817 0.0838095234,14.0240458 0.0838095234,13.2426099" id="Fill-10" fill="#FFFFFF" mask="url(#mask-6)"></path>
                                    </g>
                                    <path d="M46.4628565,1.37248209 C46.4628565,0.629046172 47.096666,9.7435895e-05 47.8042851,9.7435895e-05 C48.5685708,9.7435895e-05 49.1461899,0.629046172 49.1461899,1.37248209 L49.1461899,11.3806106 C49.1461899,13.5729183 51.1957138,12.0670465 51.32619,13.6299184 C51.4190471,14.7548158 50.3380947,14.8498158 49.6304756,14.8498158 C47.9909518,14.8498158 46.4628565,14.0683799 46.4628565,11.666585 L46.4628565,1.37248209 Z" id="Fill-13" fill="#FFFFFF"></path>
                                    <path d="M58.0286189,8.71159722 C57.8795713,7.51069981 57.1343332,6.61477676 55.8857617,6.61477676 C54.6933807,6.61477676 53.8919521,7.54869981 53.7614759,8.71159722 L58.0286189,8.71159722 Z M53.8176664,10.5414435 C54.0038569,11.8953154 55.1033807,12.5242641 56.351476,12.5242641 C57.7305237,12.5242641 58.6805237,11.4183666 59.388619,11.4183666 C59.9662381,11.4183666 60.4881429,12.0098025 60.4881429,12.6002641 C60.4881429,13.7826487 58.1033808,14.926059 56.109095,14.926059 C53.0909997,14.926059 51.0781424,12.6767513 51.0781424,9.64552043 C51.0781424,6.86226395 53.0533806,4.32698184 55.8857617,4.32698184 C58.7924285,4.32698184 60.7119524,7.03423831 60.7119524,9.32154606 C60.7119524,10.1414692 60.3576667,10.5414435 59.5376666,10.5414435 L53.8176664,10.5414435 Z" id="Fill-15" fill="#FFFFFF"></path>
                                    <path d="M66.3377592,12.4099229 C67.7353783,12.4099229 68.4063307,10.9610511 68.4063307,9.64566655 C68.4063307,8.33028197 67.7539498,6.84341022 66.3377592,6.84341022 C64.8658544,6.84341022 64.2134735,8.33028197 64.2134735,9.64566655 C64.2134735,10.9610511 64.8844259,12.4099229 66.3377592,12.4099229 L66.3377592,12.4099229 Z M71.0891878,13.019872 C71.0891878,13.7253079 71.0891878,14.8117182 69.8034735,14.8117182 C69.0210926,14.8117182 68.7044259,14.3737438 68.5182354,13.6493079 C67.8287116,14.4877438 66.9901402,14.9262054 65.9653783,14.9262054 C63.449664,14.9262054 61.5306164,12.7343848 61.5306164,9.64566678 C61.5306164,6.63392312 63.5058545,4.32712819 65.9653783,4.32712819 C66.9529973,4.32712819 67.9215688,4.72758974 68.5182354,5.58551284 C68.5925211,4.91807692 69.1515688,4.44161537 69.8034735,4.44161537 C71.0891878,4.44161537 71.0891878,5.52802565 71.0891878,6.23346157 L71.0891878,13.019872 Z" id="Fill-17" fill="#FFFFFF"></path>
                                    <path d="M72.2180466,5.81419491 C72.2180466,4.89927186 72.9261419,4.44181034 73.5970943,4.44181034 C74.3051895,4.44181034 74.90138,4.70829751 74.90138,5.58522056 L74.9385229,5.58522056 C75.4418562,4.82278469 75.9823324,4.44181034 76.8204277,4.44181034 C77.4728087,4.44181034 78.1247134,4.91827186 78.1247134,5.90968209 C78.1247134,6.80560513 77.323761,6.86260513 76.5223325,7.24406666 C75.7209039,7.625041 74.90138,7.98750253 74.90138,9.07391275 L74.90138,13.2870408 C74.90138,14.2019639 74.3423324,14.8119126 73.5599514,14.8119126 C72.7770943,14.8119126 72.2180466,14.2019639 72.2180466,13.2870408 L72.2180466,5.81419491 Z" id="Fill-19" fill="#FFFFFF"></path>
                                    <path d="M78.8303339,5.96643837 C78.8303339,5.0515153 79.3893815,4.44156659 80.1722387,4.44156659 C80.8612864,4.44156659 81.3089054,4.82254094 81.4017626,5.45197684 C81.9231912,4.70805376 82.7246198,4.32707941 83.9917627,4.32707941 C86.0974771,4.32707941 87.6622391,5.69946402 87.6622391,8.02525888 L87.6622391,13.2867973 C87.6622391,14.2017204 87.1031914,14.8116691 86.3212866,14.8116691 C85.5384294,14.8116691 84.9793818,14.2017204 84.9793818,13.2867973 L84.9793818,8.50172041 C84.9793818,7.22482298 84.1965246,6.61487427 83.227477,6.61487427 C82.1284293,6.61487427 81.5136674,7.43431016 81.5136674,8.50172041 L81.5136674,13.2867973 C81.5136674,14.2017204 80.9546197,14.8116691 80.1722387,14.8116691 C79.3893815,14.8116691 78.8303339,14.2017204 78.8303339,13.2867973 L78.8303339,5.96643837 Z" id="Fill-21" fill="#FFFFFF"></path>
                                    <path d="M88.6663795,5.8141948 C88.6663795,5.03275887 89.300189,4.44181014 90.007808,4.44181014 C90.7720937,4.44181014 91.3497128,5.03275887 91.3497128,5.8141948 L91.3497128,11.3617078 C91.3497128,13.5535284 93.3992365,12.0476566 93.5292365,13.5920156 C93.6225699,14.7359131 92.5416175,14.8309131 91.8339985,14.8309131 C90.1939985,14.8309131 88.6663795,14.0494771 88.6663795,11.6476822 L88.6663795,5.8141948 Z M90.0078081,3.3933999 C89.2063795,3.3933999 88.4987604,2.61147685 88.4987604,1.79204098 C88.4987604,1.02911793 89.2063795,0.28616924 90.0078081,0.28616924 C90.864951,0.28616924 91.5173319,0.972117935 91.5173319,1.79204098 C91.5173319,2.66896403 90.864951,3.3933999 90.0078081,3.3933999 L90.0078081,3.3933999 Z" id="Fill-23" fill="#FFFFFF"></path>
                                    <path d="M94.098191,5.96643837 C94.098191,5.0515153 94.6572387,4.44156659 95.4396197,4.44156659 C96.1291435,4.44156659 96.5762864,4.82254094 96.6691435,5.45197684 C97.1910483,4.70805376 97.9924769,4.32707941 99.2591437,4.32707941 C101.364858,4.32707941 102.930096,5.69946402 102.930096,8.02525888 L102.930096,13.2867973 C102.930096,14.2017204 102.371049,14.8116691 101.588668,14.8116691 C100.80581,14.8116691 100.246763,14.2017204 100.246763,13.2867973 L100.246763,8.50172041 C100.246763,7.22482298 99.4643818,6.61487427 98.4953341,6.61487427 C97.3958102,6.61487427 96.7810483,7.43431016 96.7810483,8.50172041 L96.7810483,13.2867973 C96.7810483,14.2017204 96.2220007,14.8116691 95.4396197,14.8116691 C94.6572387,14.8116691 94.098191,14.2017204 94.098191,13.2867973 L94.098191,5.96643837 Z" id="Fill-25" fill="#FFFFFF"></path>
                                    <path d="M108.731712,6.84350779 C107.334093,6.84350779 106.644569,8.33037954 106.644569,9.60776411 C106.644569,11.0756359 107.334093,12.4100204 108.731712,12.4100204 C110.165998,12.4100204 110.837426,11.0376359 110.837426,9.70325129 C110.837426,8.36837954 110.203617,6.84350779 108.731712,6.84350779 L108.731712,6.84350779 Z M113.520283,13.8968924 C113.520283,17.1946104 111.414569,18.8529693 108.358855,18.8529693 C107.259331,18.8529693 104.128855,18.3005078 104.128855,16.794636 C104.128855,16.2796873 104.687903,15.5937386 105.209807,15.5937386 C106.06695,15.5937386 107.01695,16.4511745 108.563617,16.4511745 C109.867903,16.4511745 110.837426,15.6697386 110.837426,14.278354 L110.837426,13.6299181 L110.799807,13.6299181 C110.24076,14.4688411 109.327903,14.9263027 108.097903,14.9263027 C105.284093,14.9263027 103.961712,12.3910206 103.961712,9.66476422 C103.961712,6.90050781 105.675522,4.32722576 108.377426,4.32722576 C109.29076,4.32722576 110.334093,4.7466873 110.837426,5.58512319 C111.004569,4.86117448 111.433617,4.44171294 112.178855,4.44171294 C112.961236,4.44171294 113.520283,5.05166166 113.520283,5.96658473 L113.520283,13.8968924 Z" id="Fill-27" fill="#FFFFFF"></path>
                                    <path d="M126.712813,7.37731025 C126.042337,7.37731025 125.44567,6.84336152 124.588527,6.84336152 C123.060908,6.84336152 122.334241,8.23523335 122.334241,9.64561799 C122.334241,10.9994898 123.135194,12.4098745 124.588527,12.4098745 C125.25948,12.4098745 126.26567,11.8379257 126.582337,11.8379257 C127.21567,11.8379257 127.737575,12.3908745 127.737575,13.0393104 C127.737575,14.449695 125.426622,14.9261566 124.458051,14.9261566 C121.569956,14.9261566 119.650908,12.5053617 119.650908,9.64561799 C119.650908,6.86236152 121.62567,4.32707941 124.458051,4.32707941 C125.519956,4.32707941 127.737575,4.72754095 127.737575,6.0619256 C127.737575,6.63387433 127.346146,7.37731025 126.712813,7.37731025" id="Fill-29" fill="#FFFFFF"></path>
                                    <path d="M134.803623,8.71159722 C134.654575,7.51069981 133.909337,6.61477676 132.660766,6.61477676 C131.467908,6.61477676 130.666956,7.54869981 130.536956,8.71159722 L134.803623,8.71159722 Z M130.59267,10.5414435 C130.778861,11.8953154 131.878385,12.5242641 133.126956,12.5242641 C134.505528,12.5242641 135.455528,11.4183666 136.164099,11.4183666 C136.741242,11.4183666 137.263623,12.0098025 137.263623,12.6002641 C137.263623,13.7826487 134.878385,14.926059 132.884575,14.926059 C129.866004,14.926059 127.853147,12.6767513 127.853147,9.64552043 C127.853147,6.86226395 129.828861,4.32698184 132.660766,4.32698184 C135.567433,4.32698184 137.486956,7.03423831 137.486956,9.32154606 C137.486956,10.1414692 137.132671,10.5414435 136.313147,10.5414435 L130.59267,10.5414435 Z" id="Fill-31" fill="#FFFFFF"></path>
                                    <path d="M138.4299,5.96643837 C138.4299,5.0515153 138.988947,4.44156659 139.771804,4.44156659 C140.460852,4.44156659 140.907995,4.82254094 141.001328,5.45197684 C141.522757,4.70805376 142.324186,4.32707941 143.591328,4.32707941 C145.697043,4.32707941 147.261805,5.69946402 147.261805,8.02525888 L147.261805,13.2867973 C147.261805,14.2017204 146.702757,14.8116691 145.920376,14.8116691 C145.137995,14.8116691 144.578948,14.2017204 144.578948,13.2867973 L144.578948,8.50172041 C144.578948,7.22482298 143.79609,6.61487427 142.827043,6.61487427 C141.727995,6.61487427 141.113233,7.43431016 141.113233,8.50172041 L141.113233,13.2867973 C141.113233,14.2017204 140.554185,14.8116691 139.771804,14.8116691 C138.988947,14.8116691 138.4299,14.2017204 138.4299,13.2867973 L138.4299,5.96643837 Z" id="Fill-33" fill="#FFFFFF"></path>
                                    <path d="M154.197909,13.5917234 C154.290766,14.7166209 153.172671,14.8116209 152.465052,14.8116209 C150.787909,14.8116209 149.278385,14.030185 149.278385,11.5519028 L149.278385,6.95780014 L148.62648,6.95780014 C147.993147,6.95780014 147.508385,6.4048514 147.508385,5.77590266 C147.508385,5.05146674 147.993147,4.55600519 148.62648,4.55600519 L149.278385,4.55600519 L149.278385,2.68767179 C149.278385,2.02023588 149.85648,1.39128714 150.62029,1.39128714 C151.365528,1.39128714 151.942671,2.02023588 151.942671,2.68767179 L151.942671,4.55600519 L152.874575,4.55600519 C153.508385,4.55600519 154.03029,5.05146674 154.03029,5.77590266 C154.03029,6.4048514 153.508385,6.95780014 152.874575,6.95780014 L151.942671,6.95780014 L151.942671,11.2659285 C151.942671,13.4962362 154.067433,11.9713644 154.197909,13.5917234" id="Fill-35" fill="#FFFFFF"></path>
                                    <path d="M154.799906,5.81419491 C154.799906,4.89927186 155.507525,4.44181034 156.178478,4.44181034 C156.886573,4.44181034 157.482764,4.70829751 157.482764,5.58522056 L157.519906,5.58522056 C158.023716,4.82278469 158.563716,4.44181034 159.401811,4.44181034 C160.054668,4.44181034 160.706097,4.91827186 160.706097,5.90968209 C160.706097,6.80560513 159.905144,6.86260513 159.103716,7.24406666 C158.302764,7.625041 157.482764,7.98750253 157.482764,9.07391275 L157.482764,13.2870408 C157.482764,14.2019639 156.923716,14.8119126 156.141335,14.8119126 C155.358954,14.8119126 154.799906,14.2019639 154.799906,13.2870408 L154.799906,5.81419491 Z" id="Fill-37" fill="#FFFFFF"></path>
                                    <path d="M167.291288,8.71159722 C167.142717,7.51069981 166.397003,6.61477676 165.148431,6.61477676 C163.95605,6.61477676 163.155098,7.54869981 163.024622,8.71159722 L167.291288,8.71159722 Z M163.080336,10.5414435 C163.266526,11.8953154 164.36605,12.5242641 165.614621,12.5242641 C166.993193,12.5242641 167.943669,11.4183666 168.651764,11.4183666 C169.229383,11.4183666 169.751288,12.0098025 169.751288,12.6002641 C169.751288,13.7826487 167.36605,14.926059 165.372241,14.926059 C162.353669,14.926059 160.341288,12.6767513 160.341288,9.64552043 C160.341288,6.86226395 162.316526,4.32698184 165.148431,4.32698184 C168.055574,4.32698184 169.974621,7.03423831 169.974621,9.32154606 C169.974621,10.1414692 169.620812,10.5414435 168.801288,10.5414435 L163.080336,10.5414435 Z" id="Fill-39" fill="#FFFFFF"></path>
                                </g>
                            </g>
                        </g>
                    </g>
                </g>
            </g>
        </g>
    </g>
</svg>