<?xml version="1.0" encoding="UTF-8"?>
<svg width="24px" height="22px" viewBox="0 0 24 22" version="1.1" xmlns="http://www.w3.org/2000/svg" xmlns:xlink="http://www.w3.org/1999/xlink">
    <!-- Generator: sketchtool 55.2 (78181) - https://sketchapp.com -->
    <title>F549ABF4-EDF1-41CE-9292-B5D2E1EECC96</title>
    <desc>Created with sketchtool.</desc>
    <g id="Styleguide" stroke="none" stroke-width="1" fill="none" fill-rule="evenodd">
        <g id="Iconography" transform="translate(-416.000000, -1036.000000)" fill="#0D943F">
            <g id="icons" transform="translate(257.000000, 580.000000)">
                <path d="M159,477.815703 L163.361777,477.815703 L163.361777,464.723554 L159,464.723554 L159,477.815703 Z M183,465.815703 C183,464.617203 182.014203,463.638223 180.815703,463.638223 L173.94512,463.638223 L175.037268,458.620611 L175.037268,458.290649 C175.037268,457.852971 174.819111,457.416657 174.599591,457.092149 L173.397,456 L166.200545,463.200545 C165.764231,463.526417 165.546074,464.074537 165.546074,464.723554 L165.546074,475.631406 C165.546074,476.83536 166.526417,477.815703 167.723554,477.815703 L177.546074,477.815703 C178.413248,477.815703 179.180889,477.273037 179.505397,476.505397 L182.780479,468.760823 C182.888195,468.542666 182.888195,468.218157 182.888195,468 L182.888195,465.815703 L183,465.815703 C183,465.927508 183,465.815703 183,465.815703 Z" id="Fill-1-Copy-4" transform="translate(171.000000, 466.907851) scale(-1, -1) translate(-171.000000, -466.907851) "></path>
            </g>
        </g>
    </g>
</svg>