<?xml version="1.0" encoding="UTF-8"?>
<svg width="24px" height="22px" viewBox="0 0 24 22" version="1.1" xmlns="http://www.w3.org/2000/svg" xmlns:xlink="http://www.w3.org/1999/xlink">
    <!-- Generator: sketchtool 55.2 (78181) - https://sketchapp.com -->
    <title>DAA8F918-A91B-4F81-BC63-4DA39C619F8D</title>
    <desc>Created with sketchtool.</desc>
    <g id="Styleguide" stroke="none" stroke-width="1" fill="none" fill-rule="evenodd">
        <g id="Iconography" transform="translate(-350.000000, -1033.000000)" fill="#0D943F">
            <g id="icons" transform="translate(257.000000, 580.000000)">
                <path d="M93,474.815703 L97.3617771,474.815703 L97.3617771,461.723554 L93,461.723554 L93,474.815703 Z M117,462.815703 C117,461.617203 116.014203,460.638223 114.815703,460.638223 L107.94512,460.638223 L109.037268,455.620611 L109.037268,455.290649 C109.037268,454.852971 108.819111,454.416657 108.599591,454.092149 L107.397,453 L100.200545,460.200545 C99.7642313,460.526417 99.5460743,461.074537 99.5460743,461.723554 L99.5460743,472.631406 C99.5460743,473.83536 100.526417,474.815703 101.723554,474.815703 L111.546074,474.815703 C112.413248,474.815703 113.180889,474.273037 113.505397,473.505397 L116.780479,465.760823 C116.888195,465.542666 116.888195,465.218157 116.888195,465 L116.888195,462.815703 L117,462.815703 C117,462.927508 117,462.815703 117,462.815703 Z" id="Fill-1"></path>
            </g>
        </g>
    </g>
</svg>