<?xml version="1.0" encoding="UTF-8"?>
<svg width="49px" height="38px" viewBox="0 0 49 38" version="1.1" xmlns="http://www.w3.org/2000/svg" xmlns:xlink="http://www.w3.org/1999/xlink">
    <!-- Generator: sketchtool 55.1 (78136) - https://sketchapp.com -->
    <title>4CB51FD3-A4E1-46CA-AB92-766D3609911C</title>
    <desc>Created with sketchtool.</desc>
    <defs>
        <polygon id="path-1" points="0.567082556 0.547952441 36.8153783 0.547952441 36.8153783 37.8994709 0.567082556 37.8994709"></polygon>
    </defs>
    <g id="VD---Homepage-and-PDP---Iteration-2" stroke="none" stroke-width="1" fill="none" fill-rule="evenodd">
        <g id="ELC---PDP---Large-1440px" transform="translate(-1077.000000, -217.000000)">
            <g id="Desktop/Global/Header/ELC-Copy-2" transform="translate(0.000000, 216.000000)">
                <g id="USPs-2" transform="translate(149.000000, 1.000000)">
                    <g id="Free-Click-and-Collect" transform="translate(928.000000, 0.000000)">
                        <g id="Mouse">
                            <polygon id="Fill-1" fill="#B3B3B3" points="3.00833349 12.5061279 0 12.2542808 1.62873393 14.7432055 0.452186078 17.4600589 3.37411459 16.7171803 5.6580863 18.648946 5.83953677 15.7013501 8.42592593 14.1761978 5.61488381 13.099868 4.92508403 10.2268414"></polygon>
                            <polygon id="Fill-2" fill="#B3B3B3" points="10.2306016 25.8678928 9.83794604 24.4408816 8.42592593 23.9464481 9.68242365 23.1386198 9.71629982 21.6568405 10.8834877 22.5848542 12.320145 22.160402 11.7873653 23.5478586 12.6388889 24.7649257 11.1421784 24.6919017"></polygon>
                            <g id="Group-12" transform="translate(11.435185, 0.000000)">
                                <g id="Group-5">
                                    <mask id="mask-2" fill="white">
                                        <use xlink:href="#path-1"></use>
                                    </mask>
                                    <g id="Clip-4"></g>
                                    <path d="M36.049619,23.4943031 C35.034381,21.0536116 33.1373439,19.1546848 30.7051746,18.1509074 L24.6440106,15.6497142 C24.5146984,15.5974628 24.3798836,15.569962 24.2436931,15.5548366 C24.1363915,15.4682093 24.020836,15.3925822 23.8873968,15.3375807 L22.0398836,14.5744349 C17.4465503,12.6810083 12.2369206,14.5235585 9.7772381,18.6775468 C9.75385185,18.6706716 9.73046561,18.6582963 9.70707937,18.6527961 C7.93110053,18.1866584 4.34612698,16.6259908 4.60062434,14.7889407 C4.91702646,12.5187538 7.86782011,11.5892285 10.2876085,11.2124682 C11.9246455,10.9567113 14.1711005,10.9690866 16.3515238,10.9759618 C20.0575556,10.9924622 23.2600952,11.0048376 25.0580847,9.8690566 C26.2494074,9.11553605 27.0624233,8.23001191 27.4723704,7.2358598 C27.6388254,6.83572389 27.7364974,6.4218376 27.7626349,6.00795132 C27.8465503,4.70991592 27.2508889,3.46550699 26.088455,2.50023067 C24.5738519,1.24482144 21.3589312,0.704431708 20.4152275,0.568302996 C19.8842222,0.491300896 19.3545926,0.626054571 18.9240106,0.949188381 C18.4948042,1.26957212 18.215545,1.73708486 18.1371323,2.26922437 C17.9816825,3.36237918 18.7437989,4.38403204 19.8415767,4.54216135 C21.3451746,4.75804224 23.1349101,5.26818115 23.5255979,5.59131496 C23.6177672,5.66831706 23.679672,5.73431886 23.7181905,5.78244517 C23.6397778,5.89932336 23.4306772,6.1468301 22.9120529,6.47546407 C22.103164,6.98560298 18.650254,6.97047756 16.3652804,6.96222734 C14.0362857,6.949852 11.6247513,6.94022674 9.66993651,7.2468601 C6.5857037,7.72537315 1.31004233,9.27366536 0.62221164,14.2389258 C-0.011968254,18.8026752 4.96655026,21.472998 8.29565079,22.4300241 C7.88983069,24.3578267 8.07279365,26.3653814 8.84866667,28.2326823 C9.86390476,30.677499 11.7623175,32.5736757 14.1931111,33.576078 L15.9911005,34.3172232 C16.123164,34.3722247 16.2566032,34.4011005 16.395545,34.4148509 C16.5028466,34.5014782 16.6184021,34.5784803 16.7477143,34.6307318 L22.8570265,37.1539256 C24.0868677,37.6585643 25.3593545,37.9005709 26.6153333,37.9005709 C30.4988254,37.9005709 34.1883492,35.5960081 35.7621058,31.7926544 L36.0675026,31.0501341 C37.0717354,28.6218179 37.0634815,25.9377447 36.049619,23.4943031" id="Fill-3" fill="#FFFFFF" mask="url(#mask-2)"></path>
                                </g>
                                <path d="M17.3198519,33.2477191 L23.429164,35.7681628 C27.6895873,37.5254607 32.6158307,35.4807799 34.3753016,31.2195388 L34.6820741,30.4783936 C36.441545,26.2185274 34.3945608,21.2945181 30.1341376,19.5358452 L24.0715979,17.036027 C23.6478942,18.3491878 22.5226032,21.7276549 21.0396402,25.3151278 C19.6749841,28.6179678 18.3172063,31.3625427 17.3198519,33.2477191 Z" id="Fill-6" fill="#0D943F"></path>
                                <path d="M26.0881799,6.66356919 C25.8488148,7.24521005 25.3246878,7.92722865 24.2571746,8.60237206 C22.8278624,9.50439666 19.6844762,9.49202132 16.3553757,9.47827094 C14.1213016,9.46727064 11.8129418,9.45764538 10.0575979,9.73127784 C7.13569312,10.1877903 3.55897354,11.4005734 3.11738624,14.5837852 C2.59601058,18.3307623 9.25971429,20.0853102 9.32574603,20.1018106 C9.59950265,20.1705625 9.76458201,20.4496951 9.69442328,20.7219525 C9.62426455,20.9942099 9.34775661,21.1578394 9.074,21.0877125 C8.76172487,21.0107104 1.46246561,19.089783 2.10489947,14.4421563 C2.39653968,12.3452241 3.98680423,9.64740055 9.89939683,8.7247504 C11.7345291,8.4387426 14.0841587,8.4497429 16.3595026,8.45936816 C19.3955873,8.4717435 22.5348466,8.48411884 23.711037,7.74022355 C24.678127,7.13245698 25.2077566,6.47518906 25.2504021,5.84404685 C25.2889206,5.24178043 24.8542116,4.74539189 24.4814074,4.43738349 C23.5941058,3.70311347 20.9858519,3.1943496 20.0531534,3.06097096 C19.7738942,3.01971984 19.5826772,2.76121279 19.6225714,2.48208018 C19.6624656,2.2043226 19.9210899,2.01044232 20.2003492,2.05169344 C20.5704021,2.10531991 23.8664868,2.60583355 25.1320952,3.65361212 C25.9272275,4.31088004 26.3206667,5.09327638 26.2670159,5.91004865 C26.2532593,6.13005465 26.2037354,6.38581162 26.0881799,6.66356919" id="Fill-8" fill="#0D943F"></path>
                                <path d="M17.0939683,22.3582471 C17.6813757,22.6002537 17.9633862,23.2808973 17.7212698,23.8680383 L17.6896296,23.9450404 C17.4461376,24.5335565 16.7665608,24.8154391 16.1791534,24.5720575 L13.698836,23.5476546 C13.1100529,23.3042729 12.8280423,22.6263795 13.0715344,22.0392384 L13.1031746,21.9622363 C13.3466667,21.3750953 14.0262434,21.0918376 14.6136508,21.3338442 L17.0939683,22.3582471 Z M10.5224339,20.5074467 L10.2156614,21.2499669 C8.45619048,25.5098331 10.5031746,30.4324673 14.7649735,32.1911403 L16.562963,32.9336605 C17.5520635,31.0677346 18.9167196,28.3204097 20.2855026,25.0038193 C21.7835979,21.3792204 22.9116402,17.9746276 23.314709,16.7219685 L21.4685714,15.9601977 C17.2081481,14.2028998 12.2819048,16.2475805 10.5224339,20.5074467 L10.5224339,20.5074467 Z" id="Fill-10" fill="#0D943F"></path>
                            </g>
                        </g>
                    </g>
                </g>
            </g>
        </g>
    </g>
</svg>