<?xml version="1.0" encoding="utf-8"?>
<!-- Generator: Adobe Illustrator 23.0.6, SVG Export Plug-In . SVG Version: 6.00 Build 0)  -->
<svg version="1.1" id="Layer_1" xmlns="http://www.w3.org/2000/svg" xmlns:xlink="http://www.w3.org/1999/xlink" x="0px" y="0px"
	 viewBox="0 0 80 80" style="enable-background:new 0 0 80 80;" xml:space="preserve">
<style type="text/css">
	.st0{fill:#FFFFFF;stroke:#FFFFFF;stroke-width:2;stroke-miterlimit:10;}
	.st1{fill:#FFFFFF;stroke:#FFFFFF;stroke-miterlimit:10;}
</style>
<title>icon set 3</title>
<path class="st0" d="M66.4,44.9c-0.4,2.5-0.9,4.9-1.3,7.3c-0.8,4.4-1.6,8.7-2.4,13c-0.5,2.7-2.8,4.8-5.6,4.8c-11.4,0-22.8,0-34.2,0
	c-2.7-0.1-5.1-2-5.6-4.7c-1.2-6.6-2.3-13.1-3.6-19.6c0-0.2,0-0.5-0.1-0.7L66.4,44.9z M47.2,55.4L47.2,55.4c0.1-2.1,0.2-4.1,0.3-6.2
	c0.1-0.8-0.5-1.6-1.3-1.7c-0.1,0-0.2,0-0.4,0c-0.7,0-1.4,0-2,0c-0.9,0-1.7,0.7-1.7,1.6c0,0,0,0,0,0c0,0.6,0,1.2-0.1,1.8
	c-0.2,3.6-0.3,7.2-0.5,10.7c-0.1,0.8,0.4,1.6,1.2,1.7c0.1,0,0.2,0,0.3,0c0.7,0,1.3,0,2,0c0.9,0.1,1.7-0.6,1.8-1.6c0-0.1,0-0.1,0-0.2
	C47,59.6,47.1,57.5,47.2,55.4z M24.1,47.5h-1c-1.1,0-1.7,0.6-1.5,1.7c0.6,4.2,1.2,8.4,1.9,12.5c0.1,1,0.9,1.7,1.9,1.7
	c0.7,0,1.4,0,2.1,0c0.7,0.1,1.3-0.5,1.4-1.2c0-0.2,0-0.3,0-0.5c-0.6-4.2-1.2-8.5-1.9-12.7c-0.1-0.9-0.9-1.6-1.9-1.6L24.1,47.5z
	 M53.6,63.5h0.7c1.1,0.2,2.1-0.6,2.3-1.7c0-0.1,0-0.2,0-0.3l0.6-4c0.4-2.8,0.8-5.5,1.2-8.3c0.2-1.1-0.4-1.7-1.5-1.7h-1.8
	c-1.1-0.1-2,0.6-2.2,1.7c0,0.1,0,0.2,0,0.2c-0.6,3.8-1.1,7.7-1.7,11.5C51,63.2,51.2,63.5,53.6,63.5z M38.2,55.6
	c-0.1-2.1-0.2-4.2-0.3-6.3c0.1-0.9-0.6-1.7-1.5-1.8c-0.1,0-0.2,0-0.3,0h-1.7c-1.3,0-1.8,0.6-1.8,1.9l0.3,7l0.2,5.1
	c0.1,1.4,0.6,2,2.1,2h1.5c1.3,0,1.8-0.6,1.8-1.8C38.4,59.6,38.3,57.6,38.2,55.6z"/>
<path class="st1" d="M70.2,32.6h-1.3c-0.3,0-0.6,0-0.9,0c-0.4,0-0.7,0-1.1,0h-2.3h-0.2H61c-0.2,0-0.3,0-0.6,0.1
	c0.5,0.7,0.9,1.3,1.3,1.8c1,1.4,0.8,3.3-0.5,4.5c-1.3,1.1-3.3,0.9-4.4-0.5c0,0,0-0.1-0.1-0.1c-1.4-1.7-2.7-3.5-3.9-5.3
	c-0.2-0.3-0.6-0.5-1-0.5H28.1c-0.4,0-0.7,0.1-0.9,0.5c-1.3,1.8-2.6,3.6-3.9,5.3c-0.6,0.8-1.5,1.2-2.4,1.2c-1.2,0.1-2.3-0.5-2.8-1.6
	c-0.6-1.1-0.5-2.4,0.3-3.4c0.4-0.6,0.9-1.2,1.4-1.9c-0.1,0-0.2,0-0.3-0.1H10c-1,0-1.8,0.8-1.8,1.8v5.6c0,1,0.8,1.8,1.8,1.8h1.3
	c3.7,0,7.5,0,11.2,0c3.2,0,6.3,0,9.5,0c1.9,0,3.8,0,5.7,0c2.3,0,4.6,0,7,0s4.9,0,7.3,0c2.2,0,4.5,0,6.7,0h5.7h0.2h5.7
	c1-0.1,1.7-0.8,1.7-1.8v-5.7C72,33.4,71.2,32.6,70.2,32.6z"/>
<path class="st1" d="M36.3,13.2c-1.4-0.9-3.2-0.4-4,0.9C31.7,15,31.6,16,32,16.9L19.7,35.4c-0.5,0.7-0.3,1.7,0.5,2.2
	s1.7,0.3,2.2-0.5l0,0l12.3-18.5c1.6,0,2.9-1.3,2.9-2.9C37.6,14.7,37.1,13.8,36.3,13.2z"/>
<path class="st1" d="M60.5,35.4L48.2,16.9c0.6-1.5,0-3.2-1.5-3.9c-1.5-0.6-3.2,0-3.9,1.5c-0.6,1.5,0,3.2,1.5,3.9
	c0.4,0.2,0.8,0.2,1.2,0.2l12.3,18.5c0.5,0.7,1.5,0.9,2.2,0.5S61,36.1,60.5,35.4z"/>
</svg>
