<svg id="Layer_1" data-name="Layer 1" xmlns="http://www.w3.org/2000/svg" viewBox="0 0 80 80"><defs><style>.cls-1,.cls-2{stroke:#000;stroke-miterlimit:10;}.cls-1{stroke-width:2px;}</style></defs><title>icon set 3</title><path class="cls-1" d="M66.42,44.88c-.45,2.48-.88,4.89-1.31,7.29q-1.19,6.53-2.38,13A5.82,5.82,0,0,1,57.13,70Q40,70,22.9,70a5.8,5.8,0,0,1-5.57-4.73C16.12,58.71,15,52.17,13.76,45.62c0-.23,0-.46-.08-.74ZM47.21,55.43h0c.09-2.06.2-4.13.27-6.2a1.49,1.49,0,0,0-1.63-1.69c-.68,0-1.37,0-2.05,0a1.64,1.64,0,0,0-1.68,1.64c0,.61,0,1.22-.08,1.83-.16,3.57-.33,7.15-.47,10.72a1.5,1.5,0,0,0,1.59,1.73c.66,0,1.32,0,2,0a1.68,1.68,0,0,0,1.79-1.76Q47.08,58.57,47.21,55.43Zm-23.06-7.9h-1c-1.12,0-1.67.6-1.51,1.7q.92,6.27,1.87,12.55a1.85,1.85,0,0,0,1.88,1.67c.7,0,1.41,0,2.12,0a1.29,1.29,0,0,0,1.36-1.63Q28,55.48,27,49.13a1.83,1.83,0,0,0-1.86-1.6ZM53.56,63.46h.71a2,2,0,0,0,2.3-2l.6-4c.41-2.77.83-5.53,1.22-8.3.16-1.08-.37-1.65-1.46-1.67H55.17A1.92,1.92,0,0,0,53,49.37q-.87,5.76-1.71,11.51C51,63.17,51.22,63.45,53.56,63.46ZM38.23,55.62c-.1-2.12-.19-4.23-.3-6.35a1.65,1.65,0,0,0-1.86-1.74H34.38c-1.29,0-1.85.59-1.79,1.87l.3,7,.21,5.08c.06,1.42.63,2,2.07,2h1.55c1.27,0,1.8-.57,1.76-1.85C38.41,59.61,38.31,57.62,38.23,55.62Z"/><path class="cls-2" d="M70.19,32.58H68.88a6.84,6.84,0,0,0-.92,0q-.55,0-1.11,0H64.51l-.19,0-3.35,0c-.16,0-.33,0-.56.06.48.67.92,1.25,1.33,1.85a3.26,3.26,0,0,1-.48,4.45,3.12,3.12,0,0,1-4.46-.55c-1.38-1.72-2.65-3.53-3.94-5.32a1.07,1.07,0,0,0-1-.5H28.1a1,1,0,0,0-.93.46c-1.28,1.8-2.58,3.59-3.9,5.35a3,3,0,0,1-2.43,1.23A2.94,2.94,0,0,1,18,38a3.22,3.22,0,0,1,.27-3.41c.43-.63.89-1.24,1.36-1.9a2,2,0,0,0-.27-.06H10a1.85,1.85,0,0,0-1.84,1.84V40.1A1.85,1.85,0,0,0,10,41.94h1.28c3.74,0,7.48,0,11.22,0,3.16,0,6.33-.05,9.5-.05,1.9,0,3.8.05,5.7.05,2.32,0,4.64-.05,7-.05s4.87,0,7.31,0c2.23,0,4.45,0,6.68,0h5.66l.24,0h5.68A1.84,1.84,0,0,0,72,40.1V34.42A1.84,1.84,0,0,0,70.19,32.58Z"/><path class="cls-2" d="M36.25,13.24A2.93,2.93,0,0,0,32,16.85L19.66,35.39a1.59,1.59,0,1,0,2.66,1.76L34.61,18.61a2.93,2.93,0,0,0,1.64-5.37Z"/><path class="cls-2" d="M60.47,35.39,48.19,16.85a2.93,2.93,0,1,0-2.66,1.76L57.81,37.15a1.59,1.59,0,1,0,2.66-1.76Z"/></svg>