<?xml version="1.0" encoding="UTF-8"?>
<svg width="23px" height="22px" viewBox="0 0 23 22" version="1.1" xmlns="http://www.w3.org/2000/svg" xmlns:xlink="http://www.w3.org/1999/xlink">
    <!-- Generator: sketchtool 55.2 (78181) - https://sketchapp.com -->
    <title>83687304-7E9D-47C4-8E9A-61070E0275C3</title>
    <desc>Created with sketchtool.</desc>
    <g id="Styleguide" stroke="none" stroke-width="1" fill="none" fill-rule="evenodd">
        <g id="Iconography" transform="translate(-712.000000, -874.000000)" fill="#4F4F4F" fill-rule="nonzero" stroke="#FFFFFF" stroke-width="0.3">
            <g id="icons" transform="translate(257.000000, 580.000000)">
                <g id="Global/Icons/Top-Bar/Wish-List" transform="translate(456.000000, 295.000000)">
                    <g id="favorite">
                        <path d="M15.0753231,0.015908046 C13.2876462,0.015908046 11.6142,0.822206897 10.5,2.17314943 C9.3858,0.82216092 7.7124,0.015908046 5.92467692,0.015908046 C2.65781538,0.015908046 0,2.66349425 0,5.91788506 C0,8.4662069 1.52538462,11.4137471 4.53369231,14.6786207 C6.84881538,17.1911264 9.36729231,19.1365057 10.0840154,19.6729195 L10.4998615,19.9841379 L10.9157077,19.6729655 C11.6324308,19.1365517 14.151,17.1912184 16.4661692,14.6787126 C19.4745692,11.4138391 21,8.46625287 21,5.91788506 C21,2.66349425 18.3421846,0.015908046 15.0753231,0.015908046 Z M15.4461231,13.745931 C13.5418615,15.8125057 11.4931385,17.4830805 10.4998615,18.2530115 C9.50663077,17.4830805 7.458,15.8124598 5.55373846,13.7458851 C2.82627692,10.7858391 1.38461538,8.07894253 1.38461538,5.91788506 C1.38461538,3.42409195 3.42129231,1.39521839 5.92467692,1.39521839 C7.57209231,1.39521839 9.09323077,2.28965517 9.89450769,3.72951724 L10.5,4.8176092 L11.1054923,3.72951724 C11.9067231,2.28970115 13.4278615,1.39521839 15.0753231,1.39521839 C17.5787077,1.39521839 19.6153846,3.42404598 19.6153846,5.91788506 C19.6153846,8.07903448 18.1736769,10.785931 15.4461231,13.745931 Z" id="Shape"></path>
                    </g>
                </g>
            </g>
        </g>
    </g>
</svg>