<?xml version="1.0" encoding="UTF-8"?>
<svg width="22px" height="22px" viewBox="0 0 22 22" version="1.1" xmlns="http://www.w3.org/2000/svg" xmlns:xlink="http://www.w3.org/1999/xlink">
    <!-- Generator: sketchtool 55.2 (78181) - https://sketchapp.com -->
    <title>3A573E24-9A26-4113-9719-243866CBD990</title>
    <desc>Created with sketchtool.</desc>
    <g id="💎-VD---Homepage-and-PDP---Iteration-2" stroke="none" stroke-width="1" fill="none" fill-rule="evenodd">
        <g id="ELC---Homepage---Small-320px---Option-1---Version-2" transform="translate(-271.000000, -111.000000)" fill="#0D943F" fill-rule="nonzero" stroke="#0D943F" stroke-width="0.4">
            <g id="Mobile-header" transform="translate(-0.000000, 36.000000)">
                <g id="Group" transform="translate(10.000000, 13.000000)">
                    <g id="Search-Mobile" transform="translate(0.000000, 51.000000)">
                        <g id="Icons/magnyfying-glass" transform="translate(262.000000, 12.000000)">
                            <path d="M13.0864486,13.8304185 C11.6984255,15.0455674 9.88071086,15.7819861 7.89099306,15.7819861 C3.53291084,15.7819861 0,12.2490753 0,7.89099306 C0,3.53291084 3.53291084,0 7.89099306,0 C12.2490753,0 15.7819861,3.53291084 15.7819861,7.89099306 C15.7819861,9.88071086 15.0455674,11.6984255 13.8304185,13.0864486 L19.8364345,19.0924646 C20.3324145,19.5884445 19.5884445,20.3324145 19.0924646,19.8364345 L13.0864486,13.8304185 L13.0864486,13.8304185 Z M12.7020922,12.751384 C12.7175324,12.7340059 12.7340059,12.7175324 12.751384,12.7020922 C13.9745188,11.4665044 14.7298537,9.76695967 14.7298537,7.89099306 C14.7298537,4.11398751 11.6679986,1.05213241 7.89099306,1.05213241 C4.11398751,1.05213241 1.05213241,4.11398751 1.05213241,7.89099306 C1.05213241,11.6679986 4.11398751,14.7298537 7.89099306,14.7298537 C9.76695967,14.7298537 11.4665044,13.9745188 12.7020922,12.751384 L12.7020922,12.751384 Z" id="Shape"></path>
                        </g>
                    </g>
                </g>
            </g>
        </g>
    </g>
</svg>