<?xml version="1.0" encoding="UTF-8"?>
<svg width="21px" height="20px" viewBox="0 0 21 20" version="1.1" xmlns="http://www.w3.org/2000/svg" xmlns:xlink="http://www.w3.org/1999/xlink">
    <!-- Generator: sketchtool 55.1 (78136) - https://sketchapp.com -->
    <title>A38C5510-F044-4EA6-BAFD-EDBF0998DB42</title>
    <desc>Created with sketchtool.</desc>
    <g id="VD---Homepage-and-PDP---Iteration-2" stroke="none" stroke-width="1" fill="none" fill-rule="evenodd">
        <g id="ELC---PDP---Large-1440px" transform="translate(-1240.000000, -74.000000)" fill="#FFFFFF" fill-rule="nonzero">
            <g id="Desktop/Global/Header/ELC">
                <g id="Header" transform="translate(30.000000, 56.000000)">
                    <g id="Cart" transform="translate(1210.000000, 18.000000)">
                        <g id="Group-4">
                            <g id="Icons/Store-Locator-3-Copy-2">
                                <g id="shopping-basket">
                                    <path d="M20.34375,5.35282158 L16.8118125,5.35282158 L14.3679375,0.408091286 C14.203875,0.0801244813 13.8114375,-0.0513278008 13.48725,0.1106639 C13.1630625,0.275311203 13.0318125,0.673651452 13.19325,1.00161826 L15.3444375,5.35282158 L5.6555625,5.35282158 L7.8054375,1.00294606 C7.9681875,0.674979253 7.835625,0.276639004 7.5114375,0.111991701 C7.1885625,-0.05 6.7935,0.0814522822 6.6320625,0.408091286 L4.1881875,5.35282158 L0.65625,5.35282158 C0.294,5.35282158 0,5.65024896 0,6.01672199 L0,8.67232365 C0,9.03879668 0.294,9.33622407 0.65625,9.33622407 L1.456875,9.33622407 L3.9571875,19.4553942 C4.0306875,19.7514938 4.2931875,19.9586307 4.59375,19.9586307 L16.40625,19.9586307 C16.7068125,19.9586307 16.9693125,19.7514938 17.0428125,19.4553942 L19.543125,9.33622407 L20.34375,9.33622407 C20.706,9.33622407 21,9.03879668 21,8.67232365 L21,6.01672199 C21,5.65024896 20.706,5.35282158 20.34375,5.35282158 Z M15.8930625,18.6308299 L5.1069375,18.6308299 L2.80875,9.33622407 L18.19125,9.33622407 L15.8930625,18.6308299 Z M19.6875,8.00842324 L1.3125,8.00842324 L1.3125,6.68062241 L19.6875,6.68062241 L19.6875,8.00842324 Z" id="Shape"></path>
                                    <path d="M10.5,11.9918257 C10.13775,11.9918257 9.84375,12.2892531 9.84375,12.6557261 L9.84375,16.6391286 C9.84375,17.0056017 10.13775,17.303029 10.5,17.303029 C10.86225,17.303029 11.15625,17.0056017 11.15625,16.6391286 L11.15625,12.6557261 C11.15625,12.2892531 10.86225,11.9918257 10.5,11.9918257 Z" id="Path"></path>
                                    <path d="M7.21875,11.9918257 C6.8565,11.9918257 6.5625,12.2892531 6.5625,12.6557261 L6.5625,16.6391286 C6.5625,17.0056017 6.8565,17.303029 7.21875,17.303029 C7.581,17.303029 7.875,17.0056017 7.875,16.6391286 L7.875,12.6557261 C7.875,12.2892531 7.581,11.9918257 7.21875,11.9918257 Z" id="Path"></path>
                                    <path d="M13.78125,11.9918257 C13.419,11.9918257 13.125,12.2892531 13.125,12.6557261 L13.125,16.6391286 C13.125,17.0056017 13.419,17.303029 13.78125,17.303029 C14.1435,17.303029 14.4375,17.0056017 14.4375,16.6391286 L14.4375,12.6557261 C14.4375,12.2892531 14.1435,11.9918257 13.78125,11.9918257 Z" id="Path"></path>
                                </g>
                            </g>
                        </g>
                    </g>
                </g>
            </g>
        </g>
    </g>
</svg>