<?xml version="1.0" encoding="UTF-8"?>
<svg width="19px" height="26px" viewBox="0 0 19 26" version="1.1" xmlns="http://www.w3.org/2000/svg" xmlns:xlink="http://www.w3.org/1999/xlink">
    <!-- Generator: sketchtool 55.2 (78181) - https://sketchapp.com -->
    <title>CC791873-0B9F-4CE8-946D-B965D28E22E4</title>
    <desc>Created with sketchtool.</desc>
    <g id="💎-VD---Homepage-and-PDP---Iteration-2" stroke="none" stroke-width="1" fill="none" fill-rule="evenodd">
        <g id="ELC---Homepage---Medium-768" transform="translate(-688.000000, -54.000000)" fill="#FFFFFF" fill-rule="nonzero" stroke="#FFFFFF" stroke-width="0.2">
            <g id="Mobile-header" transform="translate(0.000000, 36.000000)">
                <g id="Group" transform="translate(10.000000, 9.000000)">
                    <g id="Icons/Store-Locator-3" transform="translate(679.000000, 10.000000)">
                        <g id="Group-2">
                            <g id="Group">
                                <path d="M8.52982456,0 C13.1824561,0 17,3.84 17,8.58 C17,12.6 11.3929825,20.52 8.94736842,23.76 C8.70877193,24.06 8.29122807,24.06 8.05263158,23.76 C5.60701754,20.76 0,12.42 0,8.58 C0,3.84 3.81754386,0 8.52982456,0 Z M8.52982456,1.2 C4.47368421,1.2 1.19298246,4.5 1.19298246,8.58 C1.19298246,12.12 6.38245614,19.5 8.52982456,22.38 C10.6175439,19.5 15.8070175,12.12 15.8070175,8.58 C15.8070175,4.5 12.5263158,1.2 8.52982456,1.2 Z" id="Shape"></path>
                                <path d="M8.52982456,4.62 C10.677193,4.62 12.4070175,6.36 12.4070175,8.58 C12.4070175,13.68 4.59298246,13.68 4.59298246,8.58 C4.59298246,6.36 6.32280702,4.62 8.52982456,4.62 Z M8.52982456,5.82 C6.97894737,5.82 5.78596491,7.02 5.78596491,8.58 C5.78596491,10.08 6.97894737,11.28 8.52982456,11.28 C10.0210526,11.28 11.2140351,10.08 11.2140351,8.58 C11.2140351,7.02 10.0210526,5.82 8.52982456,5.82 Z" id="Shape"></path>
                            </g>
                        </g>
                    </g>
                </g>
            </g>
        </g>
    </g>
</svg>