<?xml version="1.0" encoding="UTF-8"?>
<svg width="68px" height="35px" viewBox="0 0 68 35" version="1.1" xmlns="http://www.w3.org/2000/svg" xmlns:xlink="http://www.w3.org/1999/xlink">
    <!-- Generator: sketchtool 55.1 (78136) - https://sketchapp.com -->
    <title>241BCFC9-337C-4233-BB77-C19496FE1B91</title>
    <desc>Created with sketchtool.</desc>
    <g id="VD---Homepage-and-PDP---Iteration-2" stroke="none" stroke-width="1" fill="none" fill-rule="evenodd">
        <g id="ELC---PDP---Large-1440px" transform="translate(-606.000000, -221.000000)">
            <g id="Desktop/Global/Header/ELC-Copy-2" transform="translate(0.000000, 216.000000)">
                <g id="USPs-2" transform="translate(149.000000, 1.000000)">
                    <g id="Order-by-7pm" transform="translate(457.000000, 4.000000)">
                        <g id="Truck">
                            <g id="Group-20" transform="translate(10.388889, 0.000000)">
                                <path d="M56.2198321,17.5729787 L56.1989407,15.7574468 C56.1884951,14.5644681 55.4080537,13.5397872 54.2605214,13.2061702 L50.8626916,12.2187234 L47.3410059,5.64617021 C46.8440901,4.71978723 45.8278748,4.16723404 44.7728614,4.23276596 L40.9989872,4.50531915 L41.0198785,2.85659574 C41.0303242,2.11042553 40.7244151,1.38808511 40.1872088,0.877234043 C39.6485103,0.361914894 38.9113439,0.0863829787 38.1577628,0.138510638 L3.10057564,2.31893617 C2.38280835,2.36510638 1.72473064,2.68531915 1.25019842,3.22446809 C0.774173954,3.76659574 0.536907843,4.45765957 0.583167273,5.17404255 L1.71428496,22.7678723 C1.32630264,23.256383 1.10395893,23.8759574 1.12485028,24.5312766 L1.26810529,28.7208511 C1.29347337,29.47 1.63519626,30.1789362 2.20523182,30.6704255 C2.69617868,31.0919149 3.31247368,31.3182979 3.96905914,31.3182979 C4.03173321,31.3182979 4.09291504,31.3168085 4.1555891,31.3123404 C4.1854339,31.3108511 4.22721661,31.306383 4.26899932,31.3019149 L6.14176014,31.0874468 C6.45662272,31.9244681 6.9445851,32.6825532 7.59967832,33.3170213 C8.73079601,34.4117021 10.2110978,35 11.8048098,35 C11.9406036,35 12.0793819,34.9970213 12.2166679,34.9880851 C15.2563602,34.7974468 17.7946599,32.566383 18.5467487,29.6621277 L38.6427407,27.3521277 C38.9576033,28.2129787 39.4500424,28.9934043 40.120058,29.6412766 C41.2511757,30.7359574 42.7314775,31.3257447 44.3251895,31.3257447 C44.4609833,31.3257447 44.5997616,31.3212766 44.7370476,31.3138298 C47.7976312,31.1202128 50.3523456,28.8578723 51.0850353,25.9223404 L54.2679826,25.5559574 C55.5960759,25.4040426 56.6003532,24.3287234 56.6540738,22.9942553 L56.8032978,19.3602128 C56.8286659,18.7048936 56.6212446,18.0748936 56.2198321,17.5729787" id="Fill-3" fill="#FFFFFF"></path>
                                <path d="M54.6737225,18.6070426 C54.5871726,18.5325745 54.4916693,18.4774681 54.3887048,18.4432128 L54.35886,15.7787447 C54.3543832,15.4019362 54.1081637,15.0742766 53.7455495,14.9700213 L49.6060765,13.7651277 L45.7172999,6.51342553 C45.562107,6.22151064 45.2457521,6.0442766 44.9040293,6.06661702 L39.1305539,6.48214894 L39.1797978,2.83321277 C39.1827823,2.59789362 39.0872789,2.37002128 38.9156714,2.20470213 C38.7440638,2.0423617 38.5127666,1.95746809 38.2740083,1.9723617 L3.21831335,4.15278723 C2.98850844,4.16619149 2.78257936,4.26746809 2.63186315,4.43874468 C2.4796547,4.61151064 2.40653496,4.82895745 2.41996511,5.05682979 L3.61226463,23.615766 C3.22577455,23.7095957 2.95269469,24.0581064 2.96761708,24.4706596 L3.10639537,28.660234 C3.11534881,28.8970426 3.22428231,29.1234255 3.40484331,29.2768298 C3.57495864,29.4227872 3.7913334,29.4972553 4.01666159,29.4808723 C4.03009175,29.479383 4.04501414,29.4778936 4.0584443,29.4764043 L6.5997285,29.1859787 C6.57585267,28.940234 6.56093027,28.693 6.56689923,28.4412979 C6.63852673,25.3478936 9.1484739,22.6491702 12.174736,22.4049149 L12.2553169,22.3989574 C13.7535256,22.3006596 15.1651844,22.7995957 16.2261668,23.809383 C17.3274397,24.8519362 17.9109054,26.3025745 17.8750916,27.8887447 L39.2588865,25.4327872 C39.2051659,25.0947021 39.1768133,24.7491702 39.1857667,24.3961915 C39.2603787,21.305766 41.7703259,18.6055532 44.7950958,18.3612979 L44.8771689,18.3553404 C46.3738854,18.2585319 47.7870363,18.7589574 48.849511,19.765766 C49.9463072,20.8112979 50.5327574,22.2604468 50.4939592,23.8495957 C50.4909747,23.9464043 50.4790368,24.0447021 50.47456,24.143 L54.060412,23.7304468 C54.4797314,23.6827872 54.7960862,23.3417234 54.8154853,22.920234 L54.963217,19.2832128 C54.9736627,19.0240638 54.8692059,18.7768298 54.6737225,18.6070426" id="Fill-6" fill="#0D943F"></path>
                                <polygon id="Fill-8" fill="#FFFFFF" points="39.6653726 14.7004468 39.8533948 8.70576596 43.7153111 8.26789362 47.0937418 14.2253404"></polygon>
                                <path d="M16.9348314,28.0580851 C16.8497737,30.7106383 14.684534,32.9923404 12.101467,33.1531915 C9.51541564,33.3155319 7.49343086,31.2974468 7.57848852,28.6478723 C7.66354618,25.9938298 9.82729374,23.7121277 12.4133451,23.552766 C14.996412,23.3889362 17.0213813,25.4085106 16.9348314,28.0580851" id="Fill-10" fill="#0D943F"></path>
                                <path d="M14.3905627,28.2195319 C14.3532567,29.4288936 13.3653941,30.4684681 12.1850325,30.5429362 C11.0076553,30.6159149 10.083959,29.6954894 10.1257417,28.487617 C10.1630477,27.276766 11.1494181,26.2371915 12.3267952,26.161234 C13.5056646,26.0882553 14.429361,27.0086809 14.3905627,28.2195319" id="Fill-12" fill="#FFFFFF"></path>
                                <path d="M49.4552111,24.3841277 C49.3701534,27.0366809 47.2049136,29.3168936 44.6203545,29.479234 C42.0357953,29.6415745 40.0123183,27.6234894 40.097376,24.9724255 C40.1839259,22.3198723 42.3491657,20.0381702 44.9322326,19.8773191 C47.5167917,19.7149787 49.5402688,21.7330638 49.4552111,24.3841277" id="Fill-14" fill="#0D943F"></path>
                                <path d="M46.9107932,24.544234 C46.871995,25.7535957 45.8841323,26.7931702 44.7037707,26.8691277 C43.5263936,26.9421064 42.6026972,26.0216809 42.6444799,24.8123191 C42.6832781,23.6029574 43.6711408,22.5618936 44.8485179,22.4889149 C46.0258951,22.4144468 46.9480992,23.3348723 46.9107932,24.544234" id="Fill-16" fill="#FFFFFF"></path>
                                <path d="M38.5942429,2.54114894 C38.5166465,2.46668085 38.4092052,2.42795745 38.3047484,2.43540426 L3.24756125,4.61582979 L3.24756125,4.61582979 C3.14310447,4.62178723 3.04909337,4.66944681 2.98045034,4.74689362 C2.91180732,4.82285106 2.87748581,4.92561702 2.884947,5.02689362 L4.13395163,24.4839149 C4.14141283,24.5881702 4.19214898,24.6864681 4.27272992,24.7549787 C4.34883415,24.8190213 4.44582973,24.8517872 4.54730202,24.8458298 C4.55327098,24.8458298 4.5577477,24.8458298 4.5652089,24.8443404 L8.23014959,24.434766 C9.24934931,23.3073191 10.6550391,22.5432766 12.1995072,22.4181702 L12.2785959,22.4122128 C13.6454874,22.3228511 14.937767,22.7368936 15.958459,23.5724255 L38.1182185,21.1045532 C38.3122096,21.0822128 38.4599414,20.9198723 38.4614336,20.724766 L38.7137625,2.82710638 C38.7166066,2.71987234 38.6718394,2.61561702 38.5942429,2.54114894" id="Fill-18" fill="#0D943F"></path>
                            </g>
                            <g id="Clock" transform="translate(26.444444, 5.675676)">
                                <ellipse id="Oval" fill="#FFFFFF" cx="8.97222222" cy="8.98648649" rx="8.97222222" ry="8.98648649"></ellipse>
                                <rect id="Rectangle-5" fill="#0D943F" x="7.97530864" y="1.996997" width="1.99382716" height="7.98798799" rx="0.99691358"></rect>
                                <rect id="Rectangle-5" fill="#0D943F" transform="translate(7.602138, 10.657988) rotate(218.000000) translate(-7.602138, -10.657988) " x="6.60522392" y="7.49702278" width="1.99382716" height="6.32193122" rx="0.99691358"></rect>
                            </g>
                            <polygon id="Fill-2" fill="#B3B3B3" points="6.13386525 18.9189189 6.93168218 22.4771569 10.3888889 23.85063 7.16653738 25.6886602 6.8936909 29.3243243 4.10305851 26.9005482 0.473164155 27.7724344 1.97209294 24.4363759 0 21.342695 3.71969193 21.7028951"></polygon>
                        </g>
                    </g>
                </g>
            </g>
        </g>
    </g>
</svg>