<?xml version="1.0" encoding="UTF-8"?>
<svg width="72px" height="34px" viewBox="0 0 72 34" version="1.1" xmlns="http://www.w3.org/2000/svg" xmlns:xlink="http://www.w3.org/1999/xlink">
    <!-- Generator: sketchtool 55.1 (78136) - https://sketchapp.com -->
    <title>C291FFF6-D5FD-4AE3-97E7-E6B381176E00</title>
    <desc>Created with sketchtool.</desc>
    <g id="VD---Homepage-and-PDP---Iteration-2" stroke="none" stroke-width="1" fill="none" fill-rule="evenodd">
        <g id="ELC---PDP---Large-1440px" transform="translate(-846.000000, -544.000000)">
            <g id="PDP-Main" transform="translate(120.000000, 297.000000)">
                <g id="Product-details" transform="translate(709.000000, 10.000000)">
                    <g id="Delivery-options" transform="translate(2.000000, 122.000000)">
                        <g id="Delivery" transform="translate(0.000000, 77.000000)">
                            <g id="Home-delivery-" transform="translate(0.000000, 25.000000)">
                                <g id="Home-Delivery">
                                    <g id="Group-2" transform="translate(15.000000, 10.000000)">
                                        <g id="Truck" transform="translate(0.000000, 3.000000)">
                                            <polygon id="Fill-1" fill="#B3B3B3" points="2.95085503 23.7275335 0 25.4021152 3.05583185 26.8478626 3.65980802 30.3243243 5.90890026 27.7101584 9.23076923 28.1829815 7.56408259 25.114178 9.01793953 21.9332307 5.74064975 22.6545889 3.31611682 20.2162162"></polygon>
                                            <polygon id="Fill-2" fill="#B3B3B3" points="14.1800327 18.3783784 14.4635843 19.6353144 15.6923077 20.1204893 14.547054 20.7697675 14.4500818 22.0540541 13.4582651 21.197863 12.1681669 21.505854 12.7009002 20.3274021 12 19.2345694 13.3220131 19.3618089"></polygon>
                                            <g id="Group-20" transform="translate(15.692308, 0.000000)">
                                                <path d="M54.9478902,17.0708936 L54.9274715,15.307234 C54.9172621,14.1483404 54.1544778,13.1529362 53.0329078,12.8288511 L49.711952,11.869617 L46.2699424,5.48485106 C45.784269,4.58493617 44.7910451,4.04817021 43.7599007,4.11182979 L40.0714083,4.37659574 L40.091827,2.77497872 C40.1020363,2.05012766 39.8030482,1.34842553 39.2779959,0.852170213 C38.7514851,0.351574468 38.0309967,0.0839148936 37.294465,0.134553191 L3.03042687,2.25268085 C2.32889866,2.29753191 1.68570959,2.60859574 1.22191339,3.13234043 C0.756658706,3.65897872 0.524760606,4.33029787 0.569973443,5.02621277 L1.67550023,22.1173617 C1.29629579,22.5919149 1.07898248,23.1937872 1.09940118,23.830383 L1.23941513,27.9002553 C1.26420926,28.628 1.59820087,29.3166809 2.1553397,29.7941277 C2.63517916,30.2035745 3.23753083,30.4234894 3.87926142,30.4234894 C3.94051753,30.4234894 4.00031515,30.4220426 4.06157125,30.4177021 C4.09074082,30.4162553 4.13157823,30.4119149 4.17241563,30.4075745 L6.00280629,30.199234 C6.31054528,31.0123404 6.78746779,31.748766 7.4277399,32.3651064 C8.53326669,33.4285106 9.98007748,34 11.5377326,34 C11.6704542,34 11.8060927,33.9971064 11.9402727,33.9884255 C14.9111937,33.803234 17.3920658,31.6359149 18.127139,28.8146383 L37.7684706,26.5706383 C38.0762095,27.4068936 38.5575075,28.1650213 39.2123644,28.794383 C40.3178912,29.8577872 41.764702,30.4307234 43.3223571,30.4307234 C43.4550787,30.4307234 43.5907172,30.426383 43.7248972,30.4191489 C46.7162369,30.2310638 49.2131523,28.0333617 49.9292653,25.1817021 L53.0402002,24.8257872 C54.3382461,24.6782128 55.3198022,23.633617 55.3723075,22.3372766 L55.5181553,18.8070638 C55.5429495,18.1704681 55.3402209,17.5584681 54.9478902,17.0708936" id="Fill-3" fill="#FFFFFF"></path>
                                                <path d="M53.4367605,18.0754128 C53.3521687,18.0030723 53.2588261,17.9495404 53.1581911,17.9162638 L53.1290215,15.3279234 C53.1246461,14.9618809 52.8839971,14.643583 52.5295868,14.5423064 L48.4837671,13.3718383 L44.6829718,6.32732766 C44.5312901,6.04375319 44.2220926,5.87158298 43.888101,5.89328511 L38.2452472,6.29694468 L38.293377,2.75226383 C38.296294,2.52366809 38.2029513,2.30230638 38.0352263,2.14171064 C37.8675013,1.98400851 37.6414371,1.90154043 37.4080805,1.91600851 L3.14550083,4.03413617 C2.92089513,4.04715745 2.71962508,4.14554043 2.57231874,4.3119234 C2.42355392,4.47975319 2.35208847,4.69098723 2.36521477,4.91234894 L3.53053919,22.9410298 C3.15279323,23.0321787 2.88589164,23.3707319 2.90047642,23.7714979 L3.03611494,27.8413702 C3.04486581,28.0714128 3.15133475,28.2913277 3.32781066,28.4403489 C3.49407722,28.5821362 3.70555662,28.6544766 3.92578689,28.6385617 C3.9389132,28.6371149 3.95349799,28.6356681 3.96662429,28.6342213 L6.45041338,28.3520936 C6.42707772,28.1133702 6.41249293,27.8732 6.41832685,27.6286894 C6.48833382,24.6236681 8.94149486,22.0020511 11.8992895,21.7647745 L11.9780473,21.7589872 C13.4423599,21.6634979 14.8220806,22.1481787 15.8590589,23.1291149 C16.9354162,24.1418809 17.5056813,25.5510723 17.4706778,27.0919234 L38.3706764,24.7061362 C38.3181712,24.3777106 38.2904601,24.0420511 38.2992109,23.6991574 C38.3721349,20.6970298 40.8252959,18.073966 43.7816321,17.8366894 L43.8618484,17.8309021 C45.3247024,17.7368596 46.7058817,18.2229872 47.7443185,19.2010298 C48.8163002,20.2166894 49.3894823,21.624434 49.3515619,23.1681787 C49.3486449,23.2622213 49.3369771,23.3577106 49.3326017,23.4532 L52.8373258,23.052434 C53.2471583,23.0061362 53.5563557,22.674817 53.575316,22.2653702 L53.7197053,18.7322638 C53.7299147,18.4805191 53.6278212,18.2403489 53.4367605,18.0754128" id="Fill-6" fill="#0D943F"></path>
                                                <polygon id="Fill-8" fill="#FFFFFF" points="38.767966 14.280434 38.9517343 8.45702979 42.7262769 8.03166809 46.0282725 13.8189021"></polygon>
                                                <path d="M16.5516904,27.2564255 C16.4685571,29.8331915 14.3523047,32.0497021 11.8276782,32.2059574 C9.30013475,32.3636596 7.32389622,30.403234 7.4070295,27.8293617 C7.49016278,25.2511489 9.60495678,23.0346383 12.1325002,22.8798298 C14.6571267,22.7206809 16.6362822,24.6825532 16.5516904,27.2564255" id="Fill-10" fill="#0D943F"></path>
                                                <path d="M14.0649844,27.4132596 C14.0285224,28.5880681 13.0630096,29.5979404 11.909353,29.6702809 C10.7586134,29.7411745 9.8558151,28.8470468 9.8966525,27.6736851 C9.93311447,26.4974298 10.8971688,25.4875574 12.0479085,25.4137702 C13.2001066,25.3428766 14.1029048,26.2370043 14.0649844,27.4132596" id="Fill-12" fill="#FFFFFF"></path>
                                                <path d="M48.3363149,23.6874383 C48.2531816,26.2642043 46.1369292,28.4792681 43.6108442,28.6369702 C41.0847592,28.7946723 39.1070622,26.8342468 39.1901955,24.2589277 C39.2747873,21.6821617 41.3910397,19.4656511 43.9156662,19.3093957 C46.4417512,19.1516936 48.4194482,21.1121191 48.3363149,23.6874383" id="Fill-14" fill="#0D943F"></path>
                                                <path d="M45.849463,23.8429702 C45.8115426,25.0177787 44.8460297,26.0276511 43.6923732,26.1014383 C42.5416335,26.1723319 41.6388353,25.2782043 41.6796727,24.1033957 C41.7175931,22.9285872 42.683106,21.9172681 43.8338456,21.8463745 C44.9845852,21.774034 45.885925,22.6681617 45.849463,23.8429702" id="Fill-16" fill="#FFFFFF"></path>
                                                <path d="M37.72107,2.46854468 C37.6452291,2.39620426 37.5402187,2.35858723 37.4381252,2.36582128 L3.17408701,4.48394894 L3.17408701,4.48394894 C3.07199351,4.48973617 2.98010936,4.53603404 2.91301934,4.61126809 C2.84592932,4.68505532 2.81238432,4.78488511 2.81967671,4.88326809 L4.04042331,23.7843745 C4.0477157,23.8856511 4.09730398,23.9811404 4.17606182,24.0476936 C4.25044423,24.1099064 4.34524534,24.1417362 4.44442189,24.1359489 C4.4502558,24.1359489 4.45463124,24.1359489 4.46192363,24.1345021 L8.04394711,23.7366298 C9.04008801,22.6413957 10.4139749,21.899183 11.9235002,21.7776511 L12.0007996,21.7718638 C13.336766,21.6850553 14.5998085,22.0872681 15.5974079,22.8989277 L37.2558153,20.501566 C37.4454175,20.4798638 37.5898069,20.3221617 37.5912654,20.1326298 L37.8378855,2.74633191 C37.8406653,2.6421617 37.7969109,2.54088511 37.72107,2.46854468" id="Fill-18" fill="#0D943F"></path>
                                            </g>
                                        </g>
                                    </g>
                                </g>
                            </g>
                        </g>
                    </g>
                </g>
            </g>
        </g>
    </g>
</svg>