<?xml version="1.0" encoding="iso-8859-1"?>
<!-- Generator: Adobe Illustrator 19.0.0, SVG Export Plug-In . SVG Version: 6.00 Build 0)  -->
<svg version="1.1" id="Capa_1" xmlns="http://www.w3.org/2000/svg" xmlns:xlink="http://www.w3.org/1999/xlink" x="0px" y="0px"
	 viewBox="0 0 512 512" style="enable-background:new 0 0 512 512;" xml:space="preserve">
<g>
	<g>
		<path d="M224,120c-39.696,0-72,32.304-72,72s32.304,72,72,72s72-32.304,72-72S263.696,120,224,120z M224,248
			c-30.88,0-56-25.12-56-56s25.12-56,56-56s56,25.12,56,56S254.88,248,224,248z"/>
	</g>
</g>
<g>
	<g>
		<path d="M408,128h-8c-8.824,0-16-7.176-16-16c0-4.416-3.576-8-8-8h-80v16h73.016c3.552,13.784,16.104,24,30.984,24v96
			c-14.88,0-27.432,10.216-30.984,24H296v16h80c4.424,0,8-3.584,8-8c0-8.824,7.176-16,16-16h8c4.424,0,8-3.584,8-8V136
			C416,131.584,412.424,128,408,128z"/>
	</g>
</g>
<g>
	<g>
		<path d="M78.992,120H152v-16H72c-4.416,0-8,3.584-8,8c0,8.824-7.176,16-16,16h-8c-4.416,0-8,3.584-8,8v112c0,4.416,3.584,8,8,8h8
			c8.824,0,16,7.176,16,16c0,4.416,3.584,8,8,8h80v-16H78.992C75.424,250.216,62.88,240,48,240v-96
			C62.88,144,75.424,133.784,78.992,120z"/>
	</g>
</g>
<g>
	<g>
		<rect x="320" y="168" width="16" height="56"/>
	</g>
</g>
<g>
	<g>
		<rect x="352" y="168" width="16" height="56"/>
	</g>
</g>
<g>
	<g>
		<rect x="80" y="168" width="16" height="56"/>
	</g>
</g>
<g>
	<g>
		<rect x="112" y="168" width="16" height="56"/>
	</g>
</g>
<g>
	<g>
		<path d="M440,72H8c-4.416,0-8,3.584-8,8v224c0,4.416,3.584,8,8,8h208.504c-0.296,2.656-0.504,5.32-0.504,8
			c0,39.696,32.304,72,72,72c39.704,0,72-32.304,72-72c0-2.68-0.208-5.344-0.504-8H440c4.424,0,8-3.584,8-8V80
			C448,75.584,444.424,72,440,72z M288,376c-30.88,0-56-25.12-56-56c0-2.688,0.24-5.352,0.616-8h110.76
			c0.384,2.648,0.624,5.312,0.624,8C344,350.88,318.872,376,288,376z M432,296H16V88h416V296z"/>
	</g>
</g>
<g>
	<g>
		<path d="M504,200h-40v16h32v208H80v-96H64v104c0,4.416,3.584,8,8,8h432c4.424,0,8-3.584,8-8V208C512,203.584,508.424,200,504,200z
			"/>
	</g>
</g>
<g>
	<g>
		<path d="M472,256h-8v112c-14.88,0-27.432,10.216-30.984,24H360v16h80c4.424,0,8-3.584,8-8c0-8.824,7.176-16,16-16h8
			c4.424,0,8-3.584,8-8V264C480,259.584,476.424,256,472,256z"/>
	</g>
</g>
<g>
	<g>
		<path d="M142.992,392c-3.56-13.784-16.104-24-30.992-24v-40H96v48c0,4.416,3.584,8,8,8h8c8.824,0,16,7.176,16,16
			c0,4.416,3.584,8,8,8h80v-16H142.992z"/>
	</g>
</g>
<g>
</g>
<g>
</g>
<g>
</g>
<g>
</g>
<g>
</g>
<g>
</g>
<g>
</g>
<g>
</g>
<g>
</g>
<g>
</g>
<g>
</g>
<g>
</g>
<g>
</g>
<g>
</g>
<g>
</g>
</svg>
