<?xml version="1.0" encoding="UTF-8"?>
<svg width="18px" height="18px" viewBox="0 0 18 18" version="1.1" xmlns="http://www.w3.org/2000/svg" xmlns:xlink="http://www.w3.org/1999/xlink">
    <!-- Generator: sketchtool 55.2 (78181) - https://sketchapp.com -->
    <title>A94091B0-508A-4313-879D-9B28BBF4C93A</title>
    <desc>Created with sketchtool.</desc>
    <g id="💎-VD---Homepage-and-PDP---Iteration-2" stroke="none" stroke-width="1" fill="none" fill-rule="evenodd">
        <g id="ELC---Chekout-Header-and-Footer---Large-1440px" transform="translate(-1206.000000, -13.000000)">
            <g id="Desktop/Global/Header/ELC">
                <g id="Group-3" transform="translate(1206.000000, 13.000000)">
                    <g id="Icons/Store-Locator-3-Copy">
                        <g id="Group">
                            <circle id="Oval" stroke="#FFFFFF" stroke-width="0.9" cx="9" cy="9" r="8.55"></circle>
                            <path d="M9.47684638,10.7602213 C9.47684638,10.9790069 9.42391468,11.1505522 9.31804969,11.2748622 C9.21218471,11.3991722 9.07103351,11.4613263 8.89459186,11.4613263 C8.71815022,11.4613263 8.57699902,11.3991722 8.47113403,11.2748622 C8.36526904,11.1505522 8.31233734,10.9790069 8.31233734,10.7602213 L8.31233734,9.07458588 C8.31233734,8.90552425 8.31674832,8.76878528 8.3255704,8.66436486 C8.33439248,8.55994445 8.36968028,8.47292874 8.43143486,8.40331513 C8.49318943,8.33370152 8.58581991,8.2740336 8.70932906,8.2243096 C8.83283821,8.17458559 9.00927721,8.12486233 9.23865135,8.07513832 C9.50331382,8.01546951 9.71504062,7.92348147 9.8738381,7.79917146 C10.0326356,7.67486144 10.1539374,7.53812247 10.2377472,7.38895044 C10.321557,7.23977842 10.3788996,7.08315015 10.4097769,6.91906092 C10.4406542,6.75497169 10.4560926,6.60331575 10.4560926,6.46408852 C10.4560926,5.95690365 10.3127359,5.55663139 10.0260183,5.26325974 C9.73930058,4.9698881 9.37098417,4.82320447 8.92105798,4.82320447 C8.56817469,4.82320447 8.26161192,4.90773402 8.0013605,5.07679565 C7.74110907,5.24585727 7.53599873,5.56905847 7.38602334,6.04640895 C7.32426876,6.24530498 7.25369316,6.37707162 7.17429442,6.44171283 C7.09489568,6.50635404 6.99344325,6.53867416 6.8699341,6.53867416 C6.7199587,6.53867416 6.58542397,6.47652009 6.46632586,6.35221007 C6.34722775,6.22790005 6.29209056,6.06132712 6.30091264,5.85248629 C6.30973472,5.52430784 6.39354325,5.2234821 6.55234073,4.95000006 C6.71113821,4.67651802 6.91183757,4.43784636 7.15444483,4.23397793 C7.3970521,4.0301095 7.66832706,3.87348122 7.96827785,3.76408841 C8.26822865,3.65469559 8.57258593,3.6 8.8813588,3.6 C9.27835251,3.6 9.64887441,3.66961257 9.99293561,3.80883979 C10.3369968,3.94806701 10.6347376,4.13950157 10.886167,4.38314921 C11.1375963,4.62679684 11.3360902,4.91519176 11.4816546,5.24834261 C11.6272189,5.58149347 11.7,5.94695944 11.7,6.3447515 C11.7,7.15028043 11.4948897,7.79916899 11.0846628,8.29143667 C10.674436,8.78370435 10.1385026,9.10939171 9.47684638,9.26850854 L9.47684638,10.7602213 Z M8.21970592,13.6392263 C8.21970592,13.4303855 8.28587054,13.2513817 8.41820177,13.1022097 C8.550533,12.9530377 8.70932809,12.8784528 8.89459181,12.8784528 C9.07985554,12.8784528 9.23865063,12.9530377 9.37098186,13.1022097 C9.50331309,13.2513817 9.56947771,13.4303855 9.56947771,13.6392263 C9.56947771,13.8480671 9.50331309,14.0270709 9.37098186,14.1762429 C9.23865063,14.3254149 9.07985554,14.3999998 8.89459181,14.3999998 C8.70932809,14.3999998 8.550533,14.3254149 8.41820177,14.1762429 C8.28587054,14.0270709 8.21970592,13.8480671 8.21970592,13.6392263 Z" id="?" fill="#FFFFFF" fill-rule="nonzero"></path>
                        </g>
                    </g>
                </g>
            </g>
        </g>
    </g>
</svg>