<?xml version="1.0" encoding="UTF-8"?>
<svg width="364px" height="61px" viewBox="0 0 364 61" version="1.1" xmlns="http://www.w3.org/2000/svg" xmlns:xlink="http://www.w3.org/1999/xlink">
    <!-- Generator: sketchtool 55.2 (78181) - https://sketchapp.com -->
    <title>29703C8F-C9F1-4CE1-A48F-18750771C50A</title>
    <desc>Created with sketchtool.</desc>
    <defs>
        <polygon id="path-1" points="0 0.082746151 15.8665885 0.082746151 15.8665885 17.3759773 0 17.3759773"></polygon>
        <polygon id="path-3" points="0.138039215 0.269620505 16.3427445 0.269620505 16.3427445 23.8461546 0.138039215 23.8461546"></polygon>
        <polygon id="path-5" points="0 0.115768584 68.9684733 0.115768584 68.9684733 59.9587576 0 59.9587576"></polygon>
    </defs>
    <g id="💎-VD---Homepage-and-PDP---Iteration-2" stroke="none" stroke-width="1" fill="none" fill-rule="evenodd">
        <g id="ELC---Homepage---Large-1440px---Option-1" transform="translate(-30.000000, -55.000000)">
            <g id="Desktop/Global/Header/ELC">
                <g id="Header" transform="translate(30.000000, 56.000000)">
                    <g id="Logo-Group">
                        <g id="Global/Logos/Entertainer-Copy" transform="translate(84.000000, 15.000000)">
                            <g id="Group-41">
                                <g id="Group-3" transform="translate(0.000000, 6.977067)">
                                    <mask id="mask-2" fill="white">
                                        <use xlink:href="#path-1"></use>
                                    </mask>
                                    <g id="Clip-2"></g>
                                    <path d="M11.4469806,7.2365923 C11.2014904,5.27723338 9.97403942,3.81546418 7.91756882,3.81546418 C5.95364724,3.81546418 4.63364724,5.33923337 4.41952959,7.2365923 L11.4469806,7.2365923 Z M4.51129402,10.222131 C4.81796068,12.4310798 6.62894103,13.4572593 8.68462725,13.4572593 C10.9559998,13.4572593 12.5214899,11.6529003 13.6877644,11.6529003 C14.6383526,11.6529003 15.4979604,12.6178747 15.4979604,13.5812593 C15.4979604,15.5104132 11.5693331,17.3759773 8.28619589,17.3759773 C3.3144313,17.3759773 -7.84313706e-05,13.7060542 -7.84313706e-05,8.76036174 C-7.84313706e-05,4.21925907 3.25247051,0.082746151 7.91756845,0.082746151 C12.7058036,0.082746151 15.8665879,4.49984882 15.8665879,8.23177199 C15.8665879,9.56954125 15.2830585,10.222131 13.9324703,10.222131 L4.51129402,10.222131 Z" id="Fill-1" fill="#FFFFFF" mask="url(#mask-2)"></path>
                                </g>
                                <path d="M24.7562352,20.2477689 C27.058196,20.2477689 28.1625097,17.8838202 28.1625097,15.7376665 C28.1625097,13.5915127 27.0887842,11.165564 24.7562352,11.165564 C22.3319215,11.165564 21.2574117,13.5915127 21.2574117,15.7376665 C21.2574117,17.8838202 22.3625098,20.2477689 24.7562352,20.2477689 L24.7562352,20.2477689 Z M32.5821177,21.242949 C32.5821177,22.3939234 32.5821177,24.1664876 30.4644707,24.1664876 C29.1758432,24.1664876 28.6534903,23.4518978 28.3468236,22.2699234 C27.2111373,23.6378978 25.8307452,24.3532824 24.1421177,24.3532824 C19.9993726,24.3532824 16.8385883,20.7771541 16.8385883,15.7376668 C16.8385883,10.8237693 20.0911374,7.06005126 24.1421177,7.06005126 C25.7687844,7.06005126 27.3648628,7.71343589 28.3468236,9.11320515 C28.4699609,8.02423077 29.3907452,7.24684613 30.4644707,7.24684613 C32.5821177,7.24684613 32.5821177,9.01941028 32.5821177,10.1703847 L32.5821177,21.242949 Z" id="Fill-4" fill="#FFFFFF"></path>
                                <path d="M34.2261969,9.48631801 C34.2261969,7.99354883 35.3924714,7.24716424 36.4975695,7.24716424 C37.6630597,7.24716424 38.6458048,7.68195909 38.6458048,9.11272828 L38.7069813,9.11272828 C39.5352166,7.86875396 40.4254127,7.24716424 41.8065892,7.24716424 C42.881099,7.24716424 43.9548246,8.02454883 43.9548246,9.64211288 C43.9548246,11.1038821 42.6356088,11.1968821 41.3156088,11.8192667 C39.9956088,12.4408564 38.6458048,13.032241 38.6458048,14.804805 L38.6458048,21.6788561 C38.6458048,23.1716253 37.7250205,24.1668047 36.436393,24.1668047 C35.1469812,24.1668047 34.2261969,23.1716253 34.2261969,21.6788561 L34.2261969,9.48631801 Z" id="Fill-6" fill="#FFFFFF"></path>
                                <path d="M44.962981,2.23931289 C44.962981,1.02633849 46.0069026,0.000158974355 47.1731771,0.000158974355 C48.4312164,0.000158974355 49.382589,1.02633849 49.382589,2.23931289 L49.382589,18.5683647 C49.382589,22.1452878 52.7582754,19.688339 52.9731773,22.2382878 C53.1269028,24.0736469 51.3465106,24.2286469 50.1802361,24.2286469 C47.4798438,24.2286469 44.962981,22.9536725 44.962981,19.0349544 L44.962981,2.23931289 Z" id="Fill-8" fill="#FFFFFF"></path>
                                <g id="Group-12" transform="translate(50.196078, 6.977067)">
                                    <mask id="mask-4" fill="white">
                                        <use xlink:href="#path-3"></use>
                                    </mask>
                                    <g id="Clip-11"></g>
                                    <path d="M0.138039215,21.6063636 C0.138039215,20.5181841 1.1505882,19.7090047 2.01019601,19.7090047 C4.28078417,19.7090047 6.21411744,18.0914406 6.55215664,15.9460817 L1.61098034,3.31795377 C1.48784309,2.9761589 1.33490192,2.63356917 1.33490192,2.16697943 C1.33490192,1.07879997 2.53176462,0.269620505 3.48313714,0.269620505 C4.52627436,0.269620505 5.32470571,0.830005107 5.6619606,1.82518457 L8.7309801,10.2850049 L11.9843133,1.82518457 C12.3215682,0.830005107 13.1192152,0.269620505 14.193725,0.269620505 C15.1145093,0.269620505 16.3427445,1.07879997 16.3427445,2.16697943 C16.3427445,2.63356917 16.2501955,2.9761589 16.0658818,3.31795377 L10.6643134,17.0962611 C9.46745066,20.1135944 6.73647036,23.8463123 3.022745,23.8463123 C1.08941173,23.8463123 0.138039215,22.8813379 0.138039215,21.6063636" id="Fill-10" fill="#FFFFFF" mask="url(#mask-4)"></path>
                                </g>
                                <path d="M76.5270577,2.23931289 C76.5270577,1.02633849 77.5709793,0.000158974355 78.7364696,0.000158974355 C79.9952931,0.000158974355 80.9466657,1.02633849 80.9466657,2.23931289 L80.9466657,18.5683647 C80.9466657,22.1452878 84.3223521,19.688339 84.537254,22.2382878 C84.6901952,24.0736469 82.909803,24.2286469 81.7443128,24.2286469 C79.0439205,24.2286469 76.5270577,22.9536725 76.5270577,19.0349544 L76.5270577,2.23931289 Z" id="Fill-13" fill="#FFFFFF"></path>
                                <path d="M95.5765489,14.2136586 C95.3310586,12.2542997 94.1036076,10.7925305 92.0471369,10.7925305 C90.0832153,10.7925305 88.7632152,12.3162997 88.5483132,14.2136586 L95.5765489,14.2136586 Z M88.6408623,17.1991973 C88.9475289,19.4081461 90.7585094,20.4343256 92.8141958,20.4343256 C95.0855684,20.4343256 96.6502744,18.6299666 97.8165489,18.6299666 C98.7679215,18.6299666 99.6275294,19.594941 99.6275294,20.5583256 C99.6275294,22.4874795 95.6996861,24.3530437 92.4149801,24.3530437 C87.4439995,24.3530437 84.1287052,20.6831205 84.1287052,15.7374281 C84.1287052,11.1963254 87.3820387,7.05981247 92.0471369,7.05981247 C96.8345881,7.05981247 99.9961569,11.4769151 99.9961569,15.2088383 C99.9961569,16.5466076 99.4126274,17.1991973 98.0620391,17.1991973 L88.6408623,17.1991973 Z" id="Fill-15" fill="#FFFFFF"></path>
                                <path d="M109.262192,20.2477689 C111.564153,20.2477689 112.669251,17.8838202 112.669251,15.7376665 C112.669251,13.5915127 111.594741,11.165564 109.262192,11.165564 C106.837878,11.165564 105.763368,13.5915127 105.763368,15.7376665 C105.763368,17.8838202 106.868466,20.2477689 109.262192,20.2477689 L109.262192,20.2477689 Z M117.088074,21.242949 C117.088074,22.3939234 117.088074,24.1664876 114.970427,24.1664876 C113.6818,24.1664876 113.160231,23.4518978 112.853564,22.2699234 C111.717878,23.6378978 110.336701,24.3532824 108.648858,24.3532824 C104.505329,24.3532824 101.344545,20.7771541 101.344545,15.7376668 C101.344545,10.8237693 104.597878,7.06005126 108.648858,7.06005126 C110.275525,7.06005126 111.870819,7.71343589 112.853564,9.11320515 C112.975917,8.02423077 113.896701,7.24684613 114.970427,7.24684613 C117.088074,7.24684613 117.088074,9.01941028 117.088074,10.1703847 L117.088074,21.242949 Z" id="Fill-17" fill="#FFFFFF"></path>
                                <path d="M118.947371,9.48631801 C118.947371,7.99354883 120.113645,7.24716424 121.218744,7.24716424 C122.385018,7.24716424 123.366979,7.68195909 123.366979,9.11272828 L123.428155,9.11272828 C124.257175,7.86875396 125.147371,7.24716424 126.527763,7.24716424 C127.602273,7.24716424 128.675999,8.02454883 128.675999,9.64211288 C128.675999,11.1038821 127.356783,11.1968821 126.036783,11.8192667 C124.716783,12.4408564 123.366979,13.032241 123.366979,14.804805 L123.366979,21.6788561 C123.366979,23.1716253 122.446195,24.1668047 121.157567,24.1668047 C119.868155,24.1668047 118.947371,23.1716253 118.947371,21.6788561 L118.947371,9.48631801 Z" id="Fill-19" fill="#FFFFFF"></path>
                                <path d="M129.838197,9.73471524 C129.838197,8.24194602 130.758981,7.24676653 132.048393,7.24676653 C133.183295,7.24676653 133.92055,7.86835627 134.073491,8.89533063 C134.932315,7.6815614 136.252315,7.05997166 138.339374,7.05997166 C141.807609,7.05997166 144.384864,9.2991255 144.384864,13.0938434 L144.384864,21.6784588 C144.384864,23.171228 143.46408,24.1664075 142.176237,24.1664075 C140.886825,24.1664075 139.966041,23.171228 139.966041,21.6784588 L139.966041,13.871228 C139.966041,11.7878691 138.676629,10.7926896 137.08055,10.7926896 C135.270354,10.7926896 134.257805,12.1296639 134.257805,13.871228 L134.257805,21.6784588 C134.257805,23.171228 133.337021,24.1664075 132.048393,24.1664075 C130.758981,24.1664075 129.838197,23.171228 129.838197,21.6784588 L129.838197,9.73471524 Z" id="Fill-21" fill="#FFFFFF"></path>
                                <path d="M146.038743,9.48631783 C146.038743,8.21134343 147.082664,7.24716391 148.248154,7.24716391 C149.506978,7.24716391 150.45835,8.21134343 150.45835,9.48631783 L150.45835,18.5375233 C150.45835,22.1136516 153.834037,19.6567028 154.048154,22.1764465 C154.20188,24.0428055 152.421488,24.1978055 151.255997,24.1978055 C148.554821,24.1978055 146.038743,22.9228311 146.038743,19.004113 L146.038743,9.48631783 Z M148.248154,5.53659984 C146.928154,5.53659984 145.762664,4.26083066 145.762664,2.92385634 C145.762664,1.67908715 146.928154,0.466907708 148.248154,0.466907708 C149.659919,0.466907708 150.734429,1.58608716 150.734429,2.92385634 C150.734429,4.35462552 149.659919,5.53659984 148.248154,5.53659984 L148.248154,5.53659984 Z" id="Fill-23" fill="#FFFFFF"></path>
                                <path d="M154.985256,9.73471524 C154.985256,8.24194602 155.90604,7.24676653 157.194668,7.24676653 C158.330354,7.24676653 159.066825,7.86835627 159.219766,8.89533063 C160.079374,7.6815614 161.399374,7.05997166 163.485648,7.05997166 C166.953884,7.05997166 169.531923,9.2991255 169.531923,13.0938434 L169.531923,21.6784588 C169.531923,23.171228 168.611139,24.1664075 167.322511,24.1664075 C166.033099,24.1664075 165.112315,23.171228 165.112315,21.6784588 L165.112315,13.871228 C165.112315,11.7878691 163.823688,10.7926896 162.227609,10.7926896 C160.416629,10.7926896 159.40408,12.1296639 159.40408,13.871228 L159.40408,21.6784588 C159.40408,23.171228 158.483295,24.1664075 157.194668,24.1664075 C155.90604,24.1664075 154.985256,23.171228 154.985256,21.6784588 L154.985256,9.73471524 Z" id="Fill-25" fill="#FFFFFF"></path>
                                <path d="M179.087526,11.1657232 C176.785565,11.1657232 175.649879,13.5916719 175.649879,15.6758257 C175.649879,18.0707743 176.785565,20.2479281 179.087526,20.2479281 C181.449879,20.2479281 182.555761,18.0087743 182.555761,15.8316205 C182.555761,13.6536719 181.51184,11.1657232 179.087526,11.1657232 L179.087526,11.1657232 Z M186.974585,22.6738771 C186.974585,28.0543643 183.506349,30.7601079 178.473408,30.7601079 C176.662428,30.7601079 171.506349,29.8587233 171.506349,27.4017745 C171.506349,26.5615951 172.427134,25.4424156 173.286741,25.4424156 C174.698506,25.4424156 176.263212,26.8413899 178.810663,26.8413899 C180.958898,26.8413899 182.555761,25.5664156 182.555761,23.2962617 L182.555761,22.2382874 L182.4938,22.2382874 C181.573016,23.6070566 180.069487,24.3534412 178.043604,24.3534412 C173.409094,24.3534412 171.231055,20.2169284 171.231055,15.7688258 C171.231055,11.2587233 174.0538,7.06021045 178.503996,7.06021045 C180.00831,7.06021045 181.726741,7.74459506 182.555761,9.11256942 C182.831055,7.93138993 183.537722,7.24700532 184.765173,7.24700532 C186.0538,7.24700532 186.974585,8.24218481 186.974585,9.73495404 L186.974585,22.6738771 Z" id="Fill-27" fill="#FFFFFF"></path>
                                <path d="M208.703457,12.0366641 C207.599143,12.0366641 206.616398,11.1654846 205.204633,11.1654846 C202.688554,11.1654846 201.491692,13.4364334 201.491692,15.7375873 C201.491692,17.946536 202.810907,20.2476899 205.204633,20.2476899 C206.309731,20.2476899 207.966986,19.3145104 208.488555,19.3145104 C209.531692,19.3145104 210.3913,20.2166899 210.3913,21.2746643 C210.3913,23.5758182 206.585025,24.3532028 204.989731,24.3532028 C200.232868,24.3532028 197.072084,20.4034848 197.072084,15.7375873 C197.072084,11.1964846 200.324633,7.05997166 204.989731,7.05997166 C206.738751,7.05997166 210.3913,7.71335629 210.3913,9.89051019 C210.3913,10.8236897 209.746594,12.0366641 208.703457,12.0366641" id="Fill-29" fill="#FFFFFF"></path>
                                <path d="M222.029496,14.2136586 C221.784006,12.2542997 220.556555,10.7925305 218.500085,10.7925305 C216.535379,10.7925305 215.216163,12.3162997 215.002045,14.2136586 L222.029496,14.2136586 Z M215.09381,17.1991973 C215.400477,19.4081461 217.211457,20.4343256 219.267928,20.4343256 C221.538516,20.4343256 223.103222,18.6299666 224.270281,18.6299666 C225.220869,18.6299666 226.081262,19.594941 226.081262,20.5583256 C226.081262,22.4874795 222.152634,24.3530437 218.868712,24.3530437 C213.896947,24.3530437 210.581653,20.6831205 210.581653,15.7374281 C210.581653,11.1963254 213.835771,7.05981247 218.500085,7.05981247 C223.287536,7.05981247 226.449105,11.4769151 226.449105,15.2088383 C226.449105,16.5466076 225.865575,17.1991973 224.515771,17.1991973 L215.09381,17.1991973 Z" id="Fill-31" fill="#FFFFFF"></path>
                                <path d="M228.002188,9.73471524 C228.002188,8.24194602 228.922972,7.24676653 230.212384,7.24676653 C231.347286,7.24676653 232.083757,7.86835627 232.237482,8.89533063 C233.096306,7.6815614 234.416306,7.05997166 236.503365,7.05997166 C239.9716,7.05997166 242.548855,9.2991255 242.548855,13.0938434 L242.548855,21.6784588 C242.548855,23.171228 241.628071,24.1664075 240.339443,24.1664075 C239.050816,24.1664075 238.130031,23.171228 238.130031,21.6784588 L238.130031,13.871228 C238.130031,11.7878691 236.840619,10.7926896 235.244541,10.7926896 C233.434345,10.7926896 232.421796,12.1296639 232.421796,13.871228 L232.421796,21.6784588 C232.421796,23.171228 231.501011,24.1664075 230.212384,24.1664075 C228.922972,24.1664075 228.002188,23.171228 228.002188,21.6784588 L228.002188,9.73471524 Z" id="Fill-33" fill="#FFFFFF"></path>
                                <path d="M253.973026,22.1759698 C254.125967,24.0113288 252.284399,24.1663288 251.118909,24.1663288 C248.356556,24.1663288 245.870281,22.8913544 245.870281,18.8478415 L245.870281,11.3522002 L244.796556,11.3522002 C243.753419,11.3522002 242.954987,10.4500207 242.954987,9.42384119 C242.954987,8.24186679 243.753419,7.43348215 244.796556,7.43348215 L245.870281,7.43348215 L245.870281,4.38514872 C245.870281,3.29617432 246.822438,2.2699948 248.080477,2.2699948 C249.307928,2.2699948 250.258516,3.29617432 250.258516,4.38514872 L250.258516,7.43348215 L251.793418,7.43348215 C252.83734,7.43348215 253.696948,8.24186679 253.696948,9.42384119 C253.696948,10.4500207 252.83734,11.3522002 251.793418,11.3522002 L250.258516,11.3522002 L250.258516,18.3812517 C250.258516,22.0201749 253.758124,19.5322261 253.973026,22.1759698" id="Fill-35" fill="#FFFFFF"></path>
                                <path d="M254.964552,9.48631801 C254.964552,7.99354883 256.130042,7.24716424 257.23514,7.24716424 C258.401414,7.24716424 259.383375,7.68195909 259.383375,9.11272828 L259.444552,9.11272828 C260.274356,7.86875396 261.163767,7.24716424 262.54416,7.24716424 C263.619454,7.24716424 264.692395,8.02454883 264.692395,9.64211288 C264.692395,11.1038821 263.373179,11.1968821 262.053179,11.8192667 C260.733963,12.4408564 259.383375,13.032241 259.383375,14.804805 L259.383375,21.6788561 C259.383375,23.1716253 258.462591,24.1668047 257.173963,24.1668047 C255.885336,24.1668047 254.964552,23.1716253 254.964552,21.6788561 L254.964552,9.48631801 Z" id="Fill-37" fill="#FFFFFF"></path>
                                <path d="M275.538593,14.2136586 C275.293887,12.2542997 274.065651,10.7925305 272.009181,10.7925305 C270.045259,10.7925305 268.726044,12.3162997 268.511142,14.2136586 L275.538593,14.2136586 Z M268.602906,17.1991973 C268.909573,19.4081461 270.720553,20.4343256 272.777024,20.4343256 C275.047612,20.4343256 276.613102,18.6299666 277.779376,18.6299666 C278.730749,18.6299666 279.590357,19.594941 279.590357,20.5583256 C279.590357,22.4874795 275.661729,24.3530437 272.377808,24.3530437 C267.406043,24.3530437 264.091534,20.6831205 264.091534,15.7374281 C264.091534,11.1963254 267.344867,7.05981247 272.00918,7.05981247 C276.797416,7.05981247 279.9582,11.4769151 279.9582,15.2088383 C279.9582,16.5466076 279.375455,17.1991973 278.025651,17.1991973 L268.602906,17.1991973 Z" id="Fill-39" fill="#FFFFFF"></path>
                            </g>
                        </g>
                        <g id="Global/Logos/ELC">
                            <g transform="translate(0.000000, -0.546296)">
                                <g id="Group-3" transform="translate(0.000000, 0.018068)">
                                    <mask id="mask-6" fill="white">
                                        <use xlink:href="#path-5"></use>
                                    </mask>
                                    <g id="Clip-2"></g>
                                    <path d="M1.47690811,46.5747178 C0.86461684,49.1983149 1.27419549,51.3902893 2.69412173,53.0898792 C4.15357224,54.8365795 6.1137082,55.4139502 6.67964219,55.5493927 L7.12325191,55.6560604 C10.5905355,56.4937432 19.8007628,58.7191767 34.5355456,58.7542418 C34.6184796,58.7542418 34.7040932,58.7542418 34.7870272,58.7542418 C49.0165692,58.7542418 63.0778316,55.9169078 63.2190472,55.8879991 C65.0060802,55.5452438 66.2846569,54.676511 67.0269094,53.3044191 C68.1554278,51.2179079 67.8595987,48.3397537 67.0658977,46.4130433 C67.0633521,46.4070206 67.0609404,46.4008642 67.0586628,46.3948415 C65.0536433,41.0415149 61.2238083,32.5766232 54.3650742,22.6507722 C47.0315129,11.615015 41.7833594,6.26838024 39.5424001,3.98526319 L39.4941671,3.93641287 C37.5320214,2.00809641 35.6704952,1.16077746 33.8061553,1.34413348 C32.249167,1.49751012 30.6781106,2.37507613 29.0032193,4.02648484 C25.6736678,7.30882528 18.1545434,17.1970682 13.87172,23.1795603 C13.5145278,23.7419413 13.1372384,24.331625 12.7445413,24.9453992 C8.89648496,30.958406 3.62769845,39.1917605 1.47690811,46.5747178 M34.7866237,59.9587696 C34.7019479,59.9587696 34.6174062,59.9587696 34.5327305,59.9587696 C19.655661,59.923303 10.3448147,57.6737789 6.83974874,56.8268615 L6.39908661,56.720863 C5.74177789,56.5636051 3.46544786,55.8929503 1.76831587,53.8617136 C0.614341147,52.480387 -0.576210275,50.0445625 0.306453778,46.2844258 C0.308865428,46.2742542 0.31154504,46.2640826 0.314492612,46.2540449 C2.51097022,38.70058 7.83843997,30.3754137 11.7285661,24.2965595 C12.1236748,23.6790378 12.5033758,23.0857406 12.8624437,22.5202813 C12.8683389,22.5107789 12.8746359,22.5015442 12.881067,22.4925772 C17.1873368,16.4763584 24.7733172,6.50406623 28.1561928,3.16926192 C30.0354044,1.31616161 31.8448121,0.326975972 33.687715,0.145359829 C35.9014761,-0.0727936815 38.1405595,0.915053595 40.3438701,3.08146517 C40.3464157,3.08400807 40.3488274,3.08655096 40.351373,3.08909386 L40.4033575,3.14195928 C42.6684331,5.44956837 47.9728582,10.8534851 55.3634949,21.9755667 C62.282386,31.9882775 66.1548266,40.5463193 68.1846324,45.9637535 C69.0839101,48.1535865 69.4023819,51.4466338 68.0877645,53.876971 C67.1653082,55.5827173 65.6060422,56.6567553 63.4535102,57.0695071 C63.3181898,57.0972112 49.1413029,59.9587696 34.7866237,59.9587696" id="Fill-1" fill="#FEFEFE" mask="url(#mask-6)"></path>
                                </g>
                                <path d="M39.9208949,3.52878701 C42.1601124,5.8101642 47.4453784,11.1668368 54.8612037,22.3266605 C61.4395164,31.8467193 65.4077533,40.2863159 67.6233902,46.2018898 C68.9023689,49.3062277 69.1337534,55.3852159 63.339763,56.4961928 C63.339763,56.4961928 49.0804775,59.4086091 34.5340715,59.3746469 C19.0335899,59.3376758 9.53744805,56.869329 6.53936453,56.153036 C4.09180723,55.5677689 -0.619352026,52.8847483 0.893422743,46.4399849 C3.28899558,38.2019461 9.51587718,28.9333661 13.3715704,22.860802 C17.5032636,17.0884332 25.1552967,6.99167293 28.5797064,3.61591458 C31.7139142,0.525361837 35.4444696,-0.87269437 39.9208949,3.52878701" id="Fill-4" fill="#0D943F"></path>
                                <path d="M34.1995074,8.38990288 C32.9445114,8.38990288 31.7893308,9.03967913 31.0308668,10.1728729 L8.32665192,44.0925316 C7.24985001,45.7011126 7.03534711,47.3780841 7.73740534,48.6939646 C8.35867328,49.8596806 9.62344994,50.5852084 11.0380169,50.5893573 L57.5821999,50.7004416 L57.5931863,51.0674213 L57.5931863,50.7004416 C58.9697028,50.7004416 60.0907183,50.0819831 60.6696484,49.0045992 C61.3765299,47.6880494 61.1661804,45.9505839 60.1069299,44.3573941 L37.3889151,10.1886656 C36.6287093,9.04530027 35.4662938,8.38990288 34.1995074,8.38990288 M57.5931889,51.4345343 L57.5801928,51.4345343 L11.0364093,51.32345 C9.35012968,51.3184981 7.83775683,50.4437427 7.0885374,49.0399315 C6.25464223,47.476855 6.48321311,45.5251172 7.71556654,43.6840622 L30.4193806,9.76480532 C31.3166486,8.42403119 32.6943709,7.65540813 34.1995088,7.65540813 C35.716839,7.65540813 37.1021982,8.43085685 38.001074,9.78273942 L60.719224,43.9513337 C61.9306764,45.7736516 62.154424,47.7927091 61.3177152,49.3519044 C60.6068143,50.6756813 59.2494569,51.4345343 57.5931889,51.4345343" id="Fill-6" fill="#FEFEFE"></path>
                                <path d="M36.7427814,13.7846657 C36.7427814,13.7846657 35.2294707,12.8801985 33.9289212,13.453688 C33.9289212,13.453688 33.7487174,13.4532865 32.3052106,13.5218108 C32.3052106,13.5218108 29.6704825,13.6592608 29.4467349,16.5787704 C29.4467349,16.5787704 29.2291504,17.2990785 29.0845854,17.3709487 C29.0845854,17.3709487 28.6494165,18.1625917 29.6574864,19.1027931 C29.6574864,19.1027931 31.7440999,21.8105734 32.1424242,21.0549324 C32.1424242,21.0549324 32.6113562,21.3440193 32.9727018,20.9486663 C32.9727018,20.9486663 33.6949912,20.8784021 33.8055251,19.7971369 C33.8055251,19.7971369 34.2042513,19.1493682 34.5274125,19.6908708 C34.5274125,19.6908708 34.5627834,20.0506233 34.7805018,19.5108606 C34.7805018,19.5108606 35.0337251,19.2597834 34.8909018,18.3937273 C34.8909018,18.3937273 35.1458669,17.7818268 35.6878183,17.4588793 C35.6878183,17.4588793 37.8548202,16.5268419 37.6408532,15.5169116 C37.6408532,15.5169116 37.7866241,14.7606015 36.9225833,13.9294768 L36.7427814,13.7846657 Z" id="Fill-8" fill="#FEFEFE"></path>
                                <path d="M37.6375984,16.7064638 C37.6375984,16.7064638 36.481212,17.5687725 35.9387246,17.9281235 C35.9387246,17.9281235 35.2524761,18.3228074 35.2854353,19.5484821 C35.2854353,19.5484821 35.1750353,20.4136013 34.8148955,20.1962508 C34.8148955,20.1962508 34.1664295,19.9066286 34.3089848,20.5550665 C34.3089848,20.5550665 34.3434178,21.0600316 34.776979,20.8090882 L35.0292644,21.3144548 C35.0292644,21.3144548 34.342614,21.4563215 34.1992547,21.3841837 L33.6941479,21.0945615 C33.6941479,21.0945615 33.1160217,21.4900483 32.9714567,21.5613832 C32.9714567,21.5613832 33.6569013,21.4547155 35.0606159,23.1164296 C35.0606159,23.1164296 35.0300683,20.7733538 36.4016275,20.7765659 C36.4016275,20.7765659 38.206346,20.2404169 38.2084896,19.447034 C38.2084896,19.447034 38.4274139,18.6184522 38.1763343,17.788532 C38.1763343,17.788532 38.5742566,17.3574446 37.9619654,17.0678224 L37.6375984,16.7064638 Z" id="Fill-10" fill="#FEFEFE"></path>
                                <path d="M34.6110702,29.9275823 C34.6110702,29.9275823 35.2640916,28.4512318 35.1214022,27.8026601 C35.1214022,27.8026601 34.9789809,27.0446101 35.3431401,25.6757303 C35.3431401,25.6757303 35.8158236,24.2716515 33.9070023,22.7534102 C33.9070023,22.7534102 32.5386586,21.5241219 31.4180451,22.2420209 C31.4180451,22.2420209 27.7317034,24.612667 27.355352,31.1358583 C27.355352,31.1358583 28.5093267,31.4626871 29.0200607,29.1573532 C29.0200607,29.1573532 29.3851577,27.4996543 29.8552956,27.0328325 C29.8552956,27.0328325 30.5065752,26.2414572 30.3640198,25.5199446 C30.3640198,25.5199446 31.3092528,22.6025764 32.9313557,23.1115567 C32.9313557,23.1115567 35.3841382,23.4413298 34.6926644,25.9268076 C34.6926644,25.9268076 34.2591032,27.1208969 34.0049421,27.3833503 C33.9869887,27.8217987 34.0027984,28.2463281 32.4452742,30.2106466 C32.4452742,30.2106466 33.4566935,29.8167657 34.2143537,29.9263778 L34.6110702,29.9275823 Z" id="Fill-12" fill="#FEFEFE"></path>
                                <path d="M35.8021698,29.7862378 C35.8021698,29.7862378 35.1506222,30.7218889 35.2622281,29.3883419 C35.2622281,29.3883419 35.6231717,29.1372646 35.5533679,28.2721454 C35.5533679,28.2721454 35.2378436,24.4867134 37.1843135,25.2841114 C37.1843135,25.2841114 38.8466106,25.0468192 39.105595,30.0405272 C39.2376999,31.3091635 39.126362,32.604701 40.2319698,33.5099712 C40.2319698,33.5099712 40.8772203,34.2428599 41.3379795,34.3373485 C41.3379795,34.3373485 42.4289834,35.0648838 41.5271601,34.954201 C41.5271601,34.954201 40.4837193,34.3681309 39.6900183,34.1719265 C39.6900183,34.1719265 37.5752688,33.2321265 37.6135873,32.4391452 C37.6135873,32.4391452 36.1866941,30.249446 36.8139912,29.2123469 C36.8139912,29.2123469 36.5988183,28.4902989 36.2006281,29.2828787 L35.8021698,29.7862378 Z" id="Fill-14" fill="#FEFEFE"></path>
                                <path d="M31.287923,31.5419868 C31.287923,31.5419868 32.9880027,29.5992161 35.1512532,30.5782301 C35.1512532,30.5782301 36.3450202,31.7885136 37.5310163,33.167565 C37.5310163,33.167565 38.8599697,34.4303124 39.4730649,34.5757927 C39.4730649,34.5757927 41.7788707,35.2791035 41.9584047,35.5317868 C41.9584047,35.5317868 43.2227795,35.102707 42.6071387,35.9662201 C42.6071387,35.9662201 42.2567794,37.5434833 41.1689911,37.1439814 C40.9526124,37.1707487 40.845428,36.8191602 39.1044843,36.8593111 C39.1044843,36.8593111 38.4944707,37.0568538 37.76776,35.7864777 C37.76776,35.7864777 35.2100707,36.0208254 33.5535347,34.5388538 C33.5535347,34.5388538 32.4301075,36.7347093 31.9980201,36.2654785 C31.9980201,36.2654785 30.9521677,36.1186599 30.5254395,33.2698161 L31.2140997,32.1905585 L31.287923,31.5419868 Z" id="Fill-16" fill="#FEFEFE"></path>
                                <path d="M30.0911812,34.0618191 C30.0911812,34.0618191 30.5200531,35.8655338 31.203756,36.3355676 C31.203756,36.3355676 28.9629307,36.6977292 28.4906492,35.9466387 L30.0911812,34.0618191 Z" id="Fill-18" fill="#FEFEFE"></path>
                                <path d="M36.1249559,47.1864181 L31.8775036,47.1758451 L31.8965288,39.1073774 L33.2068589,39.1105895 L33.1901113,46.0057125 L36.1277695,46.0129396 L36.1249559,47.1864181 Z M38.3589479,37.2185426 C38.1928119,37.1763841 37.9792469,37.0153788 37.8090916,36.8672218 L29.0198316,36.845808 C28.9848627,36.845808 28.9516355,36.853169 28.9176044,36.8558457 C28.8392258,37.5572828 28.2175559,37.5028114 27.9540161,37.4712259 C27.8537986,37.6484255 27.7920336,37.8495817 27.7916316,38.0674676 L27.7664398,48.3054248 C27.7648355,48.98063 28.3125481,49.529895 28.989418,49.532304 L39.2378605,49.5566643 C39.9147303,49.5578668 40.4645866,49.0111447 40.4660604,48.3350027 L40.4905805,38.0974469 C40.4909808,37.8513216 40.4174255,37.6229965 40.2926896,37.4306735 C39.8009808,37.4344209 39.0280469,37.4043077 38.3589479,37.2185426 L38.3589479,37.2185426 Z" id="Fill-20" fill="#FEFEFE"></path>
                                <path d="M28.6458518,36.9092435 C28.5142829,36.951402 28.3924945,37.0131007 28.2845062,37.0942056 C28.4147353,37.0938041 28.5597023,37.0666353 28.6182518,36.9855304 C28.6336596,36.9651872 28.6408945,36.9376169 28.6458518,36.9092435" id="Fill-22" fill="#FEFEFE"></path>
                                <path d="M32.9667257,23.5436225 C32.9667257,23.5436225 31.1266364,23.3590619 30.9036927,26.1340282 C30.9036927,26.1340282 30.8302713,26.6025898 30.6134907,26.709659 C30.6134907,26.709659 29.4550946,28.3652167 29.2703354,30.130788 C29.2703354,30.130788 28.8354344,31.1033779 28.5816752,31.2104471 C28.5816752,31.2104471 26.5538791,34.3059518 26.5160965,35.1345336 C26.5160965,35.1345336 25.3244732,35.9728855 25.0317257,36.903317 C25.0317257,36.903317 25.0325295,36.9077336 25.0329315,36.910678 C24.9895218,37.0181487 24.9635295,37.085067 24.9635295,37.085067 C24.9707645,37.1763435 25.0269024,37.1893256 25.0938926,37.1705885 C25.2059004,37.1394046 25.3488577,37.0181487 25.3488577,37.0181487 C25.367481,37.6257665 25.6176227,37.5186973 25.8271684,37.485372 C25.8125645,37.9441635 26.3866713,37.9521937 26.4884965,37.8577051 C26.5676791,38.0406597 26.7204169,38.2390054 26.871815,38.3822104 C27.0285723,38.5305013 27.1845257,38.6195026 27.2563393,38.5679755 C27.4666888,38.3594582 26.9953451,37.6901418 27.4013062,37.2124793 C27.4967004,37.0643223 27.7062461,37.0307293 27.7062461,37.0307293 C27.9088247,37.0247067 28.1114033,37.0790443 28.1114033,37.0790443 C28.1561528,37.0904204 28.2189897,37.094837 28.2843723,37.0944355 C28.4147354,37.0936325 28.5597024,37.0668652 28.6181179,36.9857603 C28.6336596,36.9650156 28.6408946,36.9378468 28.6458519,36.9094735 C28.6559004,36.8499162 28.6482635,36.784604 28.6408946,36.7415086 C28.4679257,36.6721813 27.8743917,36.33759 27.740813,36.0029988 C27.740813,36.0029988 30.887481,32.9099031 30.7474713,31.2162021 C30.7474713,31.2162021 32.8811121,29.2384999 33.4256092,27.6898776 L33.4998344,27.1131761 C33.4998344,27.1131761 35.6705878,24.4513017 32.9667257,23.5436225" id="Fill-24" fill="#FEFEFE"></path>
                                <path d="M22.545623,40.3504358 L19.3485783,40.3426733 L19.343755,42.3629354 L22.5407997,42.3706979 L22.5378521,43.5212903 L19.3409414,43.5132601 L19.3351802,46.1199938 L22.532225,46.1281578 L22.5290094,47.3015025 L18.0212326,47.2909294 L18.0407938,39.2224617 L22.5488386,39.2334363 L22.545623,40.3504358 Z M26.4195379,38.364302 C25.8856253,38.456783 25.7516447,37.9643985 25.7516447,37.9643985 C25.2445282,38.084316 25.1449806,37.4906172 25.1449806,37.4906172 C24.976165,37.5640935 24.7060602,37.4622439 24.658631,37.347546 C24.5984738,37.1924295 24.700433,36.9277009 24.7398233,36.8360229 L15.4011084,36.8136692 C14.7246404,36.8122 14.1746501,37.3585206 14.1729083,38.0345288 L14.1490535,48.2724863 C14.1469161,48.9486283 14.6942268,49.498161 15.3710967,49.4989641 L25.6192719,49.5237273 C26.2965437,49.5253299 26.846668,48.9782062 26.8482758,48.3020642 L26.8706505,38.8696686 C26.6696797,38.7004993 26.453569,38.4677576 26.4195379,38.364302 L26.4195379,38.364302 Z" id="Fill-26" fill="#FEFEFE"></path>
                                <path d="M52.9316677,39.2976511 L52.6161434,39.2963127 L52.3571589,38.74678 L52.1520346,38.7455755 L52.1504269,39.2955097 L51.8674599,39.2948405 L51.8706754,37.9782907 L52.3785958,37.9793614 C52.7493201,37.9801644 52.9348832,38.1067738 52.9340819,38.338311 C52.9332754,38.530634 52.8289045,38.6595186 52.6401259,38.7022125 L52.9316677,39.2976511 Z M52.3531395,37.6573459 C52.0794172,37.6565478 51.8422716,37.7539808 51.6521531,37.9421549 C51.4569434,38.1396976 51.3489551,38.3926486 51.34815,38.6563065 C51.3477492,38.9195629 51.4479667,39.1668928 51.6363434,39.3596174 C51.8272657,39.5518066 52.0778094,39.6594111 52.3318366,39.6598174 C52.6085065,39.6606157 52.8593182,39.5603721 53.0590832,39.3693874 C53.2474599,39.1881728 53.3527774,38.9407091 53.3527774,38.6770512 C53.3538405,38.3943885 53.2568386,38.1501368 53.0680599,37.9583491 C52.8735201,37.7624125 52.6299434,37.6581538 52.3531395,37.6573459 L52.3531395,37.6573459 Z" id="Fill-28" fill="#FEFEFE"></path>
                                <path d="M53.1787027,39.4931751 C52.9469163,39.7165482 52.6504173,39.8365995 52.3446736,39.8355359 C52.0323649,39.8351273 51.7364018,39.7073135 51.5119843,39.4789884 C51.2918542,39.2546784 51.1716736,38.9650562 51.1724735,38.6560277 C51.1728794,38.3436533 51.3006969,38.0447964 51.5289998,37.817542 C51.7511396,37.5973809 52.031561,37.4841552 52.3503008,37.484954 C52.672792,37.4858951 52.9650037,37.6066156 53.1921007,37.8378851 C53.4102211,38.0597861 53.5262483,38.3457947 53.5262483,38.6616488 C53.5250425,38.9866039 53.404058,39.2756907 53.1787027,39.4931751 L53.1787027,39.4931751 Z M50.8915203,41.1119278 C50.1476601,40.4778104 49.3239475,40.1602163 48.4085922,40.1579411 C46.6346894,40.153926 45.4235049,41.4034237 45.4190836,43.1979037 C45.4146622,44.9693637 46.6428622,46.2023995 48.2584,46.2064146 C49.2186388,46.2089575 50.0781242,45.8718233 50.8707533,45.1968858 L50.8667339,46.6753778 C50.1538232,47.1814136 49.3291727,47.4280743 48.3571437,47.4258147 C47.1146078,47.4224532 46.0536156,47.0022065 45.2648719,46.2214043 C44.4754584,45.4410036 44.0491322,44.3570617 44.0519319,43.1831816 C44.0547593,41.9984608 44.4868467,40.9387433 45.2903282,40.1505801 C46.0943457,39.3624169 47.1463612,38.948059 48.354598,38.9503249 C49.3266271,38.9528772 50.1736523,39.2367444 50.96253,39.7920321 L50.8915203,41.1119278 Z M52.8862229,36.9033048 L42.6596194,36.8790804 C42.4563709,37.2392344 42.090068,37.594838 41.5139515,37.6108984 C41.448435,37.7609291 41.4103845,37.925548 41.4099826,38.099937 L41.3851926,48.3374929 C41.3835884,49.0132334 41.9308991,49.5626322 42.6077689,49.5643721 L52.8563452,49.5891354 C53.5332151,49.5907379 54.0829374,49.0434804 54.0849471,48.3678738 L54.1092018,38.1303179 C54.1109394,37.4543097 53.5630928,36.9046432 52.8862229,36.9033048 L52.8862229,36.9033048 Z" id="Fill-30" fill="#FEFEFE"></path>
                                <path d="M52.3258755,38.1582092 L52.1533085,38.1578077 L52.1521027,38.5706933 L52.3380678,38.5706933 C52.5460056,38.5714963 52.6438115,38.5130098 52.6442146,38.3699385 C52.6446153,38.2207108 52.5410484,38.1586107 52.3258755,38.1582092" id="Fill-32" fill="#FEFEFE"></path>
                            </g>
                        </g>
                    </g>
                </g>
            </g>
        </g>
    </g>
</svg>