<?xml version="1.0" encoding="UTF-8"?>
<svg width="115px" height="20px" viewBox="0 0 115 20" version="1.1" xmlns="http://www.w3.org/2000/svg" xmlns:xlink="http://www.w3.org/1999/xlink">
    <!-- Generator: sketchtool 55.2 (78181) - https://sketchapp.com -->
    <title>46339876-F5C7-438D-BBB7-BFDF7DDBF0A1</title>
    <desc>Created with sketchtool.</desc>
    <g id="💎-VD---Homepage-and-PDP---Iteration-2" stroke="none" stroke-width="1" fill="none" fill-rule="evenodd">
        <g id="ELC---Chekout-Header-and-Footer---Large-1440px" transform="translate(-1216.000000, -511.000000)">
            <g id="Footer" transform="translate(0.000000, 389.000000)">
                <g id="Payment-logos" transform="translate(1005.000000, 119.000000)">
                    <g id="Card-networks/MC-Horizontal-Copy" transform="translate(211.000000, 3.000000)">
                        <g id="Card-networks/MC-Horizontal">
                            <g id="Group">
                                <polygon id="Fill-1" fill="#FF5F00" points="11.9320192 17.8199169 20.7458876 17.8199169 20.7458876 2.13717106 11.9320192 2.13717106"></polygon>
                                <path d="M12.4916305,9.97854431 C12.4916305,6.79689112 13.9961439,3.96321394 16.3389542,2.13717108 C14.625706,0.801508418 12.46365,0.0047098659 10.1138446,0.0047098659 C4.55103419,0.0047098659 0.0416909989,4.46994014 0.0416909989,9.97854431 C0.0416909989,15.4868714 4.55103419,19.9523788 10.1138446,19.9523788 C12.46365,19.9523788 14.625706,19.1555802 16.3389542,17.8199175 C13.9961439,15.9935976 12.4916305,13.1601975 12.4916305,9.97854431" id="Fill-2" fill="#EB001B"></path>
                                <path d="M32.3217155,16.1589959 L32.3217155,15.7716787 L32.2195866,15.7716787 L32.1023481,16.0379247 L31.9848299,15.7716787 L31.8827009,15.7716787 L31.8827009,16.1589959 L31.9548907,16.1589959 L31.9548907,15.8669843 L32.0648542,16.1185465 L32.1395623,16.1185465 L32.2498056,15.8661531 L32.2498056,16.1589959 L32.3217155,16.1589959 Z M31.675365,16.1589966 L31.675365,15.8378946 L31.8060341,15.8378946 L31.8060341,15.7722335 L31.4730657,15.7722335 L31.4730657,15.8378946 L31.6037348,15.8378946 L31.6037348,16.1589966 L31.675365,16.1589966 Z M32.6362175,9.97854431 C32.6362175,15.4868714 28.1268743,19.9523788 22.5640639,19.9523788 C20.2142585,19.9523788 18.0524823,19.1555802 16.3389542,17.8199175 C18.6817645,15.9935976 20.1862779,13.1601975 20.1862779,9.97854431 C20.1862779,6.79689112 18.6817645,3.96321394 16.3389542,2.13717108 C18.0524823,0.801508418 20.2142585,0.0047098659 22.5640639,0.0047098659 C28.1268743,0.0047098659 32.6362175,4.46994014 32.6362175,9.97854431 L32.6362175,9.97854431 Z" id="Fill-3" fill="#F79E1B"></path>
                            </g>
                            <path d="M52.7539409,10.0214869 C52.7539409,8.85593354 53.5248047,7.89872251 54.7861673,7.89872251 C55.991289,7.89872251 56.8041236,8.8143759 56.8041236,10.0214869 C56.8041236,11.2288749 55.991289,12.1448054 54.7861673,12.1448054 C53.5248047,12.1448054 52.7539409,11.1873173 52.7539409,10.0214869 Z M58.1776887,10.0214869 L58.1776887,6.70518702 L56.7201826,6.70518702 L56.7201826,7.51002003 C56.2576644,6.91325228 55.5570318,6.5386794 54.6037349,6.5386794 C52.7259612,6.5386794 51.2544648,7.99569034 51.2544648,10.0214869 C51.2544648,12.0475605 52.7259612,13.5048485 54.6037349,13.5048485 C55.5570318,13.5048485 56.2576644,13.1299985 56.7201826,12.5332308 L56.7201826,13.3380638 L58.1776887,13.3380638 L58.1776887,10.0214869 Z M107.396847,10.0214869 C107.396847,8.85593354 108.16771,7.89872251 109.428793,7.89872251 C110.634195,7.89872251 111.447029,8.8143759 111.447029,10.0214869 C111.447029,11.2288749 110.634195,12.1448054 109.428793,12.1448054 C108.16771,12.1448054 107.396847,11.1873173 107.396847,10.0214869 Z M114.45102,13.0233337 L114.45102,13.1275048 L114.547833,13.1275048 C114.569937,13.1275048 114.587845,13.123072 114.600996,13.1144834 C114.614147,13.1058949 114.620862,13.0925964 114.620862,13.0748652 C114.620862,13.057688 114.614147,13.0446666 114.600996,13.036078 C114.587845,13.0274895 114.569937,13.0233337 114.547833,13.0233337 L114.45102,13.0233337 Z M114.548951,12.9499155 C114.599596,12.9499155 114.638769,12.9609975 114.66619,12.9834386 C114.693611,13.0058798 114.707321,13.0363554 114.707321,13.0748655 C114.707321,13.1070034 114.696409,13.1338773 114.674304,13.1546561 C114.652479,13.175712 114.621421,13.1887334 114.581129,13.1934433 L114.710399,13.3408344 L114.609389,13.3408344 L114.489633,13.1945515 L114.451019,13.1945515 L114.451019,13.3408344 L114.366518,13.3408344 L114.366518,12.9499155 L114.548951,12.9499155 Z M114.523768,13.4752042 C114.569656,13.4752042 114.612467,13.4666156 114.652199,13.4494385 C114.691651,13.4319842 114.726347,13.408712 114.756287,13.3790675 C114.786226,13.3497001 114.80945,13.3147917 114.826518,13.2748964 C114.843586,13.235001 114.85198,13.1923352 114.85198,13.1468988 C114.85198,13.1017395 114.843586,13.0590737 114.826518,13.0191783 C114.80945,12.979283 114.786226,12.9443746 114.756287,12.9147301 C114.726347,12.8853627 114.691651,12.8620905 114.652199,12.8451903 C114.612467,12.8282902 114.569656,12.8199787 114.523768,12.8199787 C114.477321,12.8199787 114.433671,12.8282902 114.393099,12.8451903 C114.352527,12.8620905 114.317272,12.8853627 114.287333,12.9147301 C114.257394,12.9443746 114.23389,12.979283 114.216822,13.0191783 C114.200033,13.0590737 114.19136,13.1017395 114.19136,13.1468988 C114.19136,13.1923352 114.200033,13.235001 114.216822,13.2748964 C114.23389,13.3147917 114.257394,13.3497001 114.287333,13.3790675 C114.317272,13.408712 114.352527,13.4319842 114.393099,13.4494385 C114.433671,13.4666156 114.477321,13.4752042 114.523768,13.4752042 Z M114.52377,12.7260581 C114.583648,12.7260581 114.63961,12.7371402 114.692213,12.7590272 C114.744537,12.7811913 114.790425,12.8111128 114.829597,12.8493458 C114.86877,12.8875788 114.899828,12.9321841 114.922493,12.9834385 C114.944877,13.0346929 114.956349,13.0892719 114.956349,13.1468985 C114.956349,13.2048022 114.944877,13.2591042 114.922493,13.3100815 C114.899828,13.3607819 114.86877,13.4053871 114.829597,13.4436201 C114.790425,13.4818531 114.744537,13.5120517 114.692213,13.5344928 C114.63961,13.5569339 114.583648,13.568016 114.52377,13.568016 C114.462773,13.568016 114.405692,13.5569339 114.352529,13.5344928 C114.299366,13.5120517 114.253198,13.4818531 114.214305,13.4436201 C114.175412,13.4053871 114.144634,13.3607819 114.122249,13.3100815 C114.099585,13.2591042 114.088393,13.2048022 114.088393,13.1468985 C114.088393,13.0892719 114.099585,13.0346929 114.122249,12.9834385 C114.144634,12.9321841 114.175412,12.8875788 114.214305,12.8493458 C114.253198,12.8111128 114.299366,12.7811913 114.352529,12.7590272 C114.405692,12.7371402 114.462773,12.7260581 114.52377,12.7260581 Z M112.820594,10.0214867 L112.820594,4.04078811 L111.362808,4.04078811 L111.362808,7.51001997 C110.90029,6.91325225 110.199658,6.53867938 109.24664,6.53867938 C107.368867,6.53867938 105.89709,7.99569027 105.89709,10.0214867 C105.89709,12.0475603 107.368867,13.5048482 109.24664,13.5048482 C110.199658,13.5048482 110.90029,13.1299983 111.362808,12.5332306 L111.362808,13.3380635 L112.820594,13.3380635 L112.820594,10.0214867 Z M76.2564709,7.82918276 C77.1954977,7.82918276 77.7979186,8.4118209 77.9520914,9.43884877 L74.476629,9.43884877 C74.6308018,8.48136069 75.2192324,7.82918276 76.2564709,7.82918276 Z M76.2844513,6.5386794 C74.3224562,6.5386794 72.9491715,7.95385565 72.9491715,10.0214869 C72.9491715,12.1309528 74.3784172,13.5048485 76.382663,13.5048485 C77.3916411,13.5048485 78.3166776,13.2549485 79.1295121,12.5750655 L78.4146094,11.50648 C77.8541593,11.9503156 77.1392566,12.2002156 76.4666046,12.2002156 C75.5275778,12.2002156 74.6727725,11.7702325 74.4626386,10.576697 L79.4378576,10.576697 C79.4518479,10.3963368 79.4658381,10.2159767 79.4658381,10.0214869 C79.4518479,7.95385565 78.1625048,6.5386794 76.2844513,6.5386794 Z M93.872738,10.0214869 C93.872738,8.85593354 94.6436018,7.89872251 95.9049643,7.89872251 C97.110086,7.89872251 97.9229206,8.8143759 97.9229206,10.0214869 C97.9229206,11.2288749 97.110086,12.1448054 95.9049643,12.1448054 C94.6436018,12.1448054 93.872738,11.1873173 93.872738,10.0214869 Z M99.2964835,10.0214869 L99.2964835,6.70518702 L97.8389774,6.70518702 L97.8389774,7.51002003 C97.3764592,6.91325228 96.6758266,6.5386794 95.7225297,6.5386794 C93.844756,6.5386794 92.3732597,7.99569034 92.3732597,10.0214869 C92.3732597,12.0475605 93.844756,13.5048485 95.7225297,13.5048485 C96.6758266,13.5048485 97.3764592,13.1299985 97.8389774,12.5332308 L97.8389774,13.3380638 L99.2964835,13.3380638 L99.2964835,10.0214869 Z M85.6461815,10.0214869 C85.6461815,12.0337079 87.0617168,13.5048485 89.2201353,13.5048485 C90.2291134,13.5048485 90.9014857,13.2826536 91.6303786,12.713591 L90.929746,11.5480376 C90.3832862,11.9367401 89.808566,12.1448054 89.1778847,12.1448054 C88.0147338,12.1309528 87.1599285,11.2981377 87.1599285,10.0214869 C87.1599285,8.74511316 88.0147338,7.91229801 89.1778847,7.89872251 C89.808566,7.89872251 90.3832862,8.10651072 90.929746,8.4952132 L91.6303786,7.32965986 C90.9014857,6.76059721 90.2291134,6.5386794 89.2201353,6.5386794 C87.0617168,6.5386794 85.6461815,8.00954289 85.6461815,10.0214869 Z M104.425596,6.5386794 C103.584781,6.5386794 103.038321,6.92710483 102.660024,7.51002004 L102.660024,6.70518702 L101.216509,6.70518702 L101.216509,13.3380639 L102.673735,13.3380639 L102.673735,9.61920896 C102.673735,8.52291833 103.150523,7.91229803 104.10326,7.91229803 C104.397616,7.91229803 104.705961,7.95385567 105.014307,8.07880565 L105.462835,6.71903957 C105.140499,6.59408959 104.719951,6.5386794 104.425596,6.5386794 Z M65.3812782,7.23241497 C64.6803657,6.77444975 63.7133584,6.5386794 62.6484192,6.5386794 C60.952519,6.5386794 59.8593194,7.3435124 59.8593194,8.66172082 C59.8593194,9.74415889 60.672154,10.4101894 62.1716309,10.6182546 L62.8585531,10.7154995 C63.6573974,10.8263199 64.0356942,11.0346622 64.0356942,11.4092351 C64.0356942,11.9228876 63.5032246,12.2140681 62.5082368,12.2140681 C61.4989788,12.2140681 60.7703657,11.8949054 60.2798669,11.5203325 L59.5932245,12.6443282 C60.391789,13.2272434 61.401047,13.5048485 62.4939667,13.5048485 C64.4279813,13.5048485 65.5491614,12.6024935 65.5491614,11.3399724 C65.5491614,10.174142 64.6663755,9.56379872 63.2088694,9.3554564 L62.522227,9.25848857 C61.8915458,9.17509623 61.3870567,9.05042331 61.3870567,8.60631063 C61.3870567,8.12064032 61.8632854,7.82918272 62.6624095,7.82918272 C63.5172149,7.82918272 64.3440397,8.14834541 64.7505969,8.39824537 L65.3812782,7.23241497 Z M84.1746849,6.5386794 C83.3338698,6.5386794 82.7871302,6.92710483 82.4088333,7.51002004 L82.4088333,6.70518702 L80.9653176,6.70518702 L80.9653176,13.3380639 L82.4228236,13.3380639 L82.4228236,9.61920896 C82.4228236,8.52291833 82.8993321,7.91229803 83.8523491,7.91229803 C84.1467043,7.91229803 84.4550498,7.95385567 84.7633953,8.07880565 L85.2116435,6.71903957 C84.8893077,6.59408959 84.4690401,6.5386794 84.1746849,6.5386794 Z M71.7437707,6.70518711 L69.3612281,6.70518711 L69.3612281,4.69296605 L67.8897317,4.69296605 L67.8897317,6.70518711 L66.5301575,6.70518711 L66.5301575,8.02339554 L67.8897317,8.02339554 L67.8897317,11.0485149 C67.8897317,12.5889182 68.4924325,13.5048486 70.2160334,13.5048486 C70.8467147,13.5048486 71.5756077,13.3103588 72.0378461,12.9911962 L71.6175785,11.756103 C71.1830407,12.006003 70.7065322,12.1309529 70.3282354,12.1309529 C69.5993424,12.1309529 69.3612281,11.6868403 69.3612281,11.0208098 L69.3612281,8.02339554 L71.7437707,8.02339554 L71.7437707,6.70518711 Z M49.9651213,13.3380636 L49.9651213,9.17509615 C49.9651213,7.60698781 48.9561432,6.55253191 47.3304741,6.53867936 C46.4756687,6.52482682 45.592603,6.78830227 44.975912,7.71808524 C44.5133938,6.98279203 43.7845008,6.53867936 42.7615325,6.53867936 C42.0469096,6.53867936 41.346277,6.74674462 40.7995373,7.52387252 L40.7995373,6.70518698 L39.3420312,6.70518698 L39.3420312,13.3380636 L40.8135276,13.3380636 L40.8135276,9.66076646 C40.8135276,8.50906568 41.4581991,7.89872245 42.453187,7.89872245 C43.4201943,7.89872245 43.9109729,8.52291823 43.9109729,9.64691391 L43.9109729,13.3380636 L45.3824692,13.3380636 L45.3824692,9.66076646 C45.3824692,8.50906568 46.0551213,7.89872245 47.0221286,7.89872245 C48.0171164,7.89872245 48.4936249,8.52291823 48.4936249,9.64691391 L48.4936249,13.3380636 L49.9651213,13.3380636 L49.9651213,13.3380636 Z" id="Fill-4" fill="#000000"></path>
                        </g>
                    </g>
                </g>
            </g>
        </g>
    </g>
</svg>