<?xml version="1.0" encoding="UTF-8"?>
<svg width="75px" height="18px" viewBox="0 0 75 18" version="1.1" xmlns="http://www.w3.org/2000/svg" xmlns:xlink="http://www.w3.org/1999/xlink">
    <!-- Generator: sketchtool 55.2 (78181) - https://sketchapp.com -->
    <title>0E062859-79D5-49AB-8F69-7F08FC665EA1</title>
    <desc>Created with sketchtool.</desc>
    <defs>
        <polygon id="path-1" points="74.6019194 17.9595922 74.6019194 0.148937626 0.011061586 0.148937626 0.011061586 17.9595922"></polygon>
    </defs>
    <g id="💎-VD---Homepage-and-PDP---Iteration-2" stroke="none" stroke-width="1" fill="none" fill-rule="evenodd">
        <g id="ELC---Chekout-Header-and-Footer---Large-1440px" transform="translate(-1005.000000, -512.000000)">
            <g id="Footer" transform="translate(0.000000, 389.000000)">
                <g id="Payment-logos" transform="translate(1005.000000, 119.000000)">
                    <g id="Card-networks/MC-Horizontal-Copy-2" transform="translate(0.000000, 4.000000)">
                        <g id="PayPal/PayPal-FullColor-Horizontal">
                            <g id="PayPal-FullColor-Horizontal">
                                <path d="M72.0273386,4.41606418 L70.343765,14.9552606 C70.3111334,15.1595283 70.4715264,15.3440223 70.6815122,15.3440223 L72.3748568,15.3440223 C72.655268,15.3440223 72.8940139,15.1432014 72.9377072,14.8707236 L74.5976826,4.52073776 C74.6304987,4.31647008 74.4701057,4.13179468 74.2599355,4.13179468 L72.3650857,4.13179468 C72.1967652,4.13179468 72.0535177,4.25243235 72.0273386,4.41606418" id="Fill-7" fill="#009CDE"></path>
                                <path d="M66.9747727,11.6274748 C66.7850665,12.731899 65.8942401,13.4733217 64.7578465,13.4733217 C64.1879904,13.4733217 63.7320687,13.2930002 63.4387523,12.9515865 C63.1482013,12.6130754 63.0388759,12.1308876 63.1310558,11.593914 C63.3078568,10.4994673 64.2130633,9.73409848 65.3323115,9.73409848 C65.8899998,9.73409848 66.3429718,9.91623413 66.641819,10.2607318 C66.9426941,10.6077691 67.0608687,11.0932223 66.9747727,11.6274748 L66.9747727,11.6274748 Z M69.7121468,7.86557535 L67.7479778,7.86557535 C67.5796573,7.86557535 67.4364098,7.9858502 67.4102307,8.14966344 L67.3237659,8.69008388 L67.1866023,8.49416106 C66.7610999,7.88661892 65.8131219,7.68362111 64.8664345,7.68362111 C62.6965199,7.68362111 60.842598,9.30179846 60.481806,11.5714192 C60.2941277,12.7035991 60.5607119,13.7855284 61.2129768,14.5407383 C61.8125148,15.2346317 62.6677598,15.5234364 63.6869007,15.5234364 C65.4361062,15.5234364 66.4062073,14.4177424 66.4062073,14.4177424 L66.3186365,14.9548974 C66.2856361,15.1591651 66.4460291,15.3440219 66.6563836,15.3440219 L68.4251312,15.3440219 C68.7055425,15.3440219 68.9442884,15.1433824 68.988166,14.8707232 L70.0498939,8.25433702 C70.08271,8.05006934 69.922317,7.86557535 69.7121468,7.86557535 L69.7121468,7.86557535 Z" id="Fill-4" fill="#009CDE"></path>
                                <path d="M57.9251037,7.91183519 C57.7009222,9.36075693 56.5763276,9.36075693 55.4886049,9.36075693 L54.8697092,9.36075693 L55.3038764,6.65557087 C55.3300555,6.49212046 55.4733031,6.37166421 55.6416235,6.37166421 L55.9253532,6.37166421 C56.6655577,6.37166421 57.3650187,6.37166421 57.7256264,6.78673031 C57.9413273,7.03508061 58.0065907,7.40316152 57.9251037,7.91183519 L57.9251037,7.91183519 Z M57.4516681,4.13179468 L53.3494786,4.13179468 C53.0690674,4.13179468 52.8303215,4.33261558 52.7866282,4.60527483 L51.1279433,14.9552606 C51.0951273,15.1593469 51.2555203,15.3440223 51.4656904,15.3440223 L53.5703417,15.3440223 C53.7666848,15.3440223 53.9338991,15.2034296 53.9643185,15.0125862 L54.4348047,12.0784606 C54.4784979,11.8058013 54.7172438,11.6049804 54.9976551,11.6049804 L56.2957323,11.6049804 C58.9977092,11.6049804 60.5570242,10.3182392 60.9646437,7.76815851 C61.1480817,6.65284972 60.9720181,5.77645792 60.4412463,5.16292923 C59.8579319,4.48844678 58.8240423,4.13179468 57.4516681,4.13179468 L57.4516681,4.13179468 Z" id="Fill-1" fill="#009CDE"></path>
                                <path d="M50.9164815,7.8655753 L48.9421727,7.8655753 C48.7533883,7.8655753 48.5767716,7.95773159 48.4707648,8.11138588 L45.7474022,12.0583238 L44.5931257,8.2655844 C44.521041,8.02830009 44.2990718,7.8655753 44.0472364,7.8655753 L42.1064811,7.8655753 C41.8721598,7.8655753 41.7071578,8.09233783 41.7827453,8.31057409 L43.9567157,14.5895379 L41.9119815,17.4286048 C41.7514041,17.6513763 41.9134564,17.9595919 42.1909178,17.9595919 L44.163383,17.9595919 C44.3503239,17.9595919 44.5252813,17.8694311 44.6318412,17.7181351 L51.1976301,8.39384129 C51.3547047,8.17070696 51.1924681,7.8655753 50.9164815,7.8655753" id="Fill-5" fill="#003087"></path>
                                <path d="M37.7176126,11.6274748 C37.5279064,12.731899 36.6368956,13.4733217 35.500502,13.4733217 C34.9308303,13.4733217 34.4747242,13.2930002 34.1815922,12.9515865 C33.8910412,12.6130754 33.7817158,12.1308876 33.8737113,11.593914 C34.0506967,10.4994673 34.9559032,9.73409848 36.074967,9.73409848 C36.6328397,9.73409848 37.0856273,9.91623413 37.3846588,10.2607318 C37.685534,10.6077691 37.8037086,11.0932223 37.7176126,11.6274748 L37.7176126,11.6274748 Z M40.4549864,7.86557535 L38.4908174,7.86557535 C38.322497,7.86557535 38.1792494,7.9858502 38.1530704,8.14966344 L38.0666056,8.69008388 L37.9292576,8.49416106 C37.5039396,7.88661892 36.5559617,7.68362111 35.6092743,7.68362111 C33.4391754,7.68362111 31.585438,9.30179846 31.2246459,11.5714192 C31.0367833,12.7035991 31.3033675,13.7855284 31.9558167,14.5407383 C32.5551703,15.2346317 33.4105997,15.5234364 34.4297405,15.5234364 C36.1789459,15.5234364 37.1490471,14.4177424 37.1490471,14.4177424 L37.0612918,14.9548974 C37.0284758,15.1591651 37.1888688,15.3440219 37.3990389,15.3440219 L39.1679709,15.3440219 C39.4483821,15.3440219 39.687128,15.1433824 39.7308213,14.8707232 L40.7927335,8.25433702 C40.8255496,8.05006934 40.6651566,7.86557535 40.4549864,7.86557535 L40.4549864,7.86557535 Z" id="Fill-3" fill="#003087"></path>
                                <path d="M28.6677602,7.91183519 C28.4435788,9.36075693 27.3189841,9.36075693 26.2314458,9.36075693 L25.61255,9.36075693 L26.0465329,6.65557087 C26.0728964,6.49212046 26.2161439,6.37166421 26.38428,6.37166421 L26.6680097,6.37166421 C27.4083986,6.37166421 28.1078596,6.37166421 28.468283,6.78673031 C28.6841683,7.03508061 28.7494316,7.40316152 28.6677602,7.91183519 L28.6677602,7.91183519 Z M28.1945087,4.13179468 L24.0923193,4.13179468 C23.8119081,4.13179468 23.5731622,4.33261558 23.5294689,4.60527483 L21.8705996,14.9552606 C21.8379679,15.1593469 21.9983609,15.3440223 22.2083467,15.3440223 L24.166985,15.3440223 C24.4473962,15.3440223 24.6863265,15.1432014 24.7300198,14.8707236 L25.1776453,12.0784606 C25.2211542,11.8058013 25.4600845,11.6049804 25.7404957,11.6049804 L27.0385729,11.6049804 C29.7403654,11.6049804 31.2998648,10.3182392 31.7074843,7.76815851 C31.8909222,6.65284972 31.7148586,5.77645792 31.1840868,5.16292923 C30.6005881,4.48844678 29.5666985,4.13179468 28.1945087,4.13179468 L28.1945087,4.13179468 Z" id="Fill-2" fill="#003087"></path>
                                <g id="Monogram">
                                    <mask id="mask-2" fill="white">
                                        <use xlink:href="#path-1"></use>
                                    </mask>
                                    <g id="Clip-6"></g>
                                    <path d="M13.82348,4.67384781 C14.044343,3.28841947 13.8220051,2.34563158 13.0604149,1.49173461 C12.2219467,0.551667875 10.7072468,0.148937626 8.76925687,0.148937626 L3.14351846,0.148937626 C2.74751367,0.148937626 2.41031965,0.43248149 2.34855912,0.817433557 L0.00608387245,15.4341833 C-0.0401904301,15.7226252 0.186387729,15.9833114 0.4830226,15.9833114 L3.95599197,15.9833114 L3.71632427,17.479037 C3.67594948,17.7313784 3.87395187,17.9595922 4.13353043,17.9595922 L7.06079487,17.9595922 C7.40739124,17.9595922 7.70236688,17.7114233 7.75638429,17.3747263 L7.78514441,17.2283284 L8.33656449,13.7873431 L8.37214592,13.5972254 C8.42616334,13.260347 8.72113897,13.0123595 9.06755098,13.0123595 L9.50540544,13.0123595 C12.3414118,13.0123595 14.5620252,11.8785468 15.2107873,8.59974209 C15.4819805,7.22973361 15.3418671,6.08612483 14.6248919,5.28211561 C14.4079005,5.03902618 14.1381821,4.83784247 13.82348,4.67384781" id="Fill-8" fill="#009CDE" mask="url(#mask-2)"></path>
                                    <path d="M13.8234796,4.6738476 C14.0443426,3.28841932 13.8220047,2.34563148 13.0604145,1.49173455 C12.2219463,0.551667856 10.7072465,0.148937626 8.76925663,0.148937626 L3.14351837,0.148937626 C2.74751359,0.148937626 2.41031958,0.432481477 2.34855906,0.817433526 L0.00608387228,15.4341826 C-0.040190429,15.7226245 0.186387724,15.9833107 0.483022587,15.9833107 L3.95599186,15.9833107 L4.82838227,10.5399218 L4.80128139,10.7106286 C4.86304191,10.3256766 5.19747053,10.0419513 5.5934753,10.0419513 L7.24423265,10.0419513 C10.4860148,10.0419513 13.02428,8.74595817 13.7659594,4.99802729 C13.7878982,4.88718577 13.8067029,4.77960963 13.8234796,4.6738476" id="Fill-9" fill="#012169" mask="url(#mask-2)"></path>
                                    <path d="M5.76548296,4.69235142 C5.80272364,4.46069083 5.95371429,4.27111736 6.15706311,4.17515147 C6.24961171,4.13161306 6.35285318,4.10730412 6.46107236,4.10730412 L10.8707736,4.10730412 C11.3932492,4.10730412 11.8803277,4.14104639 12.3255565,4.21161488 C12.4529491,4.23175139 12.5766545,4.25497187 12.6970415,4.28127633 C12.817244,4.30739937 12.9341281,4.33678779 13.0471406,4.36944159 C13.1037391,4.38558708 13.1592314,4.40263962 13.2139862,4.42059922 C13.4326369,4.49189335 13.6361701,4.57624901 13.8234796,4.6738476 C14.0443426,3.28841932 13.8220047,2.34563148 13.0604145,1.49173455 C12.2219463,0.551667856 10.7072465,0.148937626 8.76925663,0.148937626 L3.14351837,0.148937626 C2.74751359,0.148937626 2.41031958,0.432481477 2.34855906,0.817433526 L0.00608387228,15.4341826 C-0.040190429,15.7226245 0.186387724,15.9833107 0.483022587,15.9833107 L3.95599186,15.9833107 L5.76548296,4.69235142" id="Fill-10" fill="#003087" mask="url(#mask-2)"></path>
                                </g>
                            </g>
                        </g>
                    </g>
                </g>
            </g>
        </g>
    </g>
</svg>