<?xml version="1.0" encoding="UTF-8"?>
<svg width="14px" height="18px" viewBox="0 0 14 18" version="1.1" xmlns="http://www.w3.org/2000/svg" xmlns:xlink="http://www.w3.org/1999/xlink">
    <!-- Generator: sketchtool 55.1 (78136) - https://sketchapp.com -->
    <title>EF1AAC87-533C-4735-A508-900CDB4BEA25</title>
    <desc>Created with sketchtool.</desc>
    <g id="-" stroke="none" stroke-width="1" fill="none" fill-rule="evenodd">
        <g id="ELC---Homepage---Large-1440px---Option-1" transform="translate(-1082.000000, -11.000000)" fill="#4F4F4F" fill-rule="nonzero">
            <g id="Desktop/Global/Header/ELC">
                <g id="Global/Components/Header-Icons/1" transform="translate(1082.000000, 10.000000)">
                    <g id="Group-2">
                        <g transform="translate(0.000000, 0.933594)">
                            <g id="Icons/Store-Locator-3" transform="translate(0.000000, 0.066406)">
                                <g id="Group-2">
                                    <g id="Group">
                                        <path d="M7.0245614,0 C10.8561404,0 14,2.87999989 14,6.43499975 C14,9.44999964 9.38245614,15.3899994 7.36842105,17.8199993 C7.17192982,18.0449993 6.82807018,18.0449993 6.63157895,17.8199993 C4.61754386,15.5699994 0,9.31499964 0,6.43499975 C0,2.87999989 3.14385965,0 7.0245614,0 Z M7.0245614,0.9 C3.68421053,0.9 0.98245614,3.37499995 0.98245614,6.43499988 C0.98245614,9.08999982 5.25614035,14.6249997 7.0245614,16.7849997 C8.74385965,14.6249997 13.0175439,9.08999982 13.0175439,6.43499988 C13.0175439,3.37499995 10.3157895,0.9 7.0245614,0.9 Z" id="Shape"></path>
                                        <path d="M7.0245614,3.46499991 C8.79298246,3.46499991 10.2175439,4.76999995 10.2175439,6.435 C10.2175439,10.2600001 3.78245614,10.2600001 3.78245614,6.435 C3.78245614,4.76999995 5.20701754,3.46499991 7.0245614,3.46499991 Z M7.0245614,4.36499991 C5.74736842,4.36499991 4.76491228,5.26499995 4.76491228,6.435 C4.76491228,7.56000005 5.74736842,8.46000009 7.0245614,8.46000009 C8.25263158,8.46000009 9.23508772,7.56000005 9.23508772,6.435 C9.23508772,5.26499995 8.25263158,4.36499991 7.0245614,4.36499991 Z" id="Shape"></path>
                                    </g>
                                </g>
                            </g>
                        </g>
                    </g>
                </g>
            </g>
        </g>
    </g>
</svg>