<?xml version="1.0" encoding="UTF-8"?>
<svg width="56px" height="29px" viewBox="0 0 56 29" version="1.1" xmlns="http://www.w3.org/2000/svg" xmlns:xlink="http://www.w3.org/1999/xlink">
    <!-- Generator: sketchtool 55.2 (78181) - https://sketchapp.com -->
    <title>4069E3BB-D10B-4907-B168-3AF64EBD159A</title>
    <desc>Created with sketchtool.</desc>
    <g id="💎-VD---Homepage-and-PDP---Iteration-2" stroke="none" stroke-width="1" fill="none" fill-rule="evenodd">
        <g id="ELC---Chekout-Header-and-Footer---Large-1440px" transform="translate(-1120.000000, -505.000000)">
            <g id="Footer" transform="translate(0.000000, 389.000000)">
                <g id="Payment-logos" transform="translate(1005.000000, 119.000000)">
                    <g id="Card-networks/MC-Horizontal-Copy-3" transform="translate(115.000000, 0.000000)">
                        <g id="VeriSign-light" transform="translate(0.000000, -2.857143)">
                            <path d="M19.363887,7.31473943 L45.7404168,7.31473943 C48.3900574,7.31852959 50.593964,8.18560345 52.455691,9.96377544 C54.2873085,11.7224135 55.1829973,13.8169187 55.2108556,16.3732414 L55.5887727,16.3697428 L55.2108556,16.3659526 C55.1829973,18.8695045 54.2889969,20.9403941 52.454284,22.7267295 L52.455691,22.7249802 C50.592557,24.5043184 48.3872434,25.3958825 45.7404168,25.3990896 L19.363887,25.3990896 C19.1550899,25.3990896 18.9859699,25.574312 18.9859699,25.7906431 C18.9859699,26.0066827 19.1550899,26.1819051 19.363887,26.1819051 L45.7404168,26.1819051 C48.5535494,26.1854037 50.980323,25.2081234 52.9689604,23.2999195 L52.9703673,23.2981702 C54.9384627,21.3969635 55.9461478,19.0727158 55.9669712,16.3732414 L55.9669712,16.3659526 C55.9461478,13.6186638 54.9401511,11.2678848 52.968679,9.38854453 C50.978916,7.47946597 48.5510168,6.5284253 45.7404168,6.53192392 L19.363887,6.53192392 C19.1550899,6.53192392 18.9859699,6.70714631 18.9859699,6.9231859 C18.9859699,7.13951704 19.1550899,7.31473943 19.363887,7.31473943 L19.363887,7.31473943 Z" id="Path" fill="#B6004F"></path>
                            <path d="M17.0234376,7.10014583 C18.5351562,8.00947529 19.7294477,9.24708464 20.6068748,10.787901 C21.4848648,12.3537902 21.9235784,14.0963559 21.9480608,15.990525 C21.9235784,17.9103501 21.4848648,19.6526242 20.6068748,21.1934405 C19.7294477,22.7342569 18.5351562,23.9715747 17.0234376,24.9065601 C15.5362013,25.8153065 13.8787139,26.270117 12.0017289,26.2954814 C10.173146,26.270117 8.49117607,25.8153065 7.00393985,24.9065601 C5.49250263,23.9715747 4.29792974,22.7342569 3.44470359,21.1934405 C2.54279402,19.6526242 2.10408045,17.935423 2.07959803,15.990525 C2.10408045,14.0963559 2.54279402,12.3537902 3.44470359,10.787901 C4.29792974,9.24708464 5.49250263,8.00947529 7.00393985,7.10014583 C8.49117607,6.19110791 10.173146,5.71093298 12.0017289,5.68586009 C13.8545129,5.71093298 15.5362013,6.19110791 17.0234376,7.10014583 M12.0017291,3.58965022 C9.78311598,3.61501465 7.75979931,4.17040822 5.95569874,5.28177846 C4.17608057,6.39314869 2.76201016,7.88323612 1.66508549,9.7266763 C0.592361832,11.596064 0.0562814084,13.6922739 0.0317989953,15.9905245 C0.0562814084,18.2890667 0.592361832,20.3852766 1.66508549,22.2540812 C2.76201016,24.1231774 4.17608057,25.6135564 5.95569874,26.7499995 C7.75979931,27.8362968 9.78311598,28.3913988 12.0017291,28.4421277 C14.2445433,28.4170548 16.26786,27.8613697 18.0719605,26.7499995 C19.8757797,25.6135564 21.3140511,24.1231774 22.3867748,22.2540812 C23.435016,20.3852766 23.9955789,18.2890667 24.0203427,15.9905245 C23.9955789,13.6922739 23.4594985,11.596064 22.3867748,9.7266763 C21.3140511,7.88323612 19.8757797,6.39314869 18.0719605,5.28177846 C16.26786,4.17040822 14.2445433,3.61501465 12.0017291,3.58965022" id="Fill-2" fill="#B6004F"></path>
                            <polyline id="Fill-3" fill="#B6004F" points="27.0432171 12.4042279 27.8719608 12.4042279 28.749388 14.904228 29.6518603 12.4042279 30.4561216 12.4042279 29.0910161 15.9654525 28.432805 15.9654525 27.0432171 12.4042279"></polyline>
                            <path d="M36.5750347,13.2374633 L37.330894,13.2374633 L37.330894,15.9400873 L36.5750347,15.9400873 L36.5750347,13.2374633 Z M36.5505528,12.2523321 L37.3306132,12.2523321 L37.3306132,12.9345479 L36.5505528,12.9345479 L36.5505528,12.2523321 Z M34.2103718,13.2374633 L34.9417487,13.2374633 L34.9417487,13.7683671 C35.0149145,13.5913992 35.1367638,13.4397957 35.2583316,13.3386295 C35.3804623,13.2123904 35.5509949,13.1619531 35.7707738,13.187026 L35.7707738,13.9954808 L35.7462914,13.9954808 C35.4778291,13.9954808 35.282814,14.0712825 35.1612462,14.222886 C35.0149145,14.374198 34.9417487,14.6269677 34.9417487,14.954956 L34.9417487,15.9400872 L34.2103718,15.9400872 L34.2103718,13.2374633 L34.2103718,13.2374633 Z M32.6257686,14.3741981 C32.6012862,14.1972301 32.5526028,14.0712826 32.4546731,13.9450435 C32.3575877,13.8438774 32.235457,13.79344 32.0894068,13.79344 C31.9188741,13.79344 31.7970249,13.8438774 31.6993766,13.9450435 C31.6017284,14.0712826 31.5285626,14.1972301 31.504643,14.3741981 L32.6257686,14.3741981 L32.6257686,14.3741981 Z M32.1380902,16.0161806 C31.9675575,16.0161806 31.7722611,15.9654517 31.6017284,15.88965 C31.4311957,15.8392127 31.2848641,15.7380465 31.1630148,15.6118074 C31.0411656,15.4855683 30.9679998,15.3590377 30.8951153,15.1823613 C30.8216681,15.005685 30.7729847,14.8039357 30.7729847,14.6013118 C30.7729847,14.399854 30.7971857,14.2228861 30.8703515,14.0456266 C30.9435174,13.8686587 31.0166832,13.7176383 31.1388138,13.5913992 C31.2603817,13.4648686 31.3822309,13.363994 31.553045,13.2879007 C31.723859,13.2123905 31.8941103,13.187026 32.0894068,13.187026 C32.3089043,13.187026 32.4794369,13.2374634 32.6499696,13.3135567 C32.8207837,13.3890669 32.9426329,13.4905246 33.0402811,13.641545 C33.137648,13.7683672 33.2105324,13.9193876 33.2839796,14.0963555 C33.332663,14.2730319 33.3574269,14.4750727 33.3574269,14.6520406 L33.332663,14.7532068 L33.332663,14.8540815 L31.5285626,14.8540815 C31.553045,15.0310494 31.6259294,15.1572885 31.7480601,15.2584546 C31.8699093,15.3339648 31.9917585,15.3846937 32.1622912,15.3846937 C32.2844219,15.3846937 32.3817887,15.3590377 32.5036379,15.3086004 C32.5770852,15.2835275 32.674452,15.2077258 32.7960198,15.1065596 L33.2105324,15.4855683 C33.0889646,15.6625363 32.9426329,15.7884838 32.7718188,15.8642856 C32.6012862,15.9654517 32.3817887,16.0161806 32.1380902,16.0161806 L32.1380902,16.0161806 Z" id="Fill-4" fill="#B6004F"></path>
                            <path d="M39.6223908,15.9905243 C39.3542099,15.9905243 39.11023,15.940087 38.8423305,15.8392123 C38.598632,15.7634106 38.3791346,15.6118071 38.1596371,15.4097663 L38.6225516,14.8794455 C38.7688833,15.0056846 38.915215,15.1065592 39.086029,15.182361 C39.2565617,15.2584543 39.4273758,15.3086001 39.6223908,15.3086001 C39.7929235,15.3086001 39.9147727,15.2835272 39.9879386,15.2077254 C40.0611044,15.1572881 40.1097878,15.0811948 40.1097878,14.9806117 L40.1097878,14.8287167 L39.9879386,14.727842 L39.7929235,14.6269674 L39.4273758,14.5001452 L38.9638984,14.3741977 L38.598632,14.1721569 L38.3791346,13.8686583 C38.3301697,13.7427108 38.3056873,13.6164717 38.3056873,13.4397953 L38.3056873,13.4144309 L38.3791346,12.9849848 C38.4523004,12.8590373 38.5254662,12.7327982 38.6470341,12.6567049 C38.7446823,12.5555387 38.8668129,12.4800285 39.0128632,12.4292997 C39.1591949,12.3788624 39.3294461,12.3537895 39.5005416,12.3537895 C39.7442401,12.3537895 39.9637376,12.4042268 40.1829536,12.4800285 C40.4024511,12.5555387 40.5974662,12.6567049 40.7679989,12.8083084 L40.3782501,13.3890665 L39.9147727,13.1368799 C39.7687225,13.0607866 39.6223908,13.0357137 39.4763406,13.0357137 C39.3294461,13.0357137 39.2320793,13.0607866 39.1591949,13.1368799 C39.086029,13.1870256 39.0370642,13.2628274 39.0370642,13.3386292 L39.0370642,13.3639936 L39.086029,13.5153055 L39.1836773,13.6164717 L39.4273758,13.7176379 L39.7929235,13.8185126 L40.2561195,13.9954805 C40.3782501,14.0456263 40.499818,14.1220111 40.5974662,14.1972298 L40.7924813,14.4750723 C40.8411647,14.6013114 40.8656471,14.727842 40.8656471,14.8794455 L40.8656471,14.9042269 C40.8656471,15.0811948 40.8411647,15.2327983 40.7679989,15.3590374 C40.7193154,15.485568 40.646431,15.6118071 40.5243004,15.7126817 C40.4024511,15.7884835 40.2806019,15.8642852 40.1097878,15.9147225 C39.9637376,15.9654514 39.7929235,15.9905243 39.6223908,15.9905243" id="Fill-5" fill="#B6004F"></path>
                            <path d="M41.81624,13.2374633 L42.5720993,13.2374633 L42.5720993,15.9400873 L41.81624,15.9400873 L41.81624,13.2374633 Z M41.7917576,12.2523321 L42.5718179,12.2523321 L42.5718179,12.9345479 L41.7917576,12.9345479 L41.7917576,12.2523321 Z" id="Fill-6" fill="#B6004F"></path>
                            <path d="M47.2769442,13.2374629 L48.0086025,13.2374629 L48.0086025,13.6164717 L48.1546528,13.4648682 L48.3251854,13.3135562 L48.5202005,13.21239 L48.7644618,13.1870256 C49.0568437,13.1870256 49.2760598,13.2879003 49.4223915,13.4648682 C49.5932056,13.6415446 49.6663714,13.8686583 49.6663714,14.1972297 L49.6663714,15.9400868 L48.9105121,15.9400868 L48.9105121,14.4249265 C48.9105121,14.2479586 48.8860297,14.122011 48.8131452,14.0205533 C48.739698,13.9450431 48.6181302,13.8943142 48.4715171,13.8943142 C48.3251854,13.8943142 48.2036176,13.9450431 48.1301704,14.0205533 C48.0570045,14.122011 48.0086025,14.2479586 48.0086025,14.4249265 L48.0086025,15.9400868 L47.2769442,15.9400868 L47.2769442,13.2374629 L47.2769442,13.2374629 Z M44.9367633,15.0811948 L45.2049442,15.031049 C45.2781101,15.0056846 45.3270749,14.9806117 45.3999593,14.9042268 C45.4486427,14.8540811 45.4973262,14.7782793 45.5218086,14.7027691 C45.546291,14.6269673 45.5707734,14.5508741 45.5707734,14.4499994 L45.5218086,14.1972297 C45.4973262,14.1220111 45.4486427,14.0456262 45.3999593,13.9954805 L45.2049442,13.8686583 L44.9367633,13.8185125 L44.6930648,13.8686583 L44.4980498,13.9954805 C44.4248839,14.0456262 44.3762005,14.1220111 44.3519995,14.1972297 L44.3030347,14.4499994 C44.3030347,14.6520402 44.3762005,14.8039353 44.4980498,14.9042268 C44.6196176,15.031049 44.7662307,15.0811948 44.9367633,15.0811948 L44.9367633,15.0811948 Z M44.8635976,16.7485418 L44.2540699,16.6724485 C44.0348538,16.6473756 43.8640397,16.5712823 43.6935071,16.4704076 L43.961688,15.8896496 L44.3762006,16.0913989 L44.8391151,16.1421278 C45.0828136,16.1421278 45.2781101,16.0913989 45.3999594,15.9654514 C45.5218086,15.8392123 45.5707735,15.6625359 45.5707735,15.4097662 L45.5707735,15.2835271 C45.4731252,15.4097662 45.3509946,15.5357137 45.2291453,15.611807 C45.1072961,15.6876088 44.9367634,15.7126817 44.7175473,15.7126817 C44.5709342,15.7126817 44.424884,15.6876088 44.2785523,15.6371715 C44.1567031,15.5864426 44.0348538,15.5106408 43.9127232,15.3846933 C43.8153563,15.2835271 43.7424719,15.1572881 43.6690247,15.0056846 C43.5958588,14.8287166 43.5713764,14.6520402 43.5713764,14.4499994 C43.5713764,14.2479586 43.5958588,14.0712822 43.6690247,13.9193872 C43.7424719,13.7427108 43.8153563,13.6164717 43.9127232,13.5153055 C44.0348538,13.3890664 44.1567031,13.3135562 44.3030347,13.2628274 L44.7175473,13.1870256 C44.9367634,13.1870256 45.1072961,13.2374629 45.2291453,13.3135562 C45.3509946,13.3890664 45.4731252,13.4648682 45.5707735,13.5913988 L45.5707735,13.2374629 L46.3021504,13.2374629 L46.3021504,15.3339645 C46.3021504,15.8135563 46.2042207,16.1672006 45.985286,16.3943143 C45.8631554,16.5211365 45.6923413,16.6220111 45.5218086,16.6724485 L44.8635976,16.7485418 L44.8635976,16.7485418 Z" id="Fill-7" fill="#B6004F"></path>
                            <path d="M28.9444018,20.4103497 C28.6765023,20.4103497 28.4328038,20.3599124 28.1643415,20.2590378 C27.920643,20.183236 27.7014269,20.0316325 27.4819294,19.8295917 L27.9451254,19.299271 C28.091457,19.42551 28.2375073,19.5266762 28.4083214,19.602478 C28.578854,19.6782797 28.7493867,19.7284255 28.9444018,19.7284255 C29.1152158,19.7284255 29.2370651,19.7033526 29.3105123,19.6275508 C29.3833967,19.5771135 29.4320802,19.5013118 29.4320802,19.4004371 L29.4320802,19.2488336 L29.3105123,19.1476674 L29.1152158,19.0467928 L28.7493867,18.9202622 L28.2864721,18.7940231 L27.920643,18.5922738 L27.7014269,18.2890668 C27.6524621,18.1625362 27.6282611,18.0362971 27.6282611,17.8596208 L27.6282611,17.8342563 L27.7014269,17.4048102 C27.7743113,17.2788627 27.8474771,17.1526236 27.9696078,17.0765303 C28.0669746,16.9756557 28.1888239,16.899854 28.3348741,16.8491251 C28.4814872,16.7986878 28.6520199,16.7736149 28.8225525,16.7736149 C29.066251,16.7736149 29.2857485,16.8240522 29.505246,16.899854 C29.7247435,16.9756557 29.92004,17.0765303 30.0902912,17.2284254 L29.7002611,17.8091834 L29.2370651,17.5567053 C29.0910148,17.480612 28.9444018,17.4555391 28.7980701,17.4555391 C28.6520199,17.4555391 28.5543716,17.480612 28.4814872,17.5567053 C28.4083214,17.6068511 28.3593565,17.6826528 28.3593565,17.7584546 L28.3593565,17.7841105 L28.4083214,17.9354225 L28.5056882,18.0362971 L28.7493867,18.1374633 L29.1152158,18.238338 L29.5784118,18.4153059 C29.7002611,18.4654517 29.8221103,18.5418365 29.92004,18.6170552 L30.1147736,18.8951893 C30.163457,19.0214284 30.187658,19.1476674 30.187658,19.299271 L30.187658,19.3243438 C30.187658,19.5013118 30.163457,19.6526237 30.0902912,19.7791544 C30.0413264,19.9053934 29.968442,20.0316325 29.8465927,20.1325071 C29.7247435,20.2086004 29.6028942,20.2841106 29.4320802,20.334548 C29.2857485,20.3852768 29.1152158,20.4103497 28.9444018,20.4103497" id="Fill-8" fill="#B6004F"></path>
                            <path d="M35.843378,20.4360056 C35.6486443,20.4360056 35.4778302,20.3852767 35.3072976,20.3097665 C35.1367649,20.2333817 34.9904332,20.132507 34.868584,20.006268 C34.7467347,19.8803205 34.6735689,19.7537898 34.6004031,19.5771135 C34.5272372,19.4004371 34.4785538,19.1981047 34.4785538,19.0214283 C34.4785538,18.819679 34.5272372,18.6427111 34.6004031,18.4654516 C34.6735689,18.2890668 34.7467347,18.1374633 34.868584,18.0112242 C34.9904332,17.8846936 35.1367649,17.7841105 35.3072976,17.7077257 C35.4778302,17.632507 35.6486443,17.606851 35.8678604,17.606851 C36.1118403,17.606851 36.3068554,17.6575799 36.477388,17.7333816 C36.6479207,17.8091834 36.7697699,17.9103496 36.8919006,18.06137 L36.4529056,18.5669094 C36.3800212,18.4654516 36.2823729,18.3899414 36.1850061,18.3392126 C36.1118403,18.2890668 35.989991,18.2639939 35.843378,18.2639939 L35.5996795,18.3144312 L35.4049458,18.4911076 L35.2583327,18.7182213 L35.2096493,18.9960639 L35.2096493,19.0214283 C35.2096493,19.1225945 35.2341317,19.2237607 35.2583327,19.2992709 C35.2828151,19.4004371 35.3314986,19.4759473 35.4049458,19.551749 C35.4536292,19.6275508 35.5265136,19.6782796 35.5996795,19.7033525 C35.6728453,19.7284254 35.7707749,19.7537898 35.8920614,19.7537898 C36.0144734,19.7537898 36.1118403,19.7284254 36.2092071,19.6782796 L36.477388,19.4759473 L36.9161016,19.9304662 C36.7942524,20.0569968 36.6479207,20.1832359 36.477388,20.2841105 C36.3068554,20.3852767 36.1118403,20.4360056 35.843378,20.4360056 L35.843378,20.4360056 Z M32.9181518,18.7940231 C32.8939508,18.6170551 32.844986,18.4911076 32.7476191,18.3648685 C32.6499709,18.2639939 32.5281216,18.213265 32.38179,18.213265 C32.2112573,18.213265 32.0894081,18.2639939 31.9917598,18.3648685 C31.8941116,18.4911076 31.8212272,18.6170551 31.7970262,18.7940231 L32.9181518,18.7940231 L32.9181518,18.7940231 Z M32.4307548,20.4360056 C32.2599407,20.4360056 32.0652071,20.3852767 31.8941116,20.3097665 C31.7238603,20.2590377 31.5772473,20.158163 31.4556794,20.0316324 C31.3335488,19.9053933 31.260383,19.7791543 31.1872171,19.6024779 C31.1143327,19.42551 31.0653679,19.2237607 31.0653679,19.0214283 C31.0653679,18.819679 31.0898503,18.6427111 31.1630161,18.4654516 C31.236182,18.2890668 31.3093478,18.1374633 31.431197,18.0112242 C31.5530463,17.8846936 31.6748955,17.7841105 31.8454282,17.7077257 C32.0162422,17.632507 32.1864935,17.606851 32.38179,17.606851 C32.6012875,17.606851 32.7718201,17.6575799 32.9426342,17.7333816 C33.1131668,17.8091834 33.2352975,17.9103496 33.3326643,18.06137 C33.4300312,18.1881921 33.5034784,18.3392126 33.5766442,18.5161805 C33.6250462,18.6928569 33.6498101,18.8951892 33.6498101,19.0718656 L33.6250462,19.1730318 L33.6250462,19.2739065 L31.8212272,19.2739065 C31.8454282,19.4508744 31.9188754,19.5771135 32.0404432,19.6782796 C32.1622925,19.7537898 32.2844231,19.8045187 32.4546744,19.8045187 C32.5770865,19.8045187 32.6744533,19.7791543 32.7960211,19.7284254 C32.8694684,19.7033525 32.9671166,19.6275508 33.0889658,19.5266761 L33.5034784,19.9053933 C33.3813477,20.0823613 33.2352975,20.2086003 33.064202,20.2841105 C32.8939508,20.3852767 32.6744533,20.4360056 32.4307548,20.4360056 L32.4307548,20.4360056 Z" id="Fill-9" fill="#B6004F"></path>
                            <path d="M38.6957186,20.4103494 C38.4278191,20.4103494 38.2083216,20.3097663 38.037789,20.1325068 C37.8914573,19.9555389 37.8182915,19.7284252 37.8182915,19.4004368 L37.8182915,17.6575797 L38.5496683,17.6575797 L38.5496683,19.1730316 C38.5496683,19.349708 38.5986332,19.475947 38.6715176,19.5771132 C38.7446834,19.6526234 38.8668141,19.7033523 39.0128643,19.7033523 C39.1347135,19.7033523 39.2565628,19.6526234 39.354211,19.5771132 C39.4273769,19.475947 39.4763417,19.349708 39.4763417,19.1730316 L39.4763417,17.6575797 L40.2071557,17.6575797 L40.2071557,20.3599121 L39.4763417,20.3599121 L39.4763417,19.9811949 L39.3294472,20.1325068 L39.159196,20.2841103 L38.9638995,20.3852765 L38.6957186,20.4103494" id="Fill-10" fill="#B6004F"></path>
                            <path d="M48.4959987,19.7537902 C48.5936469,19.7537902 48.6910138,19.7284258 48.764461,19.7033529 L48.9591947,19.5517494 C49.0078781,19.4759477 49.0568429,19.4004375 49.0810439,19.3243442 L49.1297274,19.0214287 L49.1297274,18.9960643 L49.0810439,18.6928573 L48.9591947,18.465452 L48.764461,18.3144316 C48.6910138,18.2890672 48.5936469,18.2639943 48.4959987,18.2639943 L48.2520188,18.3144316 L48.0570037,18.465452 L47.9106721,18.6928573 C47.8864711,18.7689506 47.8619886,18.8698252 47.8619886,18.9960643 L47.8619886,19.0214287 L47.9106721,19.3243442 C47.9354359,19.4004375 47.9841193,19.4759477 48.0570037,19.5517494 L48.2520188,19.7033529 L48.4959987,19.7537902 L48.4959987,19.7537902 Z M48.3251846,20.4103501 C48.1546519,20.4103501 48.0086017,20.3852772 47.8619886,20.309767 C47.7404208,20.2590381 47.6182901,20.1832363 47.4964409,20.0569973 C47.3745916,19.9304667 47.3014258,19.7791547 47.22826,19.6024783 C47.1550941,19.4255104 47.1308931,19.248834 47.1308931,19.0214287 L47.1308931,18.9960643 C47.1308931,18.7689506 47.1550941,18.5669098 47.22826,18.3899419 C47.3014258,18.2132655 47.3745916,18.0870264 47.4964409,17.9610789 C47.5940891,17.8342567 47.7159384,17.758455 47.8619886,17.7077261 C48.0086017,17.6325074 48.1546519,17.6068515 48.3251846,17.6068515 C48.5201996,17.6068515 48.6910137,17.6575803 48.8131444,17.7333821 C48.9347122,17.8091838 49.0568429,17.884694 49.1297273,18.0112246 L49.1297273,16.6724491 L49.8611042,16.6724491 L49.8611042,20.3599127 L49.1297273,20.3599127 L49.1297273,19.9811955 C49.0568429,20.1074346 48.9347122,20.2086008 48.8131444,20.284111 C48.6910137,20.3599127 48.5201996,20.4103501 48.3251846,20.4103501 L48.3251846,20.4103501 Z M45.5462903,18.7940235 C45.5218079,18.6170555 45.4731245,18.491108 45.3757576,18.364869 C45.2781094,18.2639943 45.1562601,18.2132655 45.0099285,18.2132655 C44.8391144,18.2132655 44.7175466,18.2639943 44.6196169,18.364869 C44.5222501,18.491108 44.4490843,18.6170555 44.4248833,18.7940235 L45.5462903,18.7940235 L45.5462903,18.7940235 Z M45.0588933,20.436006 C44.8877978,20.436006 44.6930642,20.3852772 44.5222501,20.3097669 C44.3519988,20.2590381 44.2051044,20.1581634 44.0838179,20.0316328 C43.9616873,19.9053938 43.8885215,19.7791547 43.8153556,19.6024783 C43.7424712,19.4255104 43.6935064,19.2237611 43.6935064,19.0214287 C43.6935064,18.8196795 43.7177074,18.6427115 43.7908732,18.4654521 C43.864039,18.2890672 43.9372049,18.1374637 44.0590541,18.0112246 C44.1809034,17.884694 44.303034,17.7841109 44.4732853,17.7077261 C44.6443807,17.6325074 44.814632,17.6068515 45.0099285,17.6068515 C45.2291446,17.6068515 45.3999586,17.6575803 45.5707727,17.7333821 C45.7413054,17.8091838 45.8631546,17.91035 45.9608028,18.0613704 C46.0578883,18.1881926 46.1313355,18.339213 46.2042199,18.5161809 C46.2531848,18.6928573 46.2776672,18.8951897 46.2776672,19.0718661 L46.2531848,19.1730322 L46.2531848,19.2739069 L44.4490843,19.2739069 C44.4732853,19.4508748 44.5467325,19.5771139 44.6685818,19.6782801 C44.790431,19.7537903 44.9125616,19.8045191 45.0828129,19.8045191 C45.2049436,19.8045191 45.3025918,19.7791547 45.4241596,19.7284258 C45.4973255,19.7033529 45.5949737,19.6275512 45.7168229,19.5266766 L46.1313355,19.9053938 C46.0092049,20.0823617 45.8631546,20.2086008 45.6923405,20.284111 C45.5218079,20.3852772 45.3025918,20.436006 45.0588933,20.436006 L45.0588933,20.436006 Z M41.3775265,17.6575803 L42.1089034,17.6575803 L42.1089034,18.1881926 C42.1820692,18.0112247 42.3039185,17.8596212 42.4257677,17.758455 C42.547617,17.6325074 42.718431,17.5817786 42.9376471,17.6068515 L42.9376471,18.4153063 L42.9134461,18.4153063 C42.6452652,18.4153063 42.4502501,18.491108 42.3281195,18.6427116 C42.1820692,18.7940235 42.1089034,19.0467932 42.1089034,19.3747815 L42.1089034,20.3599128 L41.3775265,20.3599128 L41.3775265,17.6575803 L41.3775265,17.6575803 Z" id="Fill-11" fill="#B6004F"></path>
                            <path d="M18.2180104,10.9648687 L19.1202014,10.9648687 L19.1202014,10.0048104 L18.2180104,10.0048104 L18.2180104,10.9648687 Z M18.2180104,7.58032066 L19.1202014,7.58032066 L19.1202014,8.51443146 L18.2180104,8.51443146 L18.2180104,7.58032066 Z M19.6320802,4.17040808 L20.5587535,4.17040808 L20.5587535,5.10510198 L19.6320802,5.10510198 L19.6320802,4.17040808 Z M22.3625732,3.16020411 L24.1419099,3.16020411 L24.1419099,2.14999999 L22.3625732,2.14999999 L22.3625732,5.10510213 L20.5584727,5.10510213 L20.5584727,6.06457738 L19.0225531,6.06457738 L19.0225531,6.72142871 L18.2180103,6.72142871 L18.2180103,7.58032087 L17.2429349,7.58032087 L17.2429349,9.07040838 L16.316543,9.07040838 L16.316543,10.0048107 L15.7072967,10.0048107 L15.7072967,10.9648691 L15.0246032,10.9648691 C13.6592163,13.0607875 12.5864926,15.1319246 11.8064323,17.2284261 C10.0512966,14.6771141 8.41772873,13.1619537 6.90657292,12.6567059 C6.49206035,12.5304668 6.19939703,12.6313414 6.02886436,13.0100586 C5.85833169,13.3890674 6.00438195,13.8686593 6.51654276,14.4249275 C8.05218098,16.1672016 9.46625136,18.6427119 10.7581911,21.7998548 C10.9532062,22.3048111 11.3922011,22.5826537 12.0990956,22.6581639 C12.7573067,22.7088928 13.1960203,22.4561231 13.3910354,21.9004379 C14.3419097,19.2992717 15.4391158,17.0765311 16.7068545,15.1823619 L16.7068545,14.0963561 L17.43795,14.0963561 L17.43795,13.1619537 L18.2180103,13.1619537 L18.2180103,12.025219 L19.1202013,12.025219 L19.1202013,10.9648691 L20.0463119,10.9648691 L20.0463119,10.0048107 L20.7779702,10.0048107 L20.7779702,8.84300312 L21.5822315,8.84300312 L21.5822315,8.06020426 L22.3625732,8.06020426 L22.3625732,6.06457738 L23.2642014,6.06457738 L23.2642014,5.10510213 L24.312724,5.10510213 L24.312724,4.14533533 L23.2642014,4.14533533 L23.2642014,5.10510213 L22.3625732,5.10510213 L22.3625732,6.06457738 L21.4603823,6.06457738 L21.4603823,6.99956283 L20.5584727,6.99956283 L20.5584727,6.06457738 L21.4603823,6.06457738 L21.4603823,3.16020411 L22.3625732,3.16020411 L22.3625732,3.16020411 Z" id="Fill-13" fill="#000000"></path>
                            <polygon id="Fill-14" fill="#B6004F" points="22.3625732 3.16020421 23.2642014 3.16020421 23.2642014 4.14533538 22.3625732 4.14533538"></polygon>
                            <polygon id="Fill-15" fill="#B6004F" points="18.2180098 7.58032049 19.1202007 7.58032049 19.1202007 8.51443129 18.2180098 8.51443129"></polygon>
                            <polygon id="Fill-16" fill="#B6004F" points="25.1659485 2.14999999 26.1410239 2.14999999 26.1410239 3.16020404 25.1659485 3.16020404"></polygon>
                            <polygon id="Fill-17" fill="#B6004F" points="24.2150749 1.13979595 25.1904317 1.13979595 25.1904317 2.14999999 24.2150749 2.14999999"></polygon>
                            <polygon id="Fill-18" fill="#B6004F" points="25.1659485 0.129300292 26.1410239 0.129300292 26.1410239 1.13979589 25.1659485 1.13979589"></polygon>
                        </g>
                    </g>
                </g>
            </g>
        </g>
    </g>
</svg>