<?xml version="1.0" encoding="UTF-8"?>
<svg width="51px" height="15px" viewBox="0 0 51 15" version="1.1" xmlns="http://www.w3.org/2000/svg" xmlns:xlink="http://www.w3.org/1999/xlink">
    <!-- Generator: sketchtool 55.2 (78181) - https://sketchapp.com -->
    <title>E6ABB129-3BBB-4F70-8412-769C0ECCBA17</title>
    <desc>Created with sketchtool.</desc>
    <g id="💎-VD---Homepage-and-PDP---Iteration-2" stroke="none" stroke-width="1" fill="none" fill-rule="evenodd">
        <g id="ELC---Chekout-Header-and-Footer---Large-1440px" transform="translate(-1359.000000, -513.000000)" fill="#16216A">
            <g id="Footer" transform="translate(0.000000, 389.000000)">
                <g id="Payment-logos" transform="translate(1005.000000, 119.000000)">
                    <g id="Card-networks/MC-Horizontal-Copy-4" transform="translate(354.000000, 5.000000)">
                        <g id="Visa">
                            <path d="M37.2233771,0.724004654 L36.6664651,3.84823166 L36.2965308,3.68177299 C35.5405781,3.39022979 34.5654795,3.10927066 33.2234624,3.12947663 C31.6160577,3.12947663 30.8701575,3.77125655 30.8701575,4.36973798 C30.8611102,5.04519451 31.7417147,5.48972573 33.1782259,6.15652256 C35.5486201,7.18702676 36.6413337,8.43498562 36.6262548,10.0735931 C36.5940866,13.0688868 33.7914322,14.9999997 29.4728513,14.9999997 C27.6302166,14.9826803 25.8549341,14.634368 24.8969249,14.2321731 L25.473942,11.0040297 L26.0027068,11.2320684 C27.3527659,11.769932 28.2253283,11.9883488 29.8679171,11.9883488 C31.0500984,11.9883488 32.3167213,11.5486285 32.3287844,10.5816288 C32.3348159,9.95043296 31.7959985,9.50012861 30.1976411,8.79388204 C28.6384887,8.10399267 26.5757028,6.94647956 26.5978185,4.87584928 C26.6229499,2.07203115 29.4829039,0.116863527 33.5411234,0.116863527 C35.1334493,0.116863527 36.4101248,0.431499262 37.2233771,0.724004654 Z M47.7300763,0.116863527 L51.0000017,14.9999997 L47.2517916,14.9999997 C47.2517916,14.9999997 46.8812198,13.2896714 46.7606605,12.7689206 C46.1716984,12.7689206 42.0529165,12.761964 41.5904429,12.761964 C41.4313441,13.1654465 40.7405983,14.9999997 40.7405983,14.9999997 L36.4982925,14.9999997 L42.4956263,1.35215588 C42.9205486,0.383201702 43.6439047,0.116863527 44.6113441,0.116863527 L47.7300763,0.116863527 Z M4.59914462,1.98041647 C3.26505824,1.26329437 1.72890464,0.689421084 0,0.298372148 L0.0501167363,0 L6.79337474,0 C7.70058994,0.0325149135 8.43495355,0.301241111 8.68758281,1.20878973 L10.1511961,7.79592868 C10.0668853,7.5939718 9.97558878,7.39400038 9.87735902,7.19623684 C10.0433643,7.53767236 10.1812134,7.87932667 10.287177,8.21694227 L10.7177217,10.2819998 L14.7425093,0.116863527 L19.096241,0.116863527 L12.6239882,14.9940314 L8.27428024,14.9999997 L4.59914462,1.98041647 Z M42.7515649,9.71696336 C43.0865618,8.85832089 44.3593523,5.55294489 44.3593523,5.55294489 C44.3366239,5.59369066 44.6913847,4.69032722 44.8939639,4.1318121 L45.1676929,5.41580061 C45.1676929,5.41580061 45.9414468,8.97062019 46.1035102,9.71696336 L42.7515649,9.71696336 Z M18.3711557,14.9999997 L20.8794796,0.116863527 L24.8969245,0.116863527 L22.381723,14.9999997 L18.3711557,14.9999997 Z" id="Fill-1"></path>
                        </g>
                    </g>
                </g>
            </g>
        </g>
    </g>
</svg>